<svg width="184" height="175" viewBox="0 0 184 175" fill="none" xmlns="http://www.w3.org/2000/svg">
<g clip-path="url(#clip0_16_1796)">
<path fill-rule="evenodd" clip-rule="evenodd" d="M87.2163 0.237823C57.6427 1.99273 24.6902 13.4779 9.99969 38.2604C-4.69109 63.043 -1.12007 101.122 7.47054 125.209C16.0608 149.297 29.6697 159.391 48.8788 166.119C68.088 172.846 92.8969 176.206 116.014 174.606C139.13 173.005 160.554 166.445 172.106 151.776C183.659 137.107 185.34 114.33 183.207 90.0891C181.072 65.8477 175.124 40.1414 159.054 23.3C142.982 6.45929 116.789 -1.51664 87.2164 0.237675L87.2163 0.237823Z" fill="#EAF4FB"/>
<path d="M121.816 140.416C121.508 140.735 121.223 141.07 120.961 141.418L120.936 140.416H121.816H121.816Z" fill="#EBE1A2"/>
<path d="M123.892 154.999C123.573 155.891 123.353 156.81 123.231 157.749L121.36 156.992L121.316 155.27C121.855 155.047 122.445 154.925 123.065 154.925C123.347 154.925 123.624 154.95 123.891 154.999L123.892 154.999Z" fill="#1D9E46"/>
<path d="M125.043 152.566C124.739 153.068 124.469 153.591 124.233 154.135C123.856 154.053 123.465 154.009 123.065 154.009C122.444 154.009 121.848 154.113 121.292 154.304L121.246 152.522C121.827 152.371 122.436 152.29 123.065 152.29C123.75 152.29 124.414 152.386 125.043 152.566V152.566Z" fill="#24AC6D"/>
<path d="M126.769 150.289C126.331 150.755 125.928 151.248 125.563 151.766C124.765 151.508 123.925 151.375 123.064 151.375C122.431 151.375 121.814 151.448 121.222 151.587L121.174 149.752C121.786 149.633 122.417 149.571 123.064 149.571C124.375 149.571 125.625 149.825 126.769 150.289Z" fill="#60B682"/>
<path d="M126.535 140.415C124.119 141.413 122.285 143.548 121.697 146.151C121.492 146.168 121.287 146.19 121.083 146.217L121.002 143.018C121.564 142.032 122.288 141.152 123.14 140.415H126.535H126.535Z" fill="#E8DA79"/>
<path d="M128.926 148.429C128.417 148.781 127.934 149.169 127.474 149.591C126.105 148.977 124.609 148.656 123.065 148.656C122.416 148.656 121.777 148.713 121.151 148.823L121.107 147.124C121.746 147.022 122.399 146.97 123.064 146.97C125.181 146.97 127.177 147.499 128.926 148.429V148.429V148.429Z" fill="#96C9A3"/>
<path d="M133.907 146.32C132.947 146.495 132.01 146.777 131.103 147.161C130.582 147.382 130.077 147.634 129.592 147.918C129.106 147.634 128.601 147.382 128.078 147.161C127.19 146.783 126.271 146.506 125.33 146.331C125.984 144.592 127.658 143.355 129.621 143.355C131.579 143.355 133.251 144.587 133.907 146.321L133.907 146.32H133.907Z" fill="#DDC61C"/>
<path d="M136.592 146.105C136.506 146.102 136.418 146.102 136.33 146.102C135.824 146.102 135.322 146.13 134.826 146.185C134.089 144.01 132.034 142.439 129.62 142.439C127.202 142.439 125.145 144.013 124.411 146.191C123.897 146.133 123.376 146.102 122.852 146.102C122.784 146.102 122.715 146.102 122.648 146.103C123.462 143.004 126.274 140.721 129.62 140.721C132.966 140.721 135.779 143.005 136.592 146.105H136.592L136.592 146.105Z" fill="#E0CC44"/>
<path d="M138.366 140.415L138.337 141.498C138.059 141.12 137.755 140.759 137.424 140.415H138.366H138.366Z" fill="#EBE1A2"/>
<path d="M138.296 143.121L138.217 146.234C137.994 146.202 137.77 146.176 137.545 146.156C137.213 144.665 136.466 143.297 135.364 142.192C134.593 141.418 133.694 140.819 132.716 140.415H136.099C136.981 141.178 137.726 142.093 138.296 143.121L138.296 143.121V143.121Z" fill="#E8DA79"/>
<path d="M138.194 147.099L138.15 148.796C137.579 148.703 136.997 148.656 136.406 148.656C133.512 148.656 130.792 149.786 128.746 151.839C126.892 153.698 125.792 156.112 125.601 158.708L123.978 158.051C124.704 151.812 129.992 146.971 136.406 146.971C137.014 146.971 137.611 147.014 138.195 147.099H138.194Z" fill="#98BBE1"/>
<path d="M138.127 149.72L138.08 151.548C137.535 151.434 136.975 151.375 136.406 151.375C131.927 151.375 128.283 155.029 128.283 159.522C128.283 159.614 128.286 159.706 128.29 159.797L126.494 159.071C126.731 153.784 131.078 149.571 136.406 149.571C136.994 149.571 137.569 149.622 138.127 149.72L138.127 149.72H138.127Z" fill="#6E9DD3"/>
<path d="M138.056 152.481L138.01 154.25C137.502 154.094 136.964 154.009 136.406 154.009C133.375 154.009 130.909 156.483 130.909 159.522C130.909 159.628 130.912 159.731 130.918 159.835L129.651 160.35L129.225 160.178C129.205 159.961 129.195 159.742 129.195 159.523C129.195 155.528 132.423 152.29 136.406 152.29C136.973 152.29 137.525 152.356 138.055 152.481L138.056 152.481Z" fill="#3389C7"/>
<path d="M137.986 155.205L137.94 156.991L131.822 159.469C131.851 156.954 133.89 154.924 136.406 154.924C136.961 154.924 137.493 155.023 137.986 155.205V155.205L137.986 155.205Z" fill="#2678BA"/>
<path fill-rule="evenodd" clip-rule="evenodd" d="M141.84 171.076C141.751 171.076 141.662 171.075 141.572 171.072L83.4312 169.325L43.473 168.125L39.2233 167.998C36.4913 167.916 34.0821 166.587 32.5297 164.567C31.3882 163.08 30.7103 161.218 30.7103 159.2V15.1144C30.7103 10.3233 34.5324 6.41222 39.3088 6.31528L141.657 4.24764C141.718 4.24615 141.778 4.24615 141.838 4.24615C146.672 4.24615 150.61 8.1772 150.61 13.0468V162.275C150.61 167.149 146.666 171.076 141.84 171.076L141.84 171.076L141.84 171.076ZM89.9499 162.595C85.3646 162.595 80.5599 162.892 78.5901 163.029C78.0416 163.068 77.5775 163.526 77.45 164.154L77.4178 164.311C77.2336 165.218 77.8125 166.077 78.5999 166.077C78.6113 166.077 78.6222 166.077 78.633 166.077C82.7125 165.953 91.8395 165.735 95.0787 165.659C95.7353 165.643 96.27 165.028 96.2989 164.259C96.328 163.483 95.8321 162.822 95.1731 162.769C93.5989 162.643 91.7919 162.595 89.9498 162.595H89.9499ZM133.145 15.3037C133.096 15.3037 133.044 15.3037 132.995 15.3052L47.7878 17.0933C43.8113 17.1763 40.6292 20.5589 40.6292 24.7034V149.315C40.6292 153.43 43.7684 156.8 47.7164 156.923L132.923 159.582C132.998 159.585 133.072 159.586 133.147 159.586C137.164 159.586 140.448 156.189 140.448 151.974V22.915C140.448 18.7029 137.169 15.3034 133.145 15.3034L133.145 15.3037H133.145ZM89.9654 7.16057C88.1056 7.16057 86.597 8.67358 86.597 10.5386C86.597 12.4048 88.1056 13.9181 89.9654 13.9181C91.8261 13.9181 93.3341 12.4051 93.3341 10.5386C93.3341 8.67358 91.8261 7.16057 89.9654 7.16057Z" fill="#3389C7"/>
<path fill-rule="evenodd" clip-rule="evenodd" d="M133.146 159.586C133.071 159.586 132.998 159.585 132.923 159.582L47.7161 156.923C43.7681 156.8 40.6289 153.43 40.6289 149.315V24.7034C40.6289 20.559 43.811 17.1764 47.7875 17.0932L132.995 15.3051C133.044 15.3036 133.096 15.3036 133.145 15.3036C137.168 15.3036 140.447 18.7032 140.447 22.9153V151.974C140.447 156.189 137.163 159.586 133.146 159.586L133.147 159.586H133.146ZM128.242 21.5617C128.198 21.5617 128.153 21.5617 128.109 21.5632L52.5406 23.2053C49.0141 23.2821 46.1925 26.3882 46.1925 30.1932V144.631C46.1925 148.41 48.9767 151.505 52.4778 151.618L128.046 154.06C128.112 154.062 128.178 154.063 128.244 154.063C131.807 154.063 134.718 150.944 134.718 147.073V28.5515C134.718 24.6835 131.811 21.5622 128.243 21.5622L128.242 21.5619L128.242 21.5617Z" fill="#98BBE1" stroke="#3389C7" stroke-width="0.0764278" stroke-miterlimit="22.9256"/>
<path fill-rule="evenodd" clip-rule="evenodd" d="M128.244 154.063C128.178 154.063 128.112 154.062 128.046 154.06L52.4777 151.618C48.9766 151.505 46.1924 148.41 46.1924 144.631V30.193C46.1924 26.3879 49.014 23.282 52.5405 23.2051L128.109 21.5629C128.153 21.5615 128.198 21.5615 128.242 21.5615C131.811 21.5615 134.718 24.6828 134.718 28.5508V147.073C134.718 150.944 131.806 154.063 128.243 154.063L128.244 154.063L128.244 154.063ZM52.4828 140.146C51.2267 140.146 50.2487 141.224 50.3732 142.468L50.4011 142.743C50.5101 143.827 51.4273 144.651 52.5203 144.651C52.5246 144.651 52.5289 144.651 52.5331 144.651L109.563 144.313C110.707 144.306 111.638 143.401 111.671 142.264C111.707 141.071 110.745 140.083 109.545 140.083C109.544 140.083 109.543 140.083 109.542 140.083C100.066 140.096 62.6789 140.146 52.631 140.146C52.5807 140.146 52.5311 140.146 52.4826 140.146L52.4829 140.146H52.4828ZM53.1996 129.179C51.5743 129.179 50.3247 130.256 50.5045 131.499L50.5444 131.774C50.702 132.859 51.9029 133.685 53.3195 133.685C53.3244 133.685 53.329 133.685 53.3338 133.685L127.184 133.396C128.663 133.391 129.856 132.486 129.884 131.348C129.912 130.154 128.649 129.165 127.095 129.165H127.093C117.231 129.169 84.0231 129.181 64.6104 129.181C59.7489 129.181 55.7501 129.181 53.2029 129.179C53.2017 129.179 53.2011 129.179 53.1998 129.179V129.179L53.1996 129.179ZM51.6779 116.133C50.4077 116.133 49.4185 117.208 49.5432 118.451L49.5711 118.726C49.6808 119.811 50.6111 120.638 51.7197 120.638C51.7229 120.638 51.726 120.638 51.7289 120.638L109.489 120.405C110.647 120.4 111.591 119.496 111.626 118.359C111.662 117.165 110.687 116.175 109.471 116.175C99.8262 116.17 61.6315 116.152 51.6824 116.133C51.6806 116.133 51.6793 116.133 51.6781 116.133V116.133H51.6779ZM52.4476 106.237C50.8223 106.237 49.5726 107.314 49.7525 108.557L49.7924 108.833C49.9493 109.917 51.1508 110.743 52.5674 110.743C52.5723 110.743 52.5772 110.743 52.5812 110.743L126.432 110.455C127.911 110.449 129.104 109.545 129.132 108.407C129.16 107.213 127.897 106.224 126.343 106.224C126.341 106.224 126.341 106.224 126.341 106.224C116.461 106.228 83.1521 106.24 63.7537 106.24C58.9389 106.24 54.9792 106.239 52.4496 106.237C52.4491 106.237 52.4479 106.237 52.4471 106.237H52.4474H52.4476ZM51.9667 93.0408C50.6959 93.0408 49.7065 94.1158 49.832 95.3586L49.8599 95.6337C49.969 96.7185 50.8999 97.546 52.0078 97.546C52.0109 97.546 52.014 97.546 52.0169 97.546L109.777 97.3121C110.935 97.3078 111.88 96.404 111.914 95.267C111.951 94.0728 110.976 93.083 109.759 93.0824C100.115 93.0781 61.9201 93.06 51.9704 93.0412C51.9692 93.0412 51.9679 93.0412 51.9667 93.0412V93.0409V93.0408ZM53.0751 83.0268C51.4493 83.0268 50.2001 84.1034 50.38 85.3465L50.4199 85.6221C50.5768 86.7064 51.7783 87.5324 53.1949 87.5324C53.1989 87.5324 53.2038 87.5324 53.209 87.5324L127.059 87.2441C128.54 87.2386 129.733 86.3336 129.759 85.1965C129.786 84.0021 128.524 83.0134 126.97 83.0134C126.97 83.0134 126.97 83.0134 126.968 83.0134C117.099 83.0171 83.854 83.0291 64.4465 83.0291C59.6035 83.0291 55.6184 83.0285 53.0779 83.0265C53.0773 83.0265 53.0761 83.0265 53.0754 83.0265L53.0751 83.0268ZM110.144 69.807C110.14 69.807 110.136 69.807 110.131 69.807C100.532 69.8636 62.5173 70.0858 52.6147 70.1295C51.3482 70.1357 50.3674 71.218 50.4995 72.4605L50.5286 72.7359C50.6436 73.8158 51.5668 74.6347 52.6639 74.6347C52.6719 74.6347 52.6793 74.6347 52.6868 74.6347L110.173 74.0371C111.326 74.0248 112.261 73.1155 112.289 71.9785C112.319 70.7879 111.349 69.807 110.145 69.807H110.144H110.144ZM53.1995 60.2796C51.5742 60.2796 50.3245 61.3564 50.5044 62.5998L50.5443 62.8749C50.7018 63.96 51.9027 64.7858 53.3193 64.7858C53.3242 64.7858 53.3288 64.7858 53.3337 64.7858L127.184 64.4975C128.663 64.4917 129.856 63.587 129.884 62.4498C129.912 61.2554 128.649 60.2664 127.095 60.2664C127.093 60.2664 127.093 60.2664 127.093 60.2664C117.23 60.2707 84.0179 60.2822 64.6054 60.2822C59.7464 60.2822 55.749 60.2816 53.2023 60.2796C53.2011 60.2796 53.2005 60.2796 53.1992 60.2796H53.1995ZM74.743 51.5426L65.8971 25.5444H61.859L53.052 51.5426H56.5131L59.2057 43.3651H68.3973L71.1662 51.5426H74.743ZM129.619 46.7615C129.616 46.7615 129.614 46.7615 129.613 46.7615C121.628 46.7876 90.0053 46.8923 81.7681 46.9044C80.7141 46.9059 79.8846 47.9858 79.9784 49.2289L79.999 49.504C80.0809 50.5857 80.8412 51.4086 81.7564 51.4086C81.7613 51.4086 81.7653 51.4086 81.7696 51.4086L129.594 50.9908C130.553 50.9822 131.342 50.0754 131.38 48.9389C131.42 47.7459 130.623 46.7609 129.619 46.7609L129.619 46.7612L129.619 46.7615ZM129.994 37.3759C129.993 37.3759 129.99 37.3759 129.99 37.3759C122.004 37.4036 90.3807 37.5066 82.1436 37.5188C81.0899 37.5219 80.2601 38.6002 80.354 39.843L80.3745 40.1181C80.4564 41.2011 81.2167 42.0243 82.1319 42.0243C82.1368 42.0243 82.1411 42.0243 82.1451 42.0243L129.969 41.605C130.928 41.5973 131.717 40.6911 131.755 39.5544C131.795 38.3623 130.998 37.3762 129.994 37.3762L129.994 37.3759ZM130.219 27.6199C130.218 27.6199 130.216 27.6199 130.215 27.6199C122.229 27.646 90.6067 27.749 82.3694 27.7628C81.3157 27.7642 80.4859 28.8427 80.5798 30.087L80.6003 30.3618C80.6822 31.4432 81.4425 32.2664 82.3577 32.2664C82.3626 32.2664 82.3666 32.2664 82.3709 32.2664L130.195 31.8486C131.153 31.8394 131.944 30.9332 131.98 29.7963C132.02 28.6042 131.224 27.6196 130.219 27.6196H130.219V27.6199ZM67.705 40.7416H59.8979L62.4361 33.2208C62.9363 31.6385 63.3593 30.0579 63.7439 28.5141H63.8209C64.2056 30.0194 64.59 31.5617 65.1671 33.2591L67.7052 40.7416H67.7051H67.705Z" fill="white"/>
<path fill-rule="evenodd" clip-rule="evenodd" d="M78.5998 166.077C77.8124 166.077 77.2334 165.218 77.4177 164.311L77.4499 164.153C77.5778 163.526 78.0415 163.067 78.5901 163.029C80.5603 162.892 85.3646 162.595 89.9498 162.595C91.7922 162.595 93.5993 162.643 95.1732 162.768C95.8322 162.821 96.3281 163.483 96.299 164.258C96.2702 165.028 95.7354 165.643 95.0788 165.659C91.8394 165.735 82.7125 165.953 78.6331 166.077C78.622 166.077 78.6114 166.077 78.6 166.077H78.5998Z" fill="white"/>
<path fill-rule="evenodd" clip-rule="evenodd" d="M89.9653 13.918C88.1055 13.918 86.5969 12.405 86.5969 10.5384C86.5969 8.67341 88.1055 7.1604 89.9653 7.1604C91.8261 7.1604 93.334 8.67341 93.334 10.5384C93.334 12.4047 91.8261 13.918 89.9653 13.918Z" fill="white"/>
<path fill-rule="evenodd" clip-rule="evenodd" d="M82.1324 42.0246C81.2172 42.0246 80.4568 41.2014 80.375 40.1184L80.3544 39.8433C80.2606 38.6005 81.0904 37.5221 82.1441 37.5191C90.3812 37.5068 122.004 37.4038 129.99 37.3762C129.99 37.3762 129.993 37.3762 129.995 37.3762C130.999 37.3762 131.796 38.3623 131.756 39.5544C131.718 40.6913 130.929 41.5975 129.97 41.605L82.1458 42.0244C82.1416 42.0244 82.1373 42.0244 82.1327 42.0244L82.1324 42.0246Z" fill="#98BBE1"/>
<path fill-rule="evenodd" clip-rule="evenodd" d="M82.3585 32.2671C81.4432 32.2671 80.6829 31.4439 80.601 30.3625L80.5805 30.0877C80.4866 28.8434 81.3162 27.765 82.3701 27.7635C90.6072 27.7497 122.23 27.6467 130.216 27.6206C130.217 27.6206 130.219 27.6206 130.22 27.6206C131.225 27.6206 132.021 28.6052 131.982 29.7973C131.945 30.9342 131.155 31.8404 130.196 31.8496L82.3719 32.2674C82.3676 32.2674 82.3633 32.2674 82.3588 32.2674H82.3585V32.2671Z" fill="#98BBE1"/>
<path fill-rule="evenodd" clip-rule="evenodd" d="M81.757 51.4094C80.8418 51.4094 80.0815 50.5864 79.9996 49.5048L79.979 49.2297C79.8852 47.9866 80.715 46.9066 81.7687 46.9052C90.0058 46.8929 121.629 46.7884 129.613 46.7623C129.615 46.7623 129.617 46.7623 129.62 46.7623C130.624 46.7623 131.421 47.7469 131.381 48.9402C131.343 50.0766 130.554 50.9835 129.595 50.9921L81.7706 51.41C81.7663 51.41 81.762 51.41 81.7575 51.41L81.7572 51.4097L81.757 51.4094Z" fill="#98BBE1"/>
<path fill-rule="evenodd" clip-rule="evenodd" d="M53.3194 64.7865C51.9028 64.7865 50.7019 63.9605 50.5444 62.8756L50.5045 62.6006C50.3245 61.3571 51.5741 60.2803 53.1996 60.2803C53.2007 60.2803 53.2013 60.2803 53.2027 60.2803C55.7494 60.2821 59.7463 60.2829 64.6057 60.2829C84.0184 60.2829 117.231 60.2714 127.094 60.2672C127.094 60.2672 127.094 60.2672 127.095 60.2672C128.65 60.2672 129.912 61.2561 129.884 62.4506C129.857 63.5877 128.663 64.4923 127.184 64.4982L53.334 64.7865C53.3292 64.7865 53.3246 64.7865 53.3197 64.7865H53.3194Z" fill="#98BBE1"/>
<path fill-rule="evenodd" clip-rule="evenodd" d="M52.6638 74.6351C51.5665 74.6351 50.6433 73.8162 50.5285 72.7363L50.4994 72.4609C50.3672 71.2181 51.3484 70.1357 52.6146 70.1299C62.5176 70.0863 100.532 69.8637 110.131 69.8074C110.136 69.8074 110.14 69.8074 110.144 69.8074C111.349 69.8074 112.318 70.7883 112.289 71.9789C112.26 73.116 111.326 74.0254 110.173 74.0375L52.6865 74.6351C52.6789 74.6351 52.6715 74.6351 52.6636 74.6351H52.6639H52.6638Z" fill="#98BBE1"/>
<path fill-rule="evenodd" clip-rule="evenodd" d="M53.195 87.5328C51.7784 87.5328 50.5769 86.7068 50.42 85.6226L50.3801 85.3469C50.2001 84.1035 51.4494 83.0273 53.0752 83.0273C53.0758 83.0273 53.077 83.0273 53.0777 83.0273C55.6182 83.0291 59.6033 83.0298 64.4463 83.0298C83.8539 83.0298 117.099 83.0175 126.968 83.0141C126.97 83.0141 126.97 83.0141 126.97 83.0141C128.524 83.0141 129.786 84.003 129.759 85.1972C129.733 86.3343 128.539 87.2392 127.058 87.2449L53.2088 87.5331C53.2039 87.5331 53.199 87.5331 53.1947 87.5331L53.195 87.5328Z" fill="#98BBE1"/>
<path fill-rule="evenodd" clip-rule="evenodd" d="M52.0077 97.546C50.8993 97.546 49.9686 96.7188 49.8598 95.6337L49.8319 95.3586C49.7066 94.1158 50.6963 93.0408 51.9666 93.0408C51.9678 93.0408 51.9691 93.0408 51.9703 93.0408C61.9202 93.0596 100.115 93.0777 109.759 93.082C110.976 93.0826 111.951 94.0728 111.914 95.2666C111.88 96.4037 110.935 97.3074 109.777 97.3117L52.0169 97.5456C52.0137 97.5456 52.0106 97.5456 52.0077 97.5456V97.5459V97.546Z" fill="#98BBE1"/>
<path fill-rule="evenodd" clip-rule="evenodd" d="M52.5673 110.744C51.1507 110.744 49.9492 109.918 49.7923 108.833L49.7524 108.558C49.5724 107.315 50.822 106.238 52.4475 106.238C52.4481 106.238 52.4493 106.238 52.45 106.238C54.9796 106.24 58.9391 106.241 63.754 106.241C83.1523 106.241 116.461 106.229 126.342 106.225C126.342 106.225 126.342 106.225 126.343 106.225C127.898 106.225 129.16 107.214 129.132 108.408C129.105 109.545 127.911 110.45 126.432 110.456L52.5815 110.744C52.5775 110.744 52.5727 110.744 52.5678 110.744H52.5675H52.5673Z" fill="#98BBE1"/>
<path fill-rule="evenodd" clip-rule="evenodd" d="M51.7195 120.639C50.6106 120.639 49.6804 119.811 49.5709 118.726L49.543 118.451C49.4182 117.209 50.4077 116.134 51.6777 116.134C51.6789 116.134 51.6799 116.134 51.682 116.134C61.6313 116.152 99.8259 116.17 109.47 116.175C110.687 116.176 111.662 117.165 111.626 118.36C111.59 119.496 110.647 120.4 109.489 120.405L51.7285 120.639C51.7254 120.639 51.7223 120.639 51.7194 120.639V120.639H51.7195Z" fill="#98BBE1"/>
<path fill-rule="evenodd" clip-rule="evenodd" d="M53.3194 133.685C51.9028 133.685 50.7019 132.859 50.5444 131.775L50.5045 131.5C50.3245 130.256 51.5741 129.179 53.1996 129.179C53.2007 129.179 53.2013 129.179 53.2027 129.179C55.75 129.181 59.7489 129.182 64.6102 129.182C84.0229 129.182 117.231 129.17 127.093 129.166H127.095C128.649 129.166 129.911 130.155 129.884 131.349C129.856 132.487 128.663 133.391 127.184 133.397L53.3336 133.686C53.3287 133.686 53.3241 133.686 53.3193 133.686V133.686L53.3194 133.685Z" fill="#98BBE1"/>
<path fill-rule="evenodd" clip-rule="evenodd" d="M52.5201 144.652C51.4271 144.652 50.5101 143.827 50.4008 142.744L50.3729 142.468C50.2482 141.224 51.2262 140.147 52.4825 140.147C52.531 140.147 52.5806 140.147 52.6309 140.147C62.6788 140.147 100.066 140.097 109.542 140.083C109.542 140.083 109.544 140.083 109.545 140.083C110.745 140.083 111.706 141.071 111.671 142.265C111.638 143.402 110.707 144.307 109.563 144.313L52.5331 144.652C52.5288 144.652 52.5245 144.652 52.5202 144.652L52.5199 144.652H52.5201Z" fill="#98BBE1"/>
<path fill-rule="evenodd" clip-rule="evenodd" d="M74.7432 51.543H71.1664L68.3976 43.3655H59.2059L56.5133 51.543H53.0522L61.8592 25.5448H65.8974L74.7432 51.543ZM63.7439 28.5144C63.3592 30.0582 62.9362 31.6388 62.436 33.221L59.8978 40.7419H67.7049L65.1667 33.2594C64.5896 31.5619 64.205 30.0197 63.8206 28.5144H63.7436H63.7437H63.7439Z" fill="#98BBE1"/>
<path fill-rule="evenodd" clip-rule="evenodd" d="M139.22 62.1272C139.22 62.1272 141.815 63.3931 142.291 64.8465C142.674 66.0135 145.543 66.1641 145.826 68.4582C145.973 69.6426 146.846 70.5915 148.022 70.7717C150.952 71.2223 155.467 72.7484 156.19 77.8499C156.742 81.7446 154.763 83.2215 152.685 83.7321C151.159 84.1074 150.145 85.5956 150.455 87.1409C150.75 88.6224 150.309 90.3352 147.748 91.6905C142.014 94.7257 136.286 84.4985 136.286 84.4985L135.111 66.6424L139.22 62.1269L139.22 62.1272H139.22Z" fill="#333333"/>
<path fill-rule="evenodd" clip-rule="evenodd" d="M106.507 53.5292C106.507 53.5292 117.959 71.697 131.577 75.206C131.577 75.206 128.924 82.7858 126.875 83.6534C126.875 83.6534 110.122 69.6331 105.816 56.1107L106.507 53.5292Z" fill="#FFB27D"/>
<path fill-rule="evenodd" clip-rule="evenodd" d="M161.293 169.729L161.664 172.79C161.734 173.37 162.19 173.829 162.769 173.896C163.748 174.008 165.316 174.122 166.853 173.959C167.527 173.888 167.965 173.203 167.759 172.556C167.386 171.374 166.701 169.601 165.713 168.557H162.328C161.702 168.557 161.216 169.106 161.293 169.729H161.293Z" fill="url(#paint0_linear_16_1796)"/>
<path fill-rule="evenodd" clip-rule="evenodd" d="M134.782 133.88L134.211 137.25C134.211 137.25 136.124 156.686 136.464 164.461C136.518 165.68 136.203 166.884 135.565 167.924L132.238 173.342L140.693 168.338L140.861 167.303L139.478 165.394L141.29 143.621C141.397 142.342 141.134 141.059 140.532 139.927L138.783 136.631L134.782 133.88L134.782 133.88V133.88Z" fill="#FFB27D"/>
<path fill-rule="evenodd" clip-rule="evenodd" d="M131.682 174.126H134.379C134.885 174.126 135.361 173.894 135.669 173.492C136.51 172.396 138.253 170.258 139.086 170.202C140.208 170.126 140.065 174.126 140.065 174.126H140.693L141.489 169.156C141.69 167.906 141.07 166.667 139.95 166.081C139.95 166.081 139.694 167.983 138.304 168.824C136.913 169.665 132.646 172.678 132.646 172.678C132.646 172.678 132.124 172.603 131.549 172.707C130.698 172.862 130.817 174.126 131.683 174.126H131.682H131.682Z" fill="#7B1EBD"/>
<path fill-rule="evenodd" clip-rule="evenodd" d="M146.363 135.481C146.363 135.481 157.57 156.804 159.353 161.673C161.134 166.541 161.757 170.602 161.782 170.987C161.818 171.588 162.564 172.164 164.618 172.164C165.678 172.164 166.197 171.738 166.452 171.326C166.67 170.973 166.68 170.533 166.498 170.162C165.85 168.846 163.792 164.64 163.03 162.733C162.121 160.456 160.163 150.135 159.089 146.547C158.017 142.959 156.804 139.066 152.13 135.481C152.13 135.481 148.921 132.329 146.363 135.481H146.363Z" fill="#FFB27D"/>
<path fill-rule="evenodd" clip-rule="evenodd" d="M139.282 100.542C136.39 88.2545 143.715 81.3051 143.715 81.3051C139.094 76.8557 130.673 74.8312 130.673 74.8312C130.673 74.8312 122.639 80.7226 123.592 85.3343C124.15 88.0373 129.239 101.523 129.239 101.523C129.239 101.523 133.944 103.757 139.282 100.542H139.282V100.542Z" fill="#60B682"/>
<path fill-rule="evenodd" clip-rule="evenodd" d="M145.692 106.625C144.516 103.07 139.282 100.542 139.282 100.542C133.945 103.757 129.24 101.523 129.24 101.523C129.24 101.523 128.184 105.568 128.914 109.328C129.641 113.089 134.211 137.251 134.211 137.251C141.412 138.714 152.485 135.779 152.485 135.779C147.9 127.611 146.869 110.18 145.692 106.625H145.692Z" fill="#333333"/>
<path fill-rule="evenodd" clip-rule="evenodd" d="M135.926 66.7121L138.276 77.3011C138.501 78.2342 137.654 78.0817 136.714 77.9036C135.173 77.6128 133.19 77.0124 132.526 75.8111C132.459 75.6891 132.425 75.5504 132.405 75.4121L131.396 68.0692C131.315 67.4867 131.629 66.9211 132.165 66.6831L134.115 65.8166C134.866 65.4831 135.734 65.9119 135.927 66.7123L135.926 66.712V66.7121Z" fill="#EA9963"/>
<path fill-rule="evenodd" clip-rule="evenodd" d="M143.715 81.3051C143.715 81.3051 166.403 103.831 133.499 94.8388C133.499 94.8388 133.125 91.992 133.614 92.0406C144.285 93.1085 148.746 95.5587 140.073 87.123C139.766 86.8248 139.861 85.6993 140.059 85.3189C140.659 84.1617 142.033 81.8639 143.715 81.3051Z" fill="#FFB27D"/>
<path fill-rule="evenodd" clip-rule="evenodd" d="M132.927 61.4233C132.927 61.4233 130.424 63.1223 129.349 67.4489C128.274 71.7756 130.022 73.3274 131.813 73.2321C133.604 73.1374 136.202 72.5817 138.452 69.4779C140.702 66.3741 136.206 59.3475 132.927 61.4233H132.927Z" fill="#FFB27D"/>
<path fill-rule="evenodd" clip-rule="evenodd" d="M136.182 67.7323C136.182 67.7323 137.099 61.5332 131.967 62.4813L130.93 63.5649C130.93 63.5649 128.418 60.7275 131.198 58.5828C133.978 56.4381 137.835 56.9871 139.97 60.8918C142.103 64.7961 142.878 67.5399 141.089 69.9666C139.3 72.3926 137.956 70.3115 137.956 70.3115C137.956 70.3115 138.775 68.2117 138.095 67.3109C137.414 66.4096 136.536 67.8348 136.536 67.8348L136.182 67.7328L136.182 67.7325L136.182 67.7323Z" fill="#333333"/>
<path fill-rule="evenodd" clip-rule="evenodd" d="M135.381 63.8984C135.381 63.8984 135.833 60.7087 137.456 61.6206C139.081 62.5324 136.871 64.6005 135.986 65.3038L135.381 63.8984Z" fill="#FFB27D"/>
<path fill-rule="evenodd" clip-rule="evenodd" d="M106.585 57.2693C106.551 57.644 107.94 57.9035 108.382 56.3059C108.261 55.6121 108.045 52.5743 107.515 52.1024C104.691 49.5891 99.6549 46.762 99.6549 46.762C99.0918 47.6252 99.8304 48.1926 99.8304 48.1926L102.344 49.8941C102.082 50.765 101.699 51.5353 101.656 52.5303C101.623 53.2834 101.9 54.0204 102.399 54.5917C102.899 55.1651 103.572 55.9056 104.18 56.4674C105.329 57.5308 106.586 57.2692 106.586 57.2692H106.585L106.585 57.2693Z" fill="#FFB27D"/>
<path fill-rule="evenodd" clip-rule="evenodd" d="M134.615 98.7478L129.442 80.6279C129.314 80.1822 128.933 79.8576 128.474 79.805C127.236 79.6636 124.623 79.3762 121.657 79.1247C118.054 78.8192 113.928 78.5652 111.11 78.6873C110.286 78.723 109.775 79.6021 110.142 80.3431C112.167 84.4229 117.832 95.6528 120.915 99.8514C121.134 100.149 121.479 100.323 121.847 100.319L133.527 100.211C134.284 100.203 134.824 99.4761 134.616 98.7479H134.615V98.7478Z" fill="url(#paint1_linear_16_1796)"/>
<path fill-rule="evenodd" clip-rule="evenodd" d="M133.499 94.8388C133.499 94.8388 134.265 91.6846 133.957 90.5657C133.648 89.4463 133.05 88.0071 131.057 88.3274C129.065 88.6468 126.714 89.4889 126.714 89.4889C126.714 89.4889 126.833 90.9466 128.348 90.4766L127.407 91.2048C127.407 91.2048 127.542 92.3723 128.821 91.7486L127.948 92.7157C127.948 92.7157 128.498 93.6743 129.438 93.0597C130.379 92.4443 130.83 95.2196 133.498 94.8396L133.499 94.839L133.499 94.8388Z" fill="url(#paint2_linear_16_1796)"/>
</g>
<defs>
<linearGradient id="paint0_linear_16_1796" x1="173.764" y1="43.639" x2="167.027" y2="135.531" gradientUnits="userSpaceOnUse">
<stop stop-color="#CE1567"/>
<stop offset="1" stop-color="#7A1DBC"/>
</linearGradient>
<linearGradient id="paint1_linear_16_1796" x1="125.199" y1="77.5303" x2="112.708" y2="130.771" gradientUnits="userSpaceOnUse">
<stop stop-color="#2B3582"/>
<stop offset="1" stop-color="#150E42"/>
</linearGradient>
<linearGradient id="paint2_linear_16_1796" x1="133.567" y1="91.5158" x2="126.707" y2="91.5158" gradientUnits="userSpaceOnUse">
<stop stop-color="#F9B776"/>
<stop offset="1" stop-color="#F47960"/>
</linearGradient>
<clipPath id="clip0_16_1796">
<rect width="184" height="175" fill="white"/>
</clipPath>
</defs>
</svg>
