<svg width="184" height="149" viewBox="0 0 184 149" fill="none" xmlns="http://www.w3.org/2000/svg">
<path fill-rule="evenodd" clip-rule="evenodd" d="M87.2161 15.1278C57.6429 16.472 24.69 25.2701 9.99961 44.254C-4.69129 63.238 -1.12009 92.4077 7.47032 110.859C16.0604 129.31 29.6694 137.043 48.8786 142.197C68.0877 147.35 92.8969 149.924 116.014 148.698C139.13 147.472 160.554 142.447 172.106 131.21C183.658 119.973 185.34 102.526 183.206 83.9562C181.072 65.3865 175.124 45.695 159.053 32.7941C142.982 19.8936 116.789 13.7839 87.2158 15.1278H87.216H87.2161Z" fill="#EAF4FB"/>
<path fill-rule="evenodd" clip-rule="evenodd" d="M117.861 140.877C117.847 140.877 117.832 140.877 117.818 140.876L112.664 140.839L82.2136 140.616L75.666 140.568L53.6751 140.408L31.0289 140.242C27.9576 140.22 25.5022 137.685 25.5804 134.618L26.1655 111.695L27.2807 67.9949L28.3958 24.3043C28.5009 20.1916 31.3856 16.8022 35.2084 15.8845C34.9476 16.2773 34.7906 16.7475 34.7806 17.259L32.5101 132.917C32.4884 134.027 33.3034 134.978 34.4054 135.121C41.8938 136.098 54.999 136.409 68.6752 136.409C88.0673 136.409 108.602 135.783 115.861 135.539C117.375 135.488 118.562 134.227 118.52 132.715L117.308 88.8763C117.487 88.8754 117.67 88.8723 117.85 88.8663C119.434 88.8178 120.974 88.6052 122.456 88.2464L122.738 99.3428L122.852 103.868L123.497 129.217L123.642 134.952C123.656 135.488 123.596 136.008 123.472 136.504C122.845 139.011 120.573 140.876 117.861 140.876H117.861L117.861 140.877ZM121.348 44.6631C119.995 44.4067 118.601 44.2729 117.177 44.2729C116.946 44.2729 116.711 44.2761 116.478 44.2834C116.343 44.2876 116.209 44.2929 116.075 44.2992L115.471 22.4693C115.435 21.1694 114.367 20.1494 113.08 20.1494C113.038 20.1494 112.997 20.1509 112.954 20.152C109.324 20.3386 105.605 20.4211 101.851 20.4211C80.1756 20.4211 57.4087 17.6496 44.7803 15.8262L54.2125 16.066L59.3136 16.1966L91.6355 17.0197L98.8579 17.2035L101.554 17.2727L110.245 17.4938L113.211 17.5683C113.324 17.5724 113.437 17.5776 113.549 17.5844C115.6 17.7243 117.434 18.6498 118.751 20.0615C119.514 20.8793 120.104 21.8609 120.462 22.9463C120.697 23.6587 120.833 24.4166 120.852 25.2025L120.942 28.7398L121.039 32.5474L121.347 44.6634L121.348 44.6633L121.348 44.6631Z" fill="#3389C7"/>
<path d="M43.7546 138.716H43.7517L34.0484 138.344C30.7962 138.218 28.2176 135.473 28.3004 132.223L28.6741 117.584C28.6772 117.462 28.7789 117.366 28.9012 117.369H28.9014C29.0237 117.372 29.1204 117.474 29.1171 117.595L28.7436 132.234C28.6668 135.243 31.0544 137.785 34.0656 137.901L43.769 138.273C43.8911 138.278 43.9864 138.38 43.9819 138.503C43.9772 138.624 43.8758 138.718 43.7547 138.715L43.7549 138.716L43.7546 138.716Z" fill="#BDD0FB"/>
<path d="M29.0052 113.277C28.8831 113.274 28.7864 113.172 28.7896 113.05L28.8502 110.68C28.8535 110.558 28.955 110.461 29.0775 110.464C29.1999 110.467 29.2965 110.569 29.2934 110.691L29.2327 113.061C29.2296 113.184 29.128 113.28 29.0056 113.277H29.0054L29.0052 113.277Z" fill="#BDD0FB"/>
<path fill-rule="evenodd" clip-rule="evenodd" d="M68.6754 136.41C54.999 136.41 41.894 136.099 34.4056 135.122C33.3036 134.978 32.4884 134.027 32.5103 132.918L34.7808 17.2593C34.7908 16.7479 34.9478 16.2777 35.2086 15.8848C35.6754 15.1802 36.4755 14.7249 37.3612 14.7249C37.4988 14.7249 37.6381 14.7368 37.7788 14.7595C38.7477 14.9153 39.9375 15.1031 41.3252 15.3148C42.3688 15.4733 43.5262 15.645 44.7811 15.8262C57.4096 17.6494 80.1766 20.4211 101.852 20.4211C105.606 20.4211 109.325 20.3384 112.955 20.152C112.997 20.1507 113.039 20.1494 113.08 20.1494C114.368 20.1494 115.436 21.1696 115.472 22.4693L116.076 44.2992C115.415 44.3313 114.762 44.3919 114.118 44.4798L113.581 25.0636C113.546 23.8116 112.518 22.8303 111.279 22.8303C111.239 22.8303 111.199 22.8316 111.159 22.8329C107.666 23.0113 104.087 23.0913 100.474 23.0913C74.7858 23.0913 47.5036 19.0466 38.8135 17.6428C38.6779 17.6214 38.5437 17.6109 38.4116 17.6109C37.0833 17.6109 35.9553 18.6749 35.9283 20.0494L33.7435 131.352C33.7225 132.42 34.5068 133.335 35.5674 133.473C42.7739 134.413 55.3858 134.713 68.5466 134.713C87.2085 134.713 106.971 134.11 113.957 133.876C115.413 133.827 116.555 132.612 116.515 131.158L115.344 88.8051C115.941 88.853 116.544 88.8773 117.153 88.8773C117.205 88.8773 117.257 88.8773 117.309 88.8766L118.521 132.715C118.563 134.227 117.376 135.489 115.863 135.539C108.604 135.783 88.0686 136.41 68.6765 136.41L68.676 136.41L68.6754 136.41Z" fill="#98BBE1"/>
<path fill-rule="evenodd" clip-rule="evenodd" d="M35.9275 20.0494C35.9573 18.5379 37.318 17.4019 38.8126 17.6428C48.7249 19.2437 82.8231 24.282 111.158 22.8327C112.45 22.7675 113.544 23.7717 113.58 25.0635L116.514 131.158C116.554 132.612 115.411 133.826 113.955 133.875C102.043 134.276 52.9908 135.746 35.5661 133.473C34.5055 133.335 33.7212 132.42 33.7422 131.352L35.927 20.0491L35.9271 20.0493L35.9275 20.0494Z" fill="white"/>
<path d="M68.4123 53.3272C60.8796 53.3272 50.4405 52.8049 46.7714 52.6078C46.0151 52.5672 45.4195 51.951 45.4036 51.1943L44.9269 28.4531C44.9087 27.5875 45.608 26.8843 46.4625 26.8843C46.4936 26.8843 46.5254 26.8856 46.557 26.8869L71.4283 28.3905C72.2798 28.4424 72.9847 29.0751 73.1203 29.9155C73.9602 35.1229 73.3345 47.5141 73.0843 51.7705C73.0354 52.6078 72.3547 53.2681 71.5155 53.2904C70.5638 53.3158 69.5203 53.3272 68.4121 53.3272H68.4123Z" fill="#98BBE1"/>
<path d="M63.9329 37.0633C63.864 39.7598 61.6195 41.8904 58.9195 41.8214C56.2196 41.753 54.0869 39.5111 54.1554 36.8142C54.2244 34.1173 56.4689 31.9863 59.169 32.0556C61.8688 32.1236 64.0016 34.3663 63.9329 37.0633Z" fill="white"/>
<path d="M51.2526 51.0857L66.8274 51.4823C67.7822 51.5065 68.3812 50.4679 67.8872 49.6512C66.617 47.55 63.927 44.4418 59.1297 44.457C54.5064 44.4712 51.6979 47.1455 50.2713 49.0782C49.6654 49.8986 50.2322 51.06 51.2524 51.0857H51.2526Z" fill="white"/>
<path d="M107.355 32.0211C107.349 32.0211 107.343 32.0211 107.337 32.0211L80.3545 31.3339C79.9654 31.3233 79.5495 31.0129 79.4298 30.644L79.1979 29.9276C79.0814 29.568 79.2858 29.2855 79.6544 29.2855C79.665 29.2855 79.6754 29.2855 79.6861 29.2868L107.332 30.4827C107.72 30.5 108.04 30.8317 108.041 31.2192L108.041 31.3325C108.043 31.7147 107.736 32.0209 107.355 32.0209L107.355 32.0211H107.355Z" fill="#98BBE1"/>
<path d="M107.247 36.255C107.241 36.255 107.235 36.255 107.229 36.255L80.2467 35.5678C79.8583 35.5586 79.4421 35.2481 79.3219 34.8779L79.0899 34.1627C78.9735 33.8032 79.1781 33.5207 79.5466 33.5207C79.5571 33.5207 79.5677 33.5207 79.5782 33.5207L107.224 34.7166C107.613 34.7339 107.932 35.0656 107.933 35.4544L107.933 35.5675C107.935 35.9497 107.628 36.2547 107.247 36.2547L107.247 36.2548L107.247 36.255Z" fill="#98BBE1"/>
<path d="M107.138 40.5518C107.132 40.5518 107.126 40.5513 107.12 40.5513L80.1369 39.8641C79.7478 39.8546 79.3323 39.5439 79.2123 39.1748L78.9803 38.4581C78.8639 38.0989 79.0683 37.8167 79.4368 37.8167C79.4474 37.8167 79.4579 37.8167 79.4686 37.8172L107.115 39.0137C107.503 39.0305 107.822 39.3622 107.824 39.7504V39.8636C107.825 40.2458 107.518 40.5519 107.138 40.5519V40.5518Z" fill="#98BBE1"/>
<path d="M95.5428 60.9879L46.4568 59.7383C46.0681 59.7283 45.5585 59.4665 45.3242 59.1568L44.601 58.2004C44.3725 57.8987 44.4864 57.6602 44.852 57.6602C44.8616 57.6602 44.8713 57.6608 44.8813 57.6608L96.0289 59.3665C95.847 59.8984 95.6847 60.4391 95.5429 60.9879H95.5428Z" fill="#98BBE1"/>
<path d="M94.8769 65.2082L46.3489 63.9728C45.9603 63.9628 45.4506 63.7012 45.2162 63.3915L44.493 62.4351C44.2647 62.1333 44.3784 61.8948 44.7442 61.8948C44.7538 61.8948 44.7635 61.8955 44.7734 61.8955L95.0368 63.5717C94.9639 64.1115 94.9101 64.6573 94.8769 65.2084V65.2082Z" fill="#98BBE1"/>
<path d="M46.7813 71.7825C46.5706 71.7916 46.376 71.8795 46.2477 72.0243C46.1424 72.1429 46.0911 72.2908 46.1029 72.4398L46.462 76.9757C46.4999 77.4554 46.9456 77.832 47.4988 77.8514L52.8949 78.0405L52.9045 78.0412C53.4201 78.0549 53.8566 77.703 53.88 77.2543C53.9849 75.1948 54.0598 73.2641 53.8184 72.2742C53.713 71.8414 53.2699 71.5206 52.7618 71.5075C52.7564 71.507 52.7511 71.507 52.7452 71.507C51.761 71.4944 49.9888 71.5995 48.5655 71.6843C47.884 71.7249 47.2404 71.7628 46.7813 71.7829H46.7815V71.7825H46.7813ZM52.8928 78.4834L52.879 78.4829L47.483 78.2939C46.7049 78.2664 46.0759 77.7151 46.0203 77.0107L45.6612 72.4747C45.6398 72.2052 45.7302 71.9408 45.916 71.7312C46.1235 71.4968 46.4321 71.3547 46.7624 71.3403H46.7625C47.2179 71.3209 47.8597 71.2824 48.539 71.2423C50.0442 71.1528 51.7503 71.0512 52.7509 71.0638C53.476 71.0743 54.0928 71.5283 54.2488 72.1697C54.5046 73.2176 54.4293 75.1834 54.3222 77.2768C54.2869 77.9641 53.6473 78.5034 52.8928 78.4834V78.4832V78.4834Z" fill="white"/>
<path d="M97.5235 77.1932L58.6587 76.6097C58.2703 76.6039 57.8784 76.29 57.7893 75.9119L57.4718 74.5738C57.3843 74.2029 57.6184 73.9065 57.9949 73.9065C58.0017 73.9065 58.0086 73.907 58.0159 73.907L96.4843 75.0008C96.7916 75.7527 97.1391 76.4853 97.5235 77.1932H97.5233H97.5235Z" fill="#98BBE1"/>
<path fill-rule="evenodd" clip-rule="evenodd" d="M47.561 72.965C47.9678 72.7405 48.4798 72.8938 48.6961 73.3046L49.7122 75.2379C49.8135 75.4318 50.0929 75.4264 50.1872 75.2295L52.9778 69.4251C53.1169 69.1353 53.5507 69.2455 53.5381 69.5665C53.4652 71.3617 52.9012 74.7639 49.9551 77.548C49.9551 77.548 48.3873 76.8929 47.1836 74.0638C47.0098 73.655 47.1719 73.1797 47.5609 72.9648V72.965H47.561Z" fill="#60B682"/>
<path d="M46.4863 83.3372C46.2755 83.3461 46.0811 83.4342 45.9528 83.579C45.8477 83.6981 45.7962 83.8455 45.808 83.9945L46.1672 88.5303C46.2052 89.0102 46.6508 89.3867 47.2039 89.4061L52.5999 89.5952L52.6099 89.5956C53.1255 89.6093 53.5621 89.258 53.5848 88.8089C53.6902 86.7493 53.765 84.8192 53.5237 83.8288C53.4182 83.3958 52.9754 83.0751 52.467 83.062C52.4619 83.062 52.4559 83.0614 52.4508 83.0614C51.4664 83.0487 49.6943 83.1541 48.2709 83.2389C47.5894 83.2793 46.9458 83.3178 46.4866 83.3372V83.3374L46.4863 83.3372ZM52.5976 90.0381L52.5843 90.0376L47.1882 89.8486C46.41 89.8216 45.781 89.2698 45.7251 88.565L45.3661 84.0299C45.3447 83.7597 45.4351 83.4953 45.6211 83.2858C45.8284 83.0513 46.1372 82.9091 46.4672 82.895H46.4673C46.9228 82.8753 47.5646 82.8376 48.2443 82.797C49.7494 82.7075 51.4556 82.6059 52.4562 82.619C53.1801 82.6307 53.7981 83.0829 53.9541 83.7243C54.2092 84.7723 54.1344 86.7381 54.0273 88.8315C53.9922 89.5192 53.352 90.058 52.5974 90.0381V90.0382L52.5976 90.0381Z" fill="white"/>
<path d="M51.9784 89.1597C51.9664 89.1597 51.9538 89.1597 51.9411 89.159L47.6292 89.0081C47.0988 88.9896 46.6678 88.6168 46.6303 88.1455L46.3435 84.5207C46.3138 84.1458 46.6336 83.8225 47.0546 83.8044C48.1462 83.7579 50.4714 83.5833 51.6883 83.5833C51.7377 83.5833 51.7847 83.5838 51.8307 83.5843C52.3255 83.5906 52.7527 83.9002 52.8577 84.3326C53.0624 85.1714 52.99 86.8309 52.9114 88.3628C52.8888 88.8105 52.4775 89.1597 51.9787 89.1597L51.9786 89.1598L51.9784 89.1597Z" fill="#98BBE1"/>
<path d="M107.699 88.9049C107.695 88.9049 107.692 88.9049 107.688 88.9049L58.3638 88.1645C57.9747 88.1586 57.5835 87.8447 57.4938 87.4666L57.1769 86.1288C57.089 85.7576 57.3234 85.4615 57.6998 85.4615C57.7068 85.4615 57.7136 85.4615 57.7204 85.4615L107.695 86.883C108.084 86.8941 108.401 87.2205 108.399 87.6091L108.397 88.2091C108.396 88.5942 108.082 88.9049 107.699 88.9049V88.9047L107.699 88.9049Z" fill="#98BBE1"/>
<path d="M52.172 94.6164C52.1662 94.6164 52.1608 94.6164 52.1552 94.6159C51.1704 94.6031 49.3973 94.7085 47.9725 94.7933C47.2923 94.8339 46.6498 94.8724 46.1915 94.8918H46.1914C45.9806 94.9007 45.7863 94.9887 45.658 95.1335C45.5527 95.2525 45.5013 95.4 45.5131 95.5495L45.8721 100.085C45.9102 100.565 46.3558 100.942 46.9088 100.961L52.3048 101.15H52.3144C52.8305 101.164 53.267 100.813 53.2899 100.364C53.3952 98.304 53.4697 96.3734 53.2288 95.3832C53.1234 94.9504 52.6805 94.63 52.1722 94.6164H52.172ZM52.3026 101.592H52.2894L46.893 101.403C46.1148 101.376 45.4858 100.824 45.43 100.12L45.0711 95.5841C45.0497 95.3141 45.1401 95.0497 45.326 94.8402C45.5336 94.6057 45.842 94.4637 46.1721 94.4493C46.627 94.4299 47.2676 94.3918 47.9457 94.3514C49.3775 94.2666 51.1596 94.1601 52.1607 94.1734C52.8851 94.1792 53.5024 94.6374 53.6591 95.2788C53.9142 96.3262 53.8394 98.2921 53.7316 100.386C53.6968 101.074 53.0568 101.612 52.3022 101.592H52.3024H52.3026Z" fill="white"/>
<path d="M51.6838 100.715C51.6711 100.715 51.659 100.714 51.6462 100.714L47.3339 100.563C46.8035 100.544 46.3723 100.172 46.3351 99.7L46.0482 96.0754C46.0185 95.7008 46.3383 95.3775 46.7593 95.3597C47.8511 95.3128 50.1756 95.1381 51.3931 95.1381C51.4422 95.1381 51.4897 95.1385 51.535 95.139C52.0307 95.1453 52.4573 95.4555 52.5627 95.8874C52.7673 96.7263 52.6944 98.3861 52.6165 99.9175C52.5938 100.365 52.1825 100.715 51.6838 100.715V100.715Z" fill="#98BBE1"/>
<path d="M107.404 100.459C107.401 100.459 107.397 100.459 107.393 100.459L58.0686 99.7188C57.68 99.713 57.2888 99.3991 57.1992 99.0215L56.8823 97.6834C56.7942 97.312 57.0284 97.0161 57.4052 97.0161C57.412 97.0161 57.419 97.0161 57.4258 97.0161L107.401 98.4374C107.789 98.4485 108.106 98.7755 108.105 99.1635L108.103 99.7638C108.101 100.148 107.788 100.459 107.404 100.459V100.459L107.404 100.459Z" fill="#98BBE1"/>
<path d="M51.8772 106.171C51.8715 106.171 51.866 106.171 51.8603 106.171C50.8749 106.158 49.1018 106.264 47.6771 106.349C46.9969 106.389 46.3546 106.427 45.8964 106.447C45.6856 106.456 45.4912 106.544 45.3629 106.688C45.2575 106.807 45.2061 106.955 45.2181 107.104L45.5773 111.64C45.6153 112.12 46.061 112.496 46.614 112.516L52.0103 112.705H52.0199C52.5355 112.719 52.972 112.367 52.9954 111.918C53.1003 109.859 53.1752 107.928 52.9338 106.938C52.8283 106.505 52.386 106.185 51.8776 106.171H51.8775H51.8772ZM52.0079 113.148L51.9941 113.147L46.5981 112.958C45.8199 112.931 45.1909 112.379 45.135 111.675L44.7759 107.139C44.7545 106.869 44.8452 106.604 45.031 106.395C45.2385 106.16 45.5471 106.018 45.8773 106.005C46.3318 105.985 46.9725 105.947 47.6506 105.907C49.0827 105.821 50.8647 105.715 51.866 105.728C52.5857 105.738 53.2079 106.192 53.3639 106.834C53.619 107.881 53.5443 109.847 53.4373 111.941C53.4019 112.628 52.7624 113.167 52.0079 113.148Z" fill="white"/>
<path d="M51.3891 112.269C51.3765 112.269 51.3643 112.269 51.3515 112.268L47.0392 112.117C46.5089 112.099 46.0777 111.726 46.0404 111.255L45.7535 107.63C45.7237 107.255 46.0436 106.932 46.4646 106.914C47.5561 106.867 49.8807 106.693 51.098 106.693C51.1476 106.693 51.195 106.693 51.2405 106.694C51.7362 106.7 52.1626 107.01 52.2682 107.442C52.4721 108.281 52.3999 109.941 52.322 111.472C52.2988 111.92 51.8875 112.269 51.3893 112.269L51.3891 112.269Z" fill="#98BBE1"/>
<path d="M107.109 112.014C107.105 112.014 107.102 112.014 107.098 112.014L57.7737 111.274C57.3853 111.268 56.9934 110.954 56.9043 110.576L56.5868 109.238C56.4989 108.867 56.7333 108.571 57.1106 108.571C57.1174 108.571 57.1242 108.571 57.1311 108.571L107.106 109.992C107.494 110.003 107.811 110.33 107.81 110.718L107.808 111.319C107.807 111.703 107.493 112.014 107.109 112.014H107.109V112.014Z" fill="#98BBE1"/>
<path fill-rule="evenodd" clip-rule="evenodd" d="M76.5043 8.03116C75.3218 8.00172 74.3876 7.01893 74.4176 5.83892C74.4484 4.6576 75.431 3.72401 76.6135 3.7533C77.7967 3.78404 78.731 4.76553 78.7002 5.94684C78.6703 7.12815 77.6868 8.06174 76.5043 8.03116V8.03133V8.03116ZM80.4434 1.78094C77.7576 -0.188833 75.3793 -0.211485 73.6932 0.238646C72.1553 0.650269 71.1281 2.09645 71.2332 3.68275L71.7542 11.5698L80.3227 12.55C80.3227 12.55 85.71 5.64184 80.4436 1.78094H80.4434Z" fill="#3389C7"/>
<path d="M72.5331 5.83499C72.4197 5.8324 72.3253 5.74309 72.318 5.62853L72.2553 4.67487C72.1547 3.15653 73.1453 1.77022 74.61 1.37866C75.6449 1.10165 76.7042 1.08563 77.7586 1.32931C77.8783 1.3573 77.952 1.47574 77.9246 1.59434C77.8971 1.71423 77.7769 1.78737 77.6589 1.76083C76.675 1.53318 75.688 1.54774 74.7243 1.80614C73.4633 2.14317 72.6109 3.33645 72.6971 4.64559L72.7604 5.59925C72.7683 5.72173 72.676 5.8269 72.5537 5.83499C72.5467 5.83499 72.5398 5.83499 72.5331 5.83499H72.533H72.5331ZM72.6956 8.29615C72.5827 8.29356 72.4884 8.20425 72.4811 8.08969L72.3977 6.83379C72.3898 6.71131 72.4821 6.60614 72.6044 6.59805C72.7262 6.59012 72.8321 6.68186 72.8399 6.8045L72.9229 8.06041C72.9308 8.18289 72.8385 8.28806 72.7165 8.29615C72.7092 8.29615 72.7022 8.29615 72.6954 8.29615L72.6956 8.29631V8.29615Z" fill="#F1F5FE"/>
<path fill-rule="evenodd" clip-rule="evenodd" d="M59.9034 16.3563L60.0046 12.4008C60.0394 11.0344 61.2004 9.97019 62.5653 10.0514L89.847 11.6816C91.0575 11.7536 92.0145 12.7338 92.0566 13.9444L92.1874 17.752L59.9034 16.3563H59.9032H59.9034Z" fill="#3389C7"/>
<path fill-rule="evenodd" clip-rule="evenodd" d="M69.0345 11.7215C68.9124 11.7189 68.8157 11.6176 68.8189 11.4951C68.8222 11.3726 68.9239 11.2767 69.0462 11.2793L70.2203 11.31C70.3428 11.3126 70.4396 11.4139 70.4364 11.5364C70.4333 11.6589 70.3314 11.7548 70.2091 11.7522L69.0345 11.7215H69.0344H69.0345Z" fill="#F1F5FE"/>
<path fill-rule="evenodd" clip-rule="evenodd" d="M61.4124 15.1656C61.2907 15.1631 61.1935 15.0618 61.1966 14.9393L61.2378 13.3384C61.2693 12.0945 62.3087 11.1077 63.5542 11.1395L67.8718 11.2501C67.9943 11.2526 68.0907 11.3539 68.0874 11.4764C68.0844 11.5989 67.9826 11.6948 67.8603 11.6923L63.5435 11.5817C62.5418 11.5563 61.7065 12.3501 61.6806 13.3504L61.6401 14.95C61.6369 15.0724 61.5352 15.1697 61.4129 15.1658H61.4124H61.4125L61.4124 15.1656Z" fill="#F1F5FE"/>
<path fill-rule="evenodd" clip-rule="evenodd" d="M51.3842 14.6901L99.1329 15.9047C100.85 15.9488 102.286 17.2205 102.536 18.9173L102.571 19.1518C102.844 21.011 101.374 22.6677 99.4937 22.6198L50.5066 21.3719C49.3807 21.3439 48.5081 20.381 48.5909 19.2595L48.7522 17.0713C48.853 15.7036 50.0117 14.6555 51.3845 14.6901H51.3844H51.3842Z" fill="#3389C7"/>
<path fill-rule="evenodd" clip-rule="evenodd" d="M135.195 88.012C134.872 88.012 134.532 87.9878 134.179 87.9326C133.379 87.8077 132.506 87.5223 131.588 86.992C131.038 86.673 130.47 86.2659 129.892 85.7513C129.708 85.5871 129.536 85.4201 129.375 85.2506C130.355 84.61 131.281 83.895 132.145 83.1135C132.182 83.1382 132.219 83.1624 132.257 83.1866C132.746 83.5005 133.259 83.657 133.783 83.6916C133.859 83.6963 133.937 83.6989 134.012 83.6989C135.229 83.6989 136.491 83.0792 137.619 82.2713C139.73 80.7614 141.374 78.595 141.374 78.595L138.728 86.9741C138.728 86.9741 137.32 88.012 135.195 88.012H135.195H135.195Z" fill="#FFB27D"/>
<path fill-rule="evenodd" clip-rule="evenodd" d="M63.1738 140.749C63.1738 140.749 62.5441 141.74 62.386 144.513C62.3711 144.772 62.5765 144.992 62.8352 144.992H67.7564C67.9542 144.992 68.0955 144.798 68.0321 144.611C67.7436 143.758 66.8718 141.68 64.9267 140.492L63.1736 140.749L63.1738 140.749Z" fill="#2E3552"/>
<path fill-rule="evenodd" clip-rule="evenodd" d="M62.9596 138.87L63.2381 141.201C63.2624 141.402 63.42 141.563 63.6213 141.587C63.8902 141.618 64.2814 141.639 64.6619 141.577C65.0073 141.52 65.2561 141.212 65.2561 140.863V138.612L62.9596 138.87V138.87V138.87Z" fill="url(#paint0_linear_16_1850)"/>
<path fill-rule="evenodd" clip-rule="evenodd" d="M75.3487 140.492C75.3487 140.492 74.407 141.955 74.4269 143.962C74.4316 144.434 74.8282 144.811 75.3012 144.811H82.944C83.3018 144.811 83.4474 144.352 83.1542 144.146C81.7082 143.132 78.8658 141.237 76.8096 140.492H75.3487Z" fill="#2E3552"/>
<path fill-rule="evenodd" clip-rule="evenodd" d="M64.0501 97.9479C64.0501 97.9479 61.9859 99.7651 61.5979 101.952C61.2093 104.139 62.6981 139.684 62.6981 139.684C62.6981 139.684 64.7622 140.027 65.8263 139.383C65.8263 139.383 67.0887 116.315 68.0475 110.984C68.0475 110.984 73.0784 134.88 74.4724 139.198C74.4724 139.198 76.4607 139.439 77.1021 139.062C77.1021 139.062 75.784 108.086 74.1287 102.579L64.0502 97.9476L64.0501 97.9478V97.9479Z" fill="#3389C7"/>
<path fill-rule="evenodd" clip-rule="evenodd" d="M67.988 110.218C68.0055 110.218 68.0223 110.216 68.0401 110.211C68.1508 110.182 68.2173 110.069 68.1882 109.958L67.3113 106.599C67.2981 106.549 67.2665 106.506 67.2229 106.477L65.3284 105.263C65.233 105.202 65.1051 105.229 65.0422 105.326C64.9807 105.422 65.0085 105.55 65.1049 105.611L66.9307 106.782L67.7874 110.063C67.8112 110.155 67.8956 110.218 67.9878 110.218L67.988 110.218Z" fill="#2678BA"/>
<path fill-rule="evenodd" clip-rule="evenodd" d="M84.4202 77.409C75.7304 76.6885 73.4596 78.4848 73.4596 78.4848L77.6353 85.0693C77.6353 85.0693 86.1739 84.9012 92.2917 80.191C91.1466 78.9592 90.3514 77.5978 89.8412 76.5384C88.2637 77.193 86.4469 77.5768 84.4201 77.4088L84.4202 77.409Z" fill="#24AC6D"/>
<path fill-rule="evenodd" clip-rule="evenodd" d="M98.0275 64.6691C98.0158 64.391 97.6383 64.3151 97.5203 64.5673L96.4115 66.9303C96.1974 67.3869 96.1284 67.8982 96.2149 68.3954L96.6035 69.7709C96.7199 70.4419 96.5445 71.129 96.1191 71.6604C95.1004 72.9326 92.9304 75.2563 89.8414 76.5387C90.3517 77.5982 91.1469 78.9596 92.292 80.1914C94.5365 78.463 96.4561 76.1243 97.5079 72.9571C98.0113 72.8022 98.3481 72.3283 98.3282 71.8021L98.0278 64.6691L98.0277 64.6689L98.0275 64.6691Z" fill="#FFB27D"/>
<path fill-rule="evenodd" clip-rule="evenodd" d="M87.2806 81.2266C84.2214 77.9341 78.3945 76.4469 75.0213 75.836C73.5435 75.5679 72.0862 76.3893 71.5627 77.7954C70.0448 81.8722 65.9154 92.4768 65.1151 94.2998C64.4587 95.7948 63.7731 97.2553 63.3377 98.1685C63.0774 98.7141 63.3045 99.3664 63.8498 99.6287C66.6878 100.995 71.7951 102.541 73.8655 103.145C74.321 103.277 74.7744 102.936 74.7744 102.462C74.7744 102.06 74.8836 101.666 75.0908 101.321L82.9323 88.2691C87.8198 93.6822 92.1002 94.1773 95.3883 92.9924C94.8352 91.2858 94.4734 89.5757 94.2999 87.8625C89.4426 87.0317 87.2804 81.2266 87.2804 81.2266V81.2262L87.2806 81.2266Z" fill="#60B682"/>
<path fill-rule="evenodd" clip-rule="evenodd" d="M103.696 85.9968L102.108 85.0695C99.2702 87.0163 96.242 88.195 94.3 87.8625C94.4735 89.5757 94.8353 91.2856 95.3884 92.9924C99.7202 91.4315 103.697 85.9968 103.697 85.9968L103.696 85.9969V85.9968Z" fill="#FFB27D"/>
<path fill-rule="evenodd" clip-rule="evenodd" d="M111.238 86.3306C110.25 85.7932 107.32 85.3321 107.32 85.3321C107.32 85.3321 103.952 83.3635 102.982 82.9759C102.177 82.6541 101.83 83.8574 101.736 84.2744C101.716 84.3592 101.708 84.4113 101.708 84.4113L101.832 85.2117L105.235 86.7221C105.963 87.0454 106.767 87.1617 107.557 87.0585L111.191 86.5836C111.249 86.5762 111.296 86.5319 111.307 86.4741C111.317 86.4162 111.289 86.3581 111.238 86.3304V86.3306Z" fill="#FFB27D"/>
<path fill-rule="evenodd" clip-rule="evenodd" d="M79.6614 69.7895L77.0552 76.1405C77.0552 76.1405 80.0494 78.2106 82.4583 78.0132L83.7584 72.3024L79.6612 69.7893L79.6614 69.7895Z" fill="#FFB27D"/>
<path fill-rule="evenodd" clip-rule="evenodd" d="M84.0626 65.4595C84.1227 65.5436 85.948 72.1307 85.948 72.1307L82.1604 73.092L79.5017 67.1057C79.5017 67.1057 83.0637 64.0457 84.0626 65.4595Z" fill="#FFB27D"/>
<path fill-rule="evenodd" clip-rule="evenodd" d="M80.9277 68.0151L82.0804 71.2761C82.0956 71.3177 82.1152 71.3562 82.1403 71.3924C82.297 71.6147 82.8912 72.3388 83.5961 71.6862C84.2357 71.0944 84.8277 70.5638 85.3749 70.4671C85.6207 70.4239 85.8589 70.5739 85.9254 70.8141C86.0909 71.4125 86.4395 72.7679 86.5623 73.9918C86.5871 74.2404 86.4152 74.4647 86.1701 74.5116C85.4303 74.6517 83.862 74.904 82.5521 74.8119C82.3751 74.7993 82.2186 74.6935 82.1445 74.5317C81.7838 73.7439 80.6782 71.3541 80.2671 70.736C79.8812 70.1554 78.9349 70.1719 78.5377 70.2072C78.4081 70.2189 78.28 70.1765 78.1818 70.0909C77.8345 69.7869 77.1738 69.0107 78.1033 68.0818C78.2978 67.8873 78.2926 67.5741 78.0922 67.3856C77.6933 67.0107 77.2661 66.346 77.9309 65.5213C78.6067 64.6835 79.499 64.8168 80.0457 65.0157C80.2666 65.0962 80.5081 65.0032 80.6285 64.8014C80.6965 64.6861 80.8161 64.599 81.0229 64.6171C81.3017 64.6409 81.5358 64.4086 81.5311 64.129C81.5215 63.5923 81.714 62.914 82.6462 62.6237C84.3006 62.1092 85.3325 63.706 85.4349 64.8979C85.5371 66.0889 83.7115 66.5445 82.638 66.4646C81.8219 66.4036 81.2159 67.2113 80.9724 67.6021C80.8955 67.726 80.8796 67.8779 80.928 68.0155L80.9277 68.0153V68.0151Z" fill="#333333"/>
<path fill-rule="evenodd" clip-rule="evenodd" d="M80.6985 71.9189C80.6985 71.9189 80.4313 69.8504 79.5698 69.7491C78.7088 69.648 77.8699 70.3548 78.7267 71.516C79.7916 72.9601 80.6985 71.9189 80.6985 71.9189Z" fill="#FFB27D"/>
<path fill-rule="evenodd" clip-rule="evenodd" d="M117.152 88.8773C116.543 88.8773 115.94 88.853 115.343 88.8051C107.666 88.188 101.041 83.6717 97.5236 77.1931C97.1394 76.4853 96.7919 75.7528 96.4844 75.0007C95.5059 72.6051 94.9311 69.9983 94.8469 67.2605C94.8258 66.5696 94.8364 65.885 94.8769 65.2082C94.9101 64.6569 94.964 64.1113 95.0367 63.5716C95.1548 62.6936 95.3246 61.8316 95.543 60.9879C95.6845 60.4391 95.8472 59.8984 96.0289 59.3665C98.7042 51.5442 105.622 45.6378 114.117 44.48C114.761 44.3921 115.414 44.3314 116.075 44.2994C116.209 44.2931 116.344 44.2878 116.479 44.2836C116.712 44.2763 116.946 44.273 117.177 44.273C118.602 44.273 119.995 44.4068 121.348 44.6633C125.439 45.438 129.147 47.3327 132.13 50.0228C136.482 53.9497 139.288 59.572 139.482 65.89C139.692 72.6928 136.829 78.877 132.145 83.1138C131.281 83.8953 130.356 84.6103 129.376 85.2509C127.289 86.6148 124.957 87.6407 122.456 88.2472C120.975 88.606 119.434 88.8186 117.851 88.8671C117.67 88.8729 117.488 88.876 117.308 88.8771C117.256 88.8778 117.204 88.8778 117.152 88.8778L117.152 88.8776L117.152 88.8773ZM117.177 45.0143C116.952 45.0143 116.727 45.0175 116.501 45.0244C104.585 45.3904 95.2225 55.3357 95.589 67.2373C95.9486 78.9147 105.537 88.1359 117.152 88.1359C117.376 88.1359 117.602 88.1329 117.828 88.1259C129.743 87.7597 139.106 77.8145 138.739 65.9124C138.381 54.2356 128.792 45.0144 117.177 45.0144V45.0143Z" fill="#DDC61C"/>
<path fill-rule="evenodd" clip-rule="evenodd" d="M117.152 88.1358C105.537 88.1358 95.9486 78.9146 95.589 67.2372C95.2226 55.3356 104.585 45.3903 116.501 45.0243C116.727 45.0173 116.953 45.0141 117.177 45.0141C128.792 45.0141 138.381 54.2353 138.739 65.912C139.106 77.8142 129.743 87.7596 117.828 88.1256C117.602 88.1324 117.376 88.1356 117.152 88.1356V88.1358ZM117.659 48.7812C117.47 48.7812 117.278 48.7842 117.087 48.7901C107.003 49.0996 99.0782 57.5173 99.3883 67.5909C99.692 77.4734 107.808 85.2785 117.638 85.2785C117.828 85.2785 118.02 85.2755 118.21 85.2696C128.295 84.9601 136.22 76.5429 135.91 66.4691C135.606 56.586 127.49 48.7808 117.659 48.7808L117.659 48.781V48.7812ZM117.171 46.2697C116.961 46.2697 116.75 46.2729 116.54 46.2792C108.824 46.5161 102 51.0067 98.733 57.9991C98.6386 58.2003 98.7262 58.4399 98.9276 58.5341C98.983 58.5595 99.0405 58.5716 99.0975 58.5716C99.1017 58.5716 99.1059 58.5716 99.1101 58.5716C99.2577 58.5669 99.3969 58.4821 99.4633 58.3393C102.601 51.6243 109.154 47.3114 116.565 47.0839C116.766 47.0776 116.969 47.0743 117.171 47.0743C118.152 47.0743 119.134 47.1476 120.095 47.2918C120.116 47.295 120.137 47.2965 120.158 47.2965C120.354 47.2965 120.523 47.1528 120.553 46.9543C120.587 46.734 120.435 46.5294 120.215 46.496C119.214 46.3454 118.193 46.2695 117.171 46.2695H117.171V46.2697Z" fill="#DDC61C"/>
<path fill-rule="evenodd" clip-rule="evenodd" d="M99.0973 58.5718C99.0403 58.5718 98.9828 58.5596 98.9274 58.5342C98.7261 58.4401 98.6384 58.2003 98.7329 57.9993C102 51.0067 108.823 46.5163 116.54 46.2794C116.75 46.2731 116.961 46.2698 117.171 46.2698C118.193 46.2698 119.214 46.3457 120.215 46.4964C120.435 46.5295 120.587 46.7344 120.553 46.9546C120.523 47.1531 120.354 47.2968 120.158 47.2968C120.137 47.2968 120.116 47.2952 120.095 47.2921C119.134 47.1478 118.153 47.0746 117.171 47.0746C116.969 47.0746 116.766 47.0777 116.565 47.0842C109.154 47.3117 102.601 51.6247 99.4633 58.3396C99.3968 58.4823 99.2577 58.5671 99.1101 58.5719C99.1059 58.5719 99.1015 58.5719 99.0975 58.5719H99.0973V58.5718Z" fill="#E8DA79"/>
<path fill-rule="evenodd" clip-rule="evenodd" d="M117.638 85.2789C107.808 85.2789 99.6919 77.4737 99.3882 67.5912C99.0781 57.5175 107.002 49.0999 117.087 48.7904C117.278 48.7846 117.47 48.7815 117.659 48.7815C127.49 48.7815 135.606 56.5866 135.91 66.4698C136.22 76.5435 128.295 84.9606 118.21 85.2703C118.02 85.2761 117.828 85.2792 117.638 85.2792L117.638 85.279V85.2789Z" fill="#E8DA79"/>
<path fill-rule="evenodd" clip-rule="evenodd" d="M163.153 142.626L163.394 144.604C163.439 144.98 163.735 145.276 164.111 145.319C164.746 145.392 165.765 145.466 166.762 145.361C167.199 145.314 167.483 144.872 167.35 144.453C167.106 143.69 166.662 142.543 166.021 141.869H163.825C163.418 141.869 163.103 142.224 163.153 142.627L163.153 142.626Z" fill="#2E3552"/>
<path fill-rule="evenodd" clip-rule="evenodd" d="M145.946 119.454L145.575 121.633C145.575 121.633 146.817 134.196 147.038 139.221C147.073 140.009 146.869 140.788 146.455 141.459L144.296 144.962L149.782 141.727L149.893 141.058L148.994 139.824L150.17 125.75C150.24 124.924 150.069 124.095 149.678 123.362L148.543 121.232L145.946 119.454V119.454V119.454Z" fill="#FFB27D"/>
<path fill-rule="evenodd" clip-rule="evenodd" d="M143.934 145.469H145.685C146.013 145.469 146.322 145.319 146.522 145.059C147.067 144.35 148.199 142.968 148.739 142.932C149.467 142.883 149.374 145.469 149.374 145.469H149.782L150.299 142.256C150.43 141.448 150.027 140.647 149.3 140.268C149.3 140.268 149.134 141.498 148.232 142.041C147.33 142.585 144.559 144.533 144.559 144.533C144.559 144.533 144.22 144.484 143.847 144.552C143.295 144.651 143.373 145.469 143.934 145.469H143.934V145.469Z" fill="#2E3552"/>
<path fill-rule="evenodd" clip-rule="evenodd" d="M153.462 120.489C153.462 120.489 160.737 134.272 161.893 137.419C163.049 140.565 163.454 143.19 163.47 143.439C163.494 143.828 163.978 144.201 165.312 144.201C166 144.201 166.337 143.925 166.502 143.658C166.643 143.431 166.649 143.146 166.53 142.906C166.11 142.056 164.775 139.337 164.28 138.105C163.689 136.633 162.42 129.961 161.722 127.642C161.026 125.322 160.238 122.806 157.206 120.489C157.206 120.489 155.124 118.451 153.462 120.489H153.462Z" fill="#FFB27D"/>
<path fill-rule="evenodd" clip-rule="evenodd" d="M153.028 101.836C152.264 99.5382 148.826 97.0167 148.826 97.0167C145.362 99.0947 142.068 98.0825 142.068 98.0825C142.068 98.0825 141.664 101.154 142.137 103.584C142.609 106.014 145.576 121.633 145.576 121.633C150.249 122.578 157.437 120.681 157.437 120.681C154.46 115.402 153.79 104.135 153.028 101.836V101.836V101.836Z" fill="#3389C7"/>
<path fill-rule="evenodd" clip-rule="evenodd" d="M142.549 65.8886C142.549 65.8886 141.451 60.9742 147.087 62.2756C147.087 62.2756 149.823 61.829 149.962 64.4078C149.962 64.4078 151.726 65.5684 150.434 67.8004C150.434 67.8004 155.676 65.7787 157.958 70.3673C160.242 74.9551 158.143 77.4797 155.943 78.1376C155.943 78.1376 157.725 79.0319 156.881 81.0502C156.038 83.0688 151.765 84.4917 149.241 82.037C149.241 82.037 142.058 82.985 142.2 77.9172C142.2 77.9172 138.86 75.7622 142.368 71.5746C145.878 67.3862 142.548 65.8886 142.548 65.8886H142.548H142.549Z" fill="#333333"/>
<path fill-rule="evenodd" clip-rule="evenodd" d="M142.237 77.2805C142.797 77.1126 143.891 76.8731 145.237 77.0271C148.387 77.3894 150.471 80.4798 149.754 83.5657C148.813 87.6166 147.681 94.1629 149.249 97.3491C149.249 97.3491 145.814 101.131 142.067 98.0825C142.067 98.0825 140.386 90.7646 138.184 87.5517C136.664 85.3347 140.605 79.228 141.606 77.748C141.756 77.5248 141.978 77.3577 142.236 77.2804L142.237 77.2805Z" fill="#60B682"/>
<path fill-rule="evenodd" clip-rule="evenodd" d="M145.366 71.1255C145.366 71.1255 147.041 75.857 147.166 77.9446C147.166 77.9446 145.315 78.7856 143.571 77.3665C143.571 77.3665 143.389 72.6401 143.123 71.7939L145.366 71.1256L145.366 71.1255Z" fill="#EA9963"/>
<path fill-rule="evenodd" clip-rule="evenodd" d="M143.039 64.6731C143.039 64.6731 138.659 70.7967 141.278 72.5752C143.897 74.3542 147.015 70.0021 147.015 70.0021C147.015 70.0021 148.031 66.6507 146.969 65.5137C145.906 64.3767 143.039 64.6731 143.039 64.6731H143.04H143.039Z" fill="#FFB27D"/>
<path fill-rule="evenodd" clip-rule="evenodd" d="M145.067 63.2096C145.067 63.2096 143.056 63.6861 142.773 64.5956C142.49 65.5051 145.626 66.3483 146.505 66.3898L147.213 70.0598C147.213 70.0598 149.306 66.6073 148.477 64.6129C147.647 62.6192 145.067 63.2095 145.067 63.2095L145.067 63.2096Z" fill="#333333"/>
<path fill-rule="evenodd" clip-rule="evenodd" d="M146.165 69.5518C146.165 69.5518 147.87 67.5791 148.549 68.8651C149.227 70.1511 147.014 71.1166 146.247 70.4851L146.165 69.5518H146.165Z" fill="#FFB27D"/>
<path fill-rule="evenodd" clip-rule="evenodd" d="M148.018 84.6585C148.018 84.6585 146.378 90.1628 141.587 94.1244C136.796 98.0856 129.896 90.7588 129.896 90.7588C129.896 90.7588 130.192 88.6586 127.71 87.3069C126.345 86.5633 131.542 86.7302 132.326 88.2648C133.11 89.7993 131.531 89.7145 133.632 91.3739C135.682 92.9937 140.28 92.7335 141.982 84.9965C142.076 84.5627 142.648 82.1765 142.94 81.8409C145.035 79.4416 148.143 82.187 148.018 84.6584V84.6585H148.018Z" fill="#FFB27D"/>
<path d="M111.609 56.1167C111.609 55.3252 112.252 54.6833 113.045 54.6833C113.837 54.6833 114.48 55.3254 114.48 56.1167V79.3733C114.48 80.1648 113.837 80.8067 113.045 80.8067C112.252 80.8067 111.609 80.1646 111.609 79.3733V56.1167Z" fill="#DDC61C"/>
<path d="M113.045 54.6832H121.069C122.953 54.6832 124.667 55.454 125.91 56.6948H125.916C127.158 57.9359 127.93 59.6497 127.93 61.5355C127.93 63.4172 127.158 65.1294 125.916 66.3712L125.91 66.3766C124.667 67.6176 122.953 68.3882 121.069 68.3882H113.045C112.252 68.3882 111.609 67.7462 111.609 66.9547V56.1167C111.609 55.3252 112.252 54.6833 113.045 54.6833V54.6832ZM121.069 57.5503H114.48V65.5211H121.069C122.167 65.5211 123.166 65.0734 123.889 64.3521C124.611 63.6297 125.059 62.6325 125.059 61.5358C125.059 60.4407 124.61 59.444 123.887 58.7216C123.166 57.9978 122.167 57.5501 121.069 57.5501V57.5503Z" fill="#DDC61C"/>
<path d="M120.617 69.4728C121.41 69.4728 122.052 70.1148 122.052 70.9062C122.052 71.6977 121.41 72.3396 120.617 72.3396H109.88C109.087 72.3396 108.445 71.6976 108.445 70.9062C108.445 70.1147 109.087 69.4728 109.88 69.4728H120.617Z" fill="#DDC61C"/>
<path d="M120.617 65.5211C121.41 65.5211 122.052 66.1631 122.052 66.9545C122.052 67.746 121.41 68.3881 120.617 68.3881H109.88C109.087 68.3881 108.445 67.746 108.445 66.9545C108.445 66.163 109.087 65.5211 109.88 65.5211H120.617Z" fill="#DDC61C"/>
<defs>
<linearGradient id="paint0_linear_16_1850" x1="62.9538" y1="140.086" x2="65.2474" y2="140.086" gradientUnits="userSpaceOnUse">
<stop stop-color="#A22B25"/>
<stop offset="1" stop-color="#C0423C"/>
</linearGradient>
</defs>
</svg>
