<svg width="184" height="159" viewBox="0 0 184 159" fill="none" xmlns="http://www.w3.org/2000/svg">
<g clip-path="url(#clip0_16_1749)">
<path fill-rule="evenodd" clip-rule="evenodd" d="M87.216 0.216307C57.643 1.81087 24.6901 12.2457 9.99939 34.7623C-4.69132 57.2789 -1.12032 91.8768 7.47037 113.762C16.0605 135.647 29.6697 144.819 48.8789 150.931C68.088 157.044 92.897 160.096 116.014 158.642C139.13 157.188 160.554 151.228 172.106 137.899C183.659 124.572 185.34 103.877 183.206 81.8524C181.072 59.827 175.124 36.4712 159.053 21.1699C142.982 5.86853 116.789 -1.37777 87.216 0.216272V0.216307Z" fill="#EAF4FB"/>
<path d="M39.8644 12.7828C39.8644 12.7828 26.7323 12.1398 33.6987 52.2199C33.6987 52.2199 38.3853 65.8251 32.4689 74.5943H119.559V12.7828H39.8644Z" fill="#98BBE1"/>
<path d="M48.8094 116.987C48.8094 116.987 42.7249 109.879 48.4342 105.364C48.4342 105.364 52.6047 102.835 56.0048 103.041C56.0048 103.041 51.1869 111.132 52.7461 111.938C54.3047 112.742 57.4658 102.533 57.4658 102.533C57.4658 102.533 66.9548 101.612 70.008 103.082C70.008 103.082 61.8956 109.731 63.6043 110.126C65.3124 110.522 74.076 103.996 74.076 103.996C74.076 103.996 82.9074 105.502 82.4371 110.897C81.9658 116.293 78.9227 117.959 77.5845 117.816C76.2474 117.673 68.4227 114.682 68.2524 115.779C68.0816 116.876 72.7922 120.464 76.0899 120.632C76.0899 120.632 69.8634 127.509 65.7239 125.524C61.5855 123.539 61.2332 120.394 58.6524 119.213C56.0726 118.032 53.8702 118.036 54.9357 119.24C56.0011 120.443 60.6701 121.612 62.1449 124.225C63.6208 126.84 64.9441 128.601 60.6621 127.956C56.3806 127.312 49.4206 124.173 49.1154 120.581C48.81 116.989 48.81 116.989 48.81 116.989L48.8094 116.987L48.8094 116.987Z" fill="#599DAD"/>
<path d="M126.804 39.0039C126.804 39.0039 120.944 41.5927 119.103 48.1617L119.996 48.4493C119.996 48.4493 123.144 41.9369 126.648 39.9025C130.152 37.868 126.804 39.0044 126.804 39.0044V39.0039Z" fill="#599DAD"/>
<path d="M101.079 31.1145C101.079 31.1145 95.8221 39.6528 99.265 49.7525L100.67 49.3291C100.67 49.3291 98.9613 38.1427 101.673 32.4103C104.387 26.6772 101.079 31.1145 101.079 31.1145Z" fill="#6BB7BF"/>
<path d="M45.3868 155.254H136.311V36.5065H45.3868V155.254Z" fill="#98BBE1"/>
<path d="M48.3595 155.254H137.755V36.5065H48.3595V155.254Z" fill="white"/>
<path d="M137.756 36.5044C137.755 36.5054 137.755 36.5054 137.755 36.5054H48.3589C48.8532 29.7354 48.1086 24.8198 46.9145 21.2848C44.622 14.4875 40.6709 12.7818 40.6709 12.7818H124.98C132.175 12.7818 137.755 17.1234 139.273 22.8857C139.33 23.1028 139.383 23.3182 139.429 23.5341C140.87 30.1266 137.815 36.3846 137.756 36.5048L137.756 36.5043L137.756 36.5044Z" fill="white"/>
<path d="M137.756 36.5044C137.755 36.5054 137.755 36.5054 137.755 36.5054H48.3589C48.8532 29.7354 48.1086 24.8198 46.9146 21.2848C56.0502 22.9601 78.6766 26.5297 102.897 25.9289C118.565 25.5392 130.947 24.4899 139.429 23.5336C140.871 30.1261 137.815 36.384 137.756 36.5043L137.756 36.5044Z" fill="#EDF3FB"/>
<path d="M114.14 63.888H66.7322C66.2454 63.888 65.8483 63.4892 65.8483 63.0017V62.5474C65.8483 62.0598 66.2459 61.6611 66.7322 61.6611H114.14C114.627 61.6611 115.025 62.0599 115.025 62.5474V63.0017C115.025 63.4893 114.627 63.888 114.14 63.888Z" fill="#BBD5FC"/>
<path d="M95.7922 67.6346H66.5464C66.1626 67.6346 65.8483 67.3197 65.8483 66.9349V66.1069C65.8483 65.722 66.1627 65.4072 66.5464 65.4072H95.7922C96.176 65.4072 96.4904 65.7221 96.4904 66.1069V66.9349C96.4904 67.3198 96.176 67.6346 95.7922 67.6346Z" fill="#BBD5FC"/>
<path d="M61.2812 67.2737V62.7253H60.6828C60.3187 62.7253 60.1373 62.574 60.1373 62.2704C60.1373 62.0517 60.2793 61.8973 60.5648 61.8064C60.7095 61.7583 60.9417 61.7214 61.2593 61.6974C61.5774 61.6733 61.8326 61.661 62.0269 61.661C62.2143 61.661 62.3333 61.699 62.3819 61.7748C62.4294 61.8508 62.4544 62.0432 62.4544 62.3527V67.2743H63.0715C63.4713 67.2743 63.6715 67.4469 63.6715 67.7928C63.6715 68.1568 63.4713 68.3385 63.0715 68.3385H60.5825C60.4069 68.3385 60.2601 68.2915 60.1421 68.1974C60.0242 68.1033 59.9655 67.9718 59.9655 67.8019C59.9655 67.4507 60.1677 67.2743 60.5734 67.2743H61.2818L61.2812 67.2738L61.2812 67.2737Z" fill="#BBD5FC"/>
<path d="M114.14 87.34H66.7322C66.2454 87.34 65.8483 86.9418 65.8483 86.4537V85.9999C65.8483 85.5129 66.2459 85.1136 66.7322 85.1136H114.14C114.627 85.1136 115.025 85.513 115.025 85.9999V86.4537C115.025 86.9423 114.627 87.34 114.14 87.34Z" fill="#D2E4FD"/>
<path d="M95.7922 91.0877H66.5464C66.1626 91.0877 65.8483 90.7728 65.8483 90.3875V89.56C65.8483 89.1746 66.1627 88.8597 66.5464 88.8597H95.7922C96.176 88.8597 96.4904 89.1746 96.4904 89.56V90.3875C96.4904 90.7729 96.176 91.0877 95.7922 91.0877Z" fill="#D2E4FD"/>
<path d="M63.7648 90.6328C63.7648 90.9359 63.5535 91.0877 63.1302 91.0877H60.4976C60.1175 91.0877 59.927 90.9348 59.927 90.6296C59.927 90.5323 59.9777 90.42 60.0796 90.2917C60.2302 90.1201 60.4496 89.8625 60.7383 89.5198C61.1776 88.9676 61.5438 88.4908 61.8385 88.0883C61.9404 87.9552 62.0845 87.7516 62.2719 87.4774C62.4267 87.2042 62.5041 86.9738 62.5041 86.7867C62.5041 86.5772 62.4374 86.4045 62.3045 86.2682C62.1705 86.1319 61.9997 86.0635 61.7904 86.0635C61.5871 86.0635 61.4104 86.1271 61.2598 86.2554C61.1579 86.342 61.0783 86.5018 61.0196 86.738C60.9449 87.0433 60.8974 87.2207 60.8755 87.2694C60.7959 87.4405 60.6641 87.5265 60.4826 87.5265C60.322 87.5265 60.196 87.4677 60.1047 87.3496C60.0193 87.248 59.9766 87.1134 59.9766 86.9482C59.9766 86.7605 60.0054 86.5697 60.0646 86.3773C60.1938 85.9641 60.4207 85.6482 60.7474 85.4285C61.0569 85.2189 61.4349 85.1147 61.8784 85.1147C62.3663 85.1147 62.7731 85.2627 63.0987 85.5578C63.4366 85.8689 63.6047 86.2661 63.6047 86.7488C63.6047 87.1086 63.4846 87.479 63.2433 87.8612C63.1104 88.0708 62.8339 88.4407 62.417 88.972C62.2035 89.2462 61.8656 89.6434 61.406 90.164H63.1397C63.5566 90.164 63.7659 90.3201 63.7659 90.6339L63.7648 90.6328L63.7648 90.6328Z" fill="#D2E4FD"/>
<path d="M114.14 106.904H66.7322C66.2454 106.904 65.8483 106.505 65.8483 106.018V105.563C65.8483 105.076 66.2459 104.676 66.7322 104.676H114.14C114.627 104.676 115.025 105.076 115.025 105.563V106.018C115.025 106.505 114.627 106.904 114.14 106.904Z" fill="#D2E4FD"/>
<path d="M95.7922 110.65H66.5464C66.1626 110.65 65.8483 110.336 65.8483 109.951V109.123C65.8483 108.738 66.1627 108.424 66.5464 108.424H95.7922C96.176 108.424 96.4904 108.738 96.4904 109.123V109.951C96.4904 110.336 96.176 110.65 95.7922 110.65Z" fill="#D2E4FD"/>
<path d="M63.7649 108.785C63.7649 109.354 63.5647 109.813 63.166 110.158C62.7881 110.486 62.3098 110.65 61.7296 110.65C61.2812 110.65 60.8974 110.544 60.5809 110.33C60.077 109.991 59.8251 109.582 59.8251 109.106C59.8251 108.969 59.8688 108.851 59.9569 108.752C60.045 108.654 60.1565 108.604 60.2932 108.604C60.4352 108.604 60.5697 108.7 60.6957 108.891C60.898 109.21 61.016 109.386 61.0496 109.418C61.23 109.61 61.4622 109.705 61.7461 109.705C62.1299 109.705 62.4027 109.563 62.5665 109.278C62.6429 109.135 62.6823 108.955 62.6823 108.735C62.6823 108.2 62.3669 107.901 61.7381 107.84C61.382 107.807 61.2043 107.656 61.2043 107.388C61.2043 107.191 61.3084 107.051 61.5138 106.969C61.8998 106.827 62.0962 106.753 62.101 106.747C62.3076 106.61 62.4106 106.372 62.4106 106.031C62.4106 105.829 62.3508 105.67 62.2312 105.551C62.1111 105.433 61.9504 105.374 61.7482 105.374C61.4973 105.374 61.3014 105.434 61.16 105.555C61.0399 105.659 60.9379 105.837 60.8573 106.089C60.7917 106.281 60.6668 106.376 60.481 106.376C60.3503 106.376 60.243 106.32 60.1581 106.204C60.0738 106.089 60.0311 105.963 60.0311 105.826C60.0311 105.656 60.0775 105.486 60.1709 105.316C60.3236 105.031 60.559 104.811 60.876 104.651C61.1664 104.503 61.484 104.43 61.8283 104.43C62.2927 104.43 62.6802 104.57 62.9898 104.852C63.2984 105.134 63.4531 105.506 63.4531 105.966C63.4531 106.52 63.2231 106.957 62.764 107.282C63.4307 107.55 63.7649 108.052 63.7649 108.785L63.765 108.785L63.7649 108.785Z" fill="#D2E4FD"/>
<path d="M108.618 44.3931H79.0849C78.58 44.3931 78.1663 43.9788 78.1663 43.4726V42.7269C78.1663 42.2207 78.5799 41.8064 79.0849 41.8064H108.618C109.123 41.8064 109.537 42.2207 109.537 42.7269V43.4726C109.537 43.9788 109.123 44.3931 108.618 44.3931Z" fill="#BBD5FC"/>
<path d="M116.32 48.3819H71.3851C70.7643 48.3819 70.2572 47.8741 70.2572 47.2529V46.9242C70.2572 46.3031 70.7649 45.7952 71.3851 45.7952H116.32C116.939 45.7952 117.447 46.3036 117.447 46.9242V47.2529C117.447 47.8741 116.939 48.3819 116.32 48.3819Z" fill="#BBD5FC"/>
<path d="M90.3883 75.8959C80.6495 75.8959 71.4076 74.6718 64.5192 72.9228C57.5587 71.1556 53.8099 68.2674 53.8099 65.7054C53.8099 63.3833 56.8642 61.2478 62.6451 59.5298C57.106 61.1767 54.143 63.5945 54.143 65.7054C54.143 68.0478 57.983 70.3666 64.6793 72.067C71.5453 73.8102 80.6746 74.7696 90.3888 74.7696C100.102 74.7696 109.232 73.8096 116.097 72.067C122.793 70.3666 126.634 68.0483 126.634 65.7054C126.634 63.2246 122.59 60.1418 116.08 57.6594C108.679 54.837 99.5544 53.7899 90.3894 53.7899C73.1803 53.7899 66.0976 55.8013 59.9506 58.3223C66.1243 55.7907 73.1205 52.9207 90.3894 52.9207C99.5918 52.9207 108.755 54.4821 116.191 57.3179C122.838 59.8527 126.968 63.0663 126.968 65.7049C126.968 68.267 123.134 70.651 116.174 72.4182C109.285 74.1673 100.128 75.8954 90.3894 75.8954L90.3883 75.8959H90.3883Z" fill="#DDC61C"/>
<path d="M149.526 98.7579C149.526 98.7579 149.205 101.88 148.854 102.47C148.501 103.061 147.004 104.948 146.366 105.318C145.728 105.689 146.755 102.833 146.626 102.276C146.495 101.72 146.1 103.291 145.819 103.328C145.537 103.365 145.61 101.951 145.6 101.436C145.589 100.922 146.968 99.6521 147.455 98.5574C147.94 97.4626 149.527 98.7573 149.527 98.7573L149.526 98.7578L149.526 98.7579Z" fill="#FFB27D"/>
<path d="M111.223 69.9631L110.507 68.6096C110.507 68.6096 110.863 66.1966 107.844 64.6711C107.844 64.6711 106.741 64.221 106.118 65.1223C105.544 65.9524 107.211 65.8022 107.122 67.222C107.031 68.6417 107.705 69.475 108.641 69.9375L109.416 70.8355L111.223 69.9632L111.223 69.9631L111.223 69.9631Z" fill="#FFB27D"/>
<path d="M139.75 66.7264C139.75 66.7264 137.158 79.4667 122.893 83.6308C118.439 84.9303 108.324 70.2485 108.324 70.2485C108.324 70.2485 108.679 68.895 110.907 69.2061C110.907 69.2061 120.758 75.7361 121.998 76.446C123.098 77.0751 130.335 68.354 133.634 66.9471C136.933 65.5408 139.75 66.7264 139.75 66.7264H139.75Z" fill="#60B682"/>
<path d="M115.038 66.2581L114.634 68.8956L101.387 66.8579L101.791 64.2209L115.038 66.2581Z" fill="#DDC61C"/>
<path d="M98.5092 65.0655L101.387 66.8579L101.791 64.2209L98.5092 65.0655Z" fill="#FFB27D"/>
<path d="M116.445 67.37L116.316 68.2039C116.238 68.7166 115.758 69.0683 115.246 68.9897L114.634 68.8956L115.039 66.2582L115.705 66.3608C116.187 66.4351 116.519 66.8873 116.445 67.3701L116.445 67.37V67.37Z" fill="#FFB27D"/>
<path d="M156.781 146.822C156.781 146.822 158.549 148.438 158.205 149.588C157.859 150.737 156.264 151.503 156.046 152.907C155.831 154.311 154.968 155.078 154.192 155.078C153.413 155.078 150.487 155.078 150.487 155.078C150.487 155.078 149.914 154.09 151.296 153.792C152.678 153.494 153.198 151.843 153.113 150.311C153.026 148.779 153.241 146.736 153.241 146.736L156.177 146.056L156.781 146.822V146.822H156.781Z" fill="#1A1A1A"/>
<path d="M135.07 151.004C135.07 151.004 135.387 154.685 134.61 155.067L124.668 155.047C124.668 155.047 124.668 153.898 126.264 153.643C127.861 153.387 130.667 152.451 131.142 150.365C131.617 148.28 135.07 151.004 135.07 151.004V151.004Z" fill="#1A1A1A"/>
<path d="M126.676 99.0113C126.676 99.0113 127.2 105.463 127.816 113.218C128.654 123.753 129.662 136.694 129.761 139.145C129.934 143.403 130.625 150.213 130.625 150.213C130.625 150.213 132.264 151.829 135.545 151.147C135.545 151.147 138.469 141.427 139.305 131.142C139.318 130.974 139.33 130.804 139.343 130.634C140.121 120.164 141.328 98.1174 141.328 98.1174L126.676 99.0106L126.676 99.0112L126.676 99.0113Z" fill="#333333"/>
<path d="M126.676 99.0113C126.676 99.0113 127.2 105.463 127.816 113.218L139.305 131.143C139.318 130.975 139.331 130.805 139.343 130.634C140.121 120.164 141.328 98.118 141.328 98.118L126.676 99.0112V99.0112L126.676 99.0113Z" fill="#1A1A1A"/>
<path d="M129.07 99.7779C129.07 99.7779 138.523 123.144 144.739 134.124C150.954 145.106 152.897 148.169 152.897 148.169C152.897 148.169 156.457 146.765 156.781 145.807C156.781 145.807 154.403 124.609 150.242 119.442C147.89 116.521 145.127 107.759 144.998 104.694C144.868 101.63 144.156 95.5641 144.156 95.5641L129.071 99.7779H129.07V99.7779Z" fill="#333333"/>
<path d="M141.507 63.7693C141.507 63.7693 135.112 66.86 131.424 65.7129C131.424 65.7129 132.332 64.5663 133.921 63.7137C133.793 62.9723 133.694 62.3292 133.637 61.784C133.481 60.5251 133.481 59.8121 133.481 59.8121L135.948 57.8685L138.288 56.0088C138.104 61.2387 141.508 63.7693 141.508 63.7693L141.507 63.7693H141.507Z" fill="#FFB27D"/>
<path d="M144.877 96.7614C144.892 97.1527 144.055 97.6006 143.687 97.7685C140.949 98.9707 138.396 99.81 135.504 100.089C132.087 100.439 128.044 99.6699 126.655 99.6977C126.513 99.6977 126.386 99.6421 126.273 99.5437C126.173 99.4743 126.102 95.3487 126.173 90.1614C126.173 89.9508 126.173 89.7413 126.187 89.5318V89.4612C126.216 87.4337 126.286 85.3089 126.386 83.183C126.584 78.5126 126.952 74.0096 127.576 71.5208C128.328 68.5846 130.029 66.641 131.576 65.2282L132.851 64.1094C134.128 64.3611 135.474 64.2911 136.822 63.6342C138.296 62.9211 139.886 62.1519 140.141 62.3475C142.07 63.7597 143.375 66.9345 144.069 70.9895C144.466 73.3249 144.664 75.9399 144.651 78.6805C144.651 79.6871 144.622 80.723 144.565 81.7434C144.225 87.2797 144.565 92.0906 144.764 94.8729C144.82 95.6844 144.863 96.3135 144.877 96.7615H144.877V96.7614Z" fill="#60B682"/>
<path d="M144.764 96.507C122.369 96.4621 140.633 72.1697 140.633 72.1697L144.262 70.9894C144.549 73.4846 144.692 76.2782 144.682 79.2064C144.682 80.2814 144.662 81.3879 144.62 82.4784C144.374 88.3942 144.62 93.5338 144.763 96.507H144.764H144.764Z" fill="#24AC6D"/>
<path d="M138.33 58.008C138.33 58.008 136.713 60.9587 133.636 61.7835C133.48 60.5247 133.48 59.8116 133.48 59.8116L135.947 57.868L138.33 58.008L138.33 58.008Z" fill="#ED985F"/>
<path d="M132.356 59.7271C132.356 59.7271 138.456 60.7266 139.03 56.9704C139.602 53.2142 140.775 50.8135 136.904 50.0165C133.032 49.2195 132.055 50.5404 131.554 51.7479C131.054 52.956 130.783 59.37 132.355 59.7271H132.356Z" fill="#FFB27D"/>
<path d="M141.247 49.5665C141.303 49.5028 141.43 49.4515 141.714 49.436C141.714 49.436 141.488 49.2938 141.184 49.2858C141.124 48.8903 140.913 48.1889 140.233 48.0189C140.233 48.0189 140.599 48.214 140.646 48.6353C139.858 47.8249 138.17 47.2348 133.494 47.6041C127.332 48.0911 129.363 52.0424 130.16 52.5133C130.959 52.9843 132.966 51.6933 134.453 51.8109C135.939 51.929 136.221 54.0801 136.727 54.3751C137.231 54.6702 137.032 54.1485 137.715 53.8395C138.396 53.5306 138.462 54.6627 138.265 55.3988C138.068 56.1348 139.005 57.1061 139.005 57.1061C139.005 57.1061 139.005 57.1061 139.952 56.0841C140.9 55.0626 141.793 50.7349 141.363 49.8123C141.324 49.7304 141.286 49.6481 141.248 49.5653L141.247 49.5664V49.5665Z" fill="#2C3A64"/>
<path d="M140.138 62.3169C140.138 62.3169 143.999 64.1472 145.849 66.9616C148.721 71.3272 152.049 87.2373 152.11 88.7106C152.172 90.1838 149.681 100.584 149.681 100.584C149.681 100.584 147.155 100.418 146.503 99.1411C146.503 99.1411 147.008 88.4545 146.688 87.7676C146.369 87.0802 136.157 73.4322 137.306 70.52C138.454 67.6078 140.137 62.3174 140.137 62.3174L140.138 62.3169L140.138 62.3169Z" fill="#60B682"/>
<path d="M110.494 68.5449C110.494 68.5449 110.703 67.7148 110.128 67.3416C109.554 66.968 109.024 65.9534 108.781 66.0908C108.278 66.3757 109.056 67.2614 108.914 68.3663C108.865 68.7533 109.763 69.7668 110.494 68.5454V68.5449Z" fill="#FFB27D"/>
<path d="M117.486 129.429H62.5152C62.1469 129.429 61.8464 129.128 61.8464 128.759C61.8464 128.391 62.147 128.09 62.5152 128.09H117.486C117.853 128.09 118.155 128.391 118.155 128.759C118.155 129.128 117.853 129.429 117.486 129.429Z" fill="#D2E4FD"/>
<path d="M117.486 132.11H62.5152C62.1469 132.11 61.8464 131.809 61.8464 131.44C61.8464 131.072 62.147 130.772 62.5152 130.772H117.486C117.853 130.772 118.155 131.073 118.155 131.44C118.155 131.809 117.853 132.11 117.486 132.11Z" fill="#D2E4FD"/>
<path d="M117.486 135.082H62.5152C62.1469 135.082 61.8464 134.781 61.8464 134.412C61.8464 134.044 62.147 133.742 62.5152 133.742H117.486C117.853 133.742 118.155 134.044 118.155 134.412C118.155 134.781 117.853 135.082 117.486 135.082Z" fill="#D2E4FD"/>
<path d="M110.269 138.054H62.4699C62.1267 138.054 61.8459 137.772 61.8459 137.428V137.339C61.8459 136.995 62.1267 136.714 62.4699 136.714H110.269C110.612 136.714 110.894 136.995 110.894 137.339V137.428C110.894 137.772 110.612 138.054 110.269 138.054Z" fill="#D2E4FD"/>
</g>
<defs>
<clipPath id="clip0_16_1749">
<rect width="184" height="159" fill="white"/>
</clipPath>
</defs>
</svg>
