<svg width="26" height="83" viewBox="0 0 26 83" fill="none" xmlns="http://www.w3.org/2000/svg">
<path d="M1 43.025L2 43.025L1 43.025ZM25 83L19.4002 72.9017L13.4547 82.8004L25 83ZM25 1C24.5748 0.0949037 24.5742 0.0951651 24.5736 0.0954698C24.5733 0.0956289 24.5725 0.0959776 24.5718 0.0962965C24.5705 0.0969346 24.5688 0.0977468 24.5667 0.0987335C24.5625 0.100707 24.5569 0.103379 24.5499 0.106752C24.5358 0.1135 24.5161 0.123057 24.4908 0.135454C24.4403 0.160249 24.3676 0.196412 24.2744 0.244198C24.0879 0.339762 23.8189 0.481854 23.4793 0.672512C22.8001 1.05376 21.8374 1.62964 20.6858 2.41654C18.3837 3.98964 15.3201 6.41067 12.2569 9.81205C6.12076 16.6257 7.55012e-07 27.3624 1.97773e-06 43.025L2 43.025C2 27.9376 7.87924 17.6618 13.7431 11.1504C16.6799 7.88933 19.6163 5.56974 21.8142 4.06783C22.9126 3.31723 23.8249 2.77202 24.4582 2.41655C24.7748 2.23885 25.0215 2.10868 25.1866 2.02406C25.2691 1.98176 25.3312 1.95086 25.3715 1.93111C25.3916 1.92124 25.4063 1.91415 25.4153 1.90983C25.4198 1.90766 25.4229 1.90619 25.4246 1.9054C25.4254 1.90501 25.4259 1.90479 25.426 1.90474C25.426 1.90471 25.4258 1.9048 25.4259 1.90479C25.4256 1.90492 25.4252 1.9051 25 1ZM1.97773e-06 43.025C3.03319e-06 62.5138 9.47307 73.5796 16.6733 79.1571L17.8981 77.576C11.0637 72.2818 2 61.7545 2 43.025L1.97773e-06 43.025Z" fill="#C8C8CA"/>
</svg>
