<svg width="508" height="375" viewBox="0 0 508 375" fill="none" xmlns="http://www.w3.org/2000/svg">
<g clip-path="url(#clip0_0_1254)">
<path fill-rule="evenodd" clip-rule="evenodd" d="M465.832 361.894C480.531 349.474 496.797 323.948 504.273 275.193C511.75 226.436 510.435 154.449 477.024 110.123C443.613 65.7965 378.103 49.1311 310.075 38.2511C242.048 27.3695 171.504 22.2729 115.689 66.8605C59.8743 111.447 18.7878 205.716 5.20235 265.354C-8.38347 324.991 5.53143 349.995 36.5605 362.498C67.5893 375.001 115.733 375 183.304 374.657C250.876 374.313 337.875 373.627 387.939 373.627C438.005 373.627 451.134 374.314 465.832 361.895L465.832 361.894Z" fill="#EAF4FB"/>
<path d="M138.101 197.41C134 197.41 130.131 197.173 126.695 196.718C121.008 195.958 117.556 194.925 115.754 193.613C122.23 191.531 129.521 190.832 136.414 190.832C150.707 190.832 163.279 193.847 163.279 193.847C163.653 193.986 164.023 194.132 164.389 194.278C155.936 196.408 146.543 197.41 138.102 197.41H138.101Z" fill="#D5E0FE"/>
<path d="M372.746 22.0075V350.774C372.746 361.576 363.989 370.33 353.185 370.33H181.262C170.455 370.33 161.698 361.576 161.698 350.774V22.0075C161.698 11.21 170.455 2.45557 181.262 2.45557H353.185C363.988 2.45557 372.746 11.21 372.746 22.0075V22.0075Z" fill="white"/>
<path d="M181.258 4.9087C171.826 4.9087 164.151 12.5802 164.151 22.0091V350.774C164.151 360.206 171.826 367.875 181.258 367.875H353.185C362.617 367.875 370.292 360.206 370.292 350.774V22.0091C370.292 12.5802 362.617 4.9087 353.185 4.9087H181.258V4.9087ZM353.185 372.785H181.258C169.118 372.785 159.242 362.91 159.242 350.774V22.0087C159.242 9.87265 169.118 -0.000488281 181.258 -0.000488281H353.185C365.325 -0.000488281 375.205 9.87265 375.205 22.0087V350.774C375.205 362.91 365.325 372.785 353.185 372.785Z" fill="#333333"/>
<path d="M359.942 369.12H177.851C169.325 369.12 162.409 362.211 162.409 353.688V343.867H373.12V355.949C373.12 363.222 367.22 369.12 359.942 369.12V369.12Z" fill="#333333"/>
<path d="M369.773 215.994C376.697 214.514 383.922 216.608 389.047 221.494C391.309 223.648 393.789 226.34 396.069 229.521C401.717 237.406 390.901 245.209 392.339 247.88C393.777 250.551 397.108 252.663 395.652 258.239C394.193 263.815 384.576 271.052 381.439 271.374C349.659 274.638 335.868 257.124 346.492 247.683C357.115 238.242 352.781 224.545 361.404 219.224C364.067 217.584 366.997 216.587 369.773 215.995H369.773V215.994Z" fill="#4D4D4D"/>
<path d="M386.382 265.816C386.382 265.816 415.383 279.86 420.813 279.624C426.249 279.387 460.206 267.433 460.206 267.433L459.354 273.191C459.354 273.191 433.519 288.044 424.486 288.885C415.598 289.714 385.19 280.909 382.254 279.046C379.32 277.187 377.849 267.698 386.382 265.816Z" fill="#ED985F"/>
<path d="M389.573 279.065C386.944 280.888 383.649 282.389 379.512 283.343C364.003 286.925 358.058 273.823 355.827 264.829C357.942 263.619 359.931 263.352 361.082 263.216C362.201 263.082 363.38 262.994 364.356 262.945C366.098 261.615 368.693 256.157 369.268 247.682L369.997 247.877L382.22 251.222C382.22 251.222 381.66 255.105 381.387 258.776C381.174 261.65 381.141 264.394 381.685 265.066C382.639 265.272 383.21 265.409 383.21 265.409L383.217 265.421C383.381 265.688 386.928 271.52 389.573 279.064L389.573 279.065Z" fill="#FFB27D"/>
<path d="M382.22 251.225C382.22 251.225 381.658 255.106 381.388 258.779C374.463 258.087 371.247 251.496 369.998 247.88L382.22 251.225Z" fill="#ED985F"/>
<path d="M384.287 254.872C384.287 254.872 367.851 253.964 368.575 243.742C369.296 233.517 367.661 226.516 378.187 226.662C388.713 226.808 390.473 230.852 391.063 234.326C391.653 237.796 388.582 254.841 384.287 254.872H384.287Z" fill="#FFB27D"/>
<path d="M390.981 228.604C388.664 225.35 386.698 225.885 385.558 226.732C376.937 221.157 370.633 228.035 370.633 228.035C369.006 235.292 363.413 239.114 363.413 239.114C363.413 239.114 366.328 241.441 373.301 239.898C382.219 237.92 385.283 230.187 385.7 228.999C386.636 229.971 387.849 230.591 388.776 232.696C389.879 235.2 390.572 236.653 390.594 240.764C390.594 240.764 394.457 233.49 390.98 228.603L390.981 228.604Z" fill="#4D4D4D"/>
<path d="M351.145 312.47C349.659 304.886 344.82 274.579 349.659 264.83C351.398 261.326 358.219 261.01 365.702 261.317C368.031 262.818 376.904 268.497 380.548 267.789C380.587 267.78 380.657 267.765 380.752 267.74C382.469 267.312 383.117 266.105 381.685 265.067C381.682 265.067 384.971 265.3 389.573 266.166C392.172 266.655 399.312 271.034 399.312 271.034C399.312 271.034 396.074 276.069 390.867 278.271C391.752 286.187 390.436 289.681 382.219 307.967C375.277 323.424 383.156 337.341 383.156 337.341C383.156 337.341 342.284 370.187 342.056 353.463C341.886 340.872 353.041 322.166 351.145 312.47L351.145 312.47Z" fill="#60B682"/>
<path d="M385.184 373.058C387.406 372.806 389.406 371.591 390.65 369.731C390.847 369.436 391.057 369.118 391.282 368.78C395.933 361.74 397.744 340.178 408.209 317.21C410.759 311.62 419.908 310.613 422.402 304.294C422.402 304.294 428.541 283.805 410.648 283.201C392.756 282.595 362.727 340.209 362.252 346.25C361.793 352.102 350.422 376.978 385.183 373.059L385.184 373.058Z" fill="#2678BA"/>
<path d="M456.302 372.94H430.832C430.832 372.94 429.88 368.771 431.552 365.933C433.037 363.423 432.468 361.992 431.372 359.917C432.527 360.403 434.017 360.843 435.66 360.746C436.93 360.67 438.27 360.081 439.448 359.378C440.545 360.661 445.239 366.121 446.706 367.203C448.365 368.431 455.792 367.993 456.302 372.94H456.302Z" fill="#233862"/>
<path d="M422.983 289.122C424.514 300.614 430.507 336.887 441.067 354.587C444.478 360.29 432.486 363.49 432.422 363.472C430.815 363.052 428.134 360.491 426.905 359.378C418.324 351.652 400.917 329.774 400.917 312.233C400.917 303.679 400.765 287.345 406.988 283.194C410.823 280.638 422.374 284.558 422.983 289.122L422.983 289.122Z" fill="#2678BA"/>
<path d="M372.746 373.083C372.746 373.083 374.038 371.15 374.855 368.276C376.227 363.472 376.713 359.978 379.342 352.497C382.105 344.645 385.382 334.982 389.476 324.931C390.741 321.829 392.081 318.687 393.51 315.551C396.06 309.96 403.07 310.732 405.565 304.412C405.565 304.412 415.296 282.498 397.407 281.893C379.512 281.288 345.51 340.512 343.556 346.249C341.419 352.53 333.732 379.099 372.746 373.082H372.746L372.746 373.083Z" fill="#3389C7"/>
<path d="M437.609 372.94H412.139C412.139 372.94 411.188 368.771 412.859 365.933C414.338 363.423 413.77 361.992 412.673 359.917C413.828 360.403 415.325 360.843 416.967 360.746C418.237 360.67 419.577 360.081 420.749 359.378C421.846 360.661 426.54 366.121 428.007 367.203C429.672 368.431 437.093 367.993 437.609 372.94V372.94Z" fill="#2B478B"/>
<path d="M379.342 352.497C382.104 344.645 385.381 334.982 389.476 324.931C388.406 317.314 386.099 310.653 382.22 307.967C382.22 307.967 372.81 337.113 379.342 352.497V352.497Z" fill="#2678BA"/>
<path d="M408.116 288.308C409.651 299.8 411.809 336.887 422.374 354.587C425.78 360.29 413.793 363.49 413.729 363.472C412.122 363.053 409.444 360.491 408.21 359.379C399.632 351.652 382.22 329.775 382.22 312.233C382.22 303.679 392.264 288.031 398.482 283.881C402.316 281.326 407.508 283.744 408.116 288.308V288.308Z" fill="#3389C7"/>
<path d="M463.247 252.623L437.168 249.852C436.408 249.773 435.683 250.214 435.416 250.928L426.081 275.439C425.675 276.515 426.44 277.673 427.589 277.718L453.465 278.764C454.167 278.791 454.816 278.381 455.089 277.731L464.621 254.945C465.056 253.905 464.366 252.742 463.246 252.623L463.247 252.623Z" fill="#333333"/>
<path d="M465.509 252.861L439.431 250.092C438.671 250.011 437.951 250.451 437.678 251.165L428.349 275.677C427.937 276.753 428.703 277.91 429.852 277.959L455.733 279.001C456.435 279.029 457.079 278.618 457.352 277.968L466.89 255.182C467.319 254.143 466.635 252.979 465.509 252.861Z" fill="#4D4D4D"/>
<path d="M451.052 264.303C451.371 263.428 450.924 262.721 450.048 262.721C449.172 262.721 448.203 263.428 447.884 264.303C447.565 265.178 448.017 265.889 448.894 265.889C449.77 265.889 450.738 265.178 451.052 264.303Z" fill="#EBF3FA"/>
<path d="M464.732 255.176C464.889 254.747 464.668 254.398 464.239 254.398C463.804 254.398 463.334 254.747 463.171 255.176C463.021 255.607 463.241 255.954 463.67 255.954C464.1 255.954 464.575 255.607 464.732 255.176Z" fill="#EBF3FA"/>
<path d="M355.827 264.829C355.827 264.829 391.974 278.135 397.407 277.861C400.917 277.685 430.096 267.433 430.096 267.433L432.718 272.386C432.718 272.386 404.316 290.635 396.507 290.544C381.092 290.365 355.079 280.909 352.145 279.046C349.209 277.187 347.297 266.71 355.827 264.829H355.827Z" fill="#FFB27D"/>
<path d="M430.096 267.434C430.096 267.434 432.718 263.405 435.323 263.286C437.934 263.167 442.442 265.063 443.979 265.358C445.523 265.656 449.909 267.078 448.603 269.211C447.298 271.344 441.253 271.818 438.642 271.344C436.037 270.87 432.718 272.386 432.718 272.386L430.096 267.433L430.096 267.434Z" fill="#FFB27D"/>
<path d="M434.615 263.41C434.615 263.41 438.763 261.508 439.947 261.152C441.13 260.797 440.898 261.159 440.538 262.28C440.184 263.404 438.049 264.477 438.049 264.829C438.049 265.181 434.615 263.41 434.615 263.41L434.615 263.41Z" fill="#FFB27D"/>
<path d="M462.829 265.3C462.829 265.3 461.17 259.848 459.354 261.563C457.462 263.343 458.611 265.127 458.843 267.4C459.284 271.741 460.166 271.556 460.717 271.359C461.274 271.165 463.438 267.485 462.828 265.3H462.829Z" fill="#FFB27D"/>
<path d="M462.922 266.13C462.922 266.13 463.757 270.77 459.354 273.191L460.659 269.998L462.922 266.13V266.13Z" fill="#FFB27D"/>
<path d="M387.367 248.993C387.367 248.993 385.813 248.379 381.439 248.731C381.439 248.731 381.673 250.436 384.895 250.606C386.722 250.7 387.367 248.993 387.367 248.993H387.367Z" fill="white"/>
<path d="M374.45 271.392C374.45 271.392 371.216 281.623 360.113 283.951C360.113 283.951 341.777 278.302 350.908 265.816C350.908 265.816 359.933 259.111 374.45 271.392Z" fill="#60B682"/>
<path d="M462.922 266.786C462.922 266.786 463.688 264.234 463.734 263.79C463.774 263.346 463.722 263.124 463.328 263.434C462.933 263.744 462.335 264.565 462.515 265.339C462.689 266.114 462.921 266.786 462.921 266.786H462.922Z" fill="#FFB27D"/>
<path d="M493.05 375H19.4454C19.1279 375 18.8679 374.602 18.8679 374.119V373.666C18.8679 373.18 19.1279 372.785 19.4454 372.785H493.05C493.369 372.785 493.627 373.18 493.627 373.666V374.119C493.627 374.602 493.369 375 493.05 375Z" fill="#2E3552"/>
<path d="M90.5291 360.53C90.5291 360.53 89.7656 372.833 87.3853 373.01C87.0686 373.031 75.3095 373.031 75.3095 373.031L60.2993 372.946C60.2993 372.946 60.3977 369.33 64.7852 368.564C69.1732 367.802 76.517 364.717 79.1747 358.923C81.9712 352.825 90.5291 360.53 90.5291 360.53V360.53Z" fill="#2B478B"/>
<path d="M124.816 306.047C124.519 307.594 124.046 309.259 123.428 311.015C122.803 312.795 122.03 314.664 121.138 316.6C117.787 323.874 92.2437 365.797 92.2437 365.797C92.2437 365.797 88.6439 366.249 82.7557 363.743C78.3735 361.877 76.6919 358.656 76.6919 358.656C77.2895 357.161 83.1839 343.117 91.8853 321.504C95.4187 312.729 99.1759 303.395 102.8 294.395C103.283 293.195 103.766 291.997 104.244 290.809C105.352 288.056 106.443 285.343 107.508 282.705C115.678 262.408 122.185 246.249 122.185 246.249C122.185 246.249 157.084 233.272 158.23 241.895C160.495 258.914 126.314 298.281 124.816 306.048L124.816 306.047Z" fill="#2678BA"/>
<path d="M148.962 324.959C148.962 324.959 159.421 328.155 159.385 332.506C159.381 332.825 154.926 343.725 154.926 343.725L150.502 355.784C150.341 356.216 149.879 356.465 149.436 356.34C148.241 356.003 146.211 354.967 146.87 351.837C147.789 347.48 147.652 339.519 143.253 334.9C138.624 330.042 148.962 324.958 148.962 324.958V324.959Z" fill="#2B478B"/>
<path d="M144.977 339.175C144.977 339.175 153.19 337.368 153.61 326.226C153.61 326.226 130.011 301.781 121.946 297.311C112.596 292.131 107.958 291.079 109.732 289.207C114.263 284.418 148.236 271.678 154.588 261.8C156.777 258.397 158.017 255.164 158.692 252.341C160.133 246.312 158.993 242.15 158.993 242.15L116.994 237.838C116.994 237.838 74.362 278.165 74.5703 292.252C74.7956 307.475 144.977 339.175 144.977 339.175H144.977Z" fill="#3389C7"/>
<path d="M123.736 156.594C133.556 159.131 149.834 150.037 149.834 150.037C149.834 150.037 143.512 145.789 141.172 136.461C141.05 135.993 140.947 135.51 140.849 135.015C139.819 134.796 137.88 134.386 135.806 133.949L128.306 140.664C128.306 140.664 128.477 143.453 129.416 148.248C129.577 149.083 129.764 149.979 129.98 150.937C125.954 153.429 123.736 156.595 123.736 156.595V156.594Z" fill="#FFB27D"/>
<path d="M160.23 197.279C158.822 216.188 160.673 244.948 159.077 249.928C157.701 254.228 142.01 251.672 135.748 250.238C133.43 249.706 130.623 248.946 127.723 248.05C119.634 245.546 110.821 241.973 109.876 239.317C109.839 239.214 109.808 239.114 109.788 239.014C109.701 238.628 109.72 238.266 109.805 237.901C110.12 236.55 111.335 235.084 111.478 231.733C111.638 227.995 111.614 223.59 111.755 218.856C111.762 218.321 111.769 217.741 111.827 217.209L111.83 217.015C111.832 216.915 111.835 216.814 111.836 216.714C111.972 211.433 112.249 205.878 112.569 200.373C112.773 196.915 113.008 193.488 113.279 190.206C113.985 181.737 114.935 174.206 116.194 169.441C118.249 161.677 122.784 156.615 126.91 152.905L129.895 150.344C133.226 151.073 137.164 150.589 140.727 148.903C144.581 147.074 145.912 145.762 146.584 146.257C155.487 153.124 161.892 174.163 160.229 197.279H160.23Z" fill="#60B682"/>
<path d="M127.723 248.05C119.635 245.547 110.821 241.974 109.876 239.317C109.839 239.214 109.808 239.114 109.788 239.014C109.793 238.644 109.798 238.273 109.805 237.902C110.121 236.55 111.336 235.085 111.478 231.734C111.639 227.996 111.614 223.59 111.755 218.856C111.762 218.321 111.77 217.742 111.828 217.21L111.83 217.015C111.833 216.915 111.835 216.815 111.837 216.714L144.536 175.069C144.536 175.069 166.519 220.823 127.723 248.05V248.05Z" fill="#24AC6D"/>
<path d="M128.305 140.663C128.305 140.663 128.476 143.452 129.415 148.247C136.739 145.88 140.061 139.265 141.171 136.46C141.049 135.993 140.946 135.51 140.849 135.015C139.818 134.795 137.879 134.385 135.806 133.948L128.305 140.663Z" fill="#EA9963"/>
<path d="M127.32 144.889C127.32 144.889 143.293 142.224 141.478 132.31C139.666 122.392 140.505 115.368 130.232 116.65C119.958 117.932 118.674 122.076 118.474 125.534C118.274 128.992 123.12 145.327 127.32 144.889V144.889Z" fill="#FFB27D"/>
<path d="M64.4505 229.747L63.0416 230.202L51.0583 193.336L52.4665 192.877L64.4505 229.747Z" fill="#333333"/>
<path d="M103.675 226.902L62.9902 227.768L63.0415 230.202L103.727 229.333L103.675 226.902Z" fill="#333333"/>
<path d="M102.912 231.274C102.912 231.274 95.8826 232.247 90.4685 233.152C87.9284 233.578 84.8912 234.435 83.3233 234.365C71.5279 233.824 70.0129 230.059 73.3735 229.98C74.9988 229.944 79.4878 229.849 79.4878 229.849C82.2385 229.388 84.716 228.297 84.8016 227.942C85.0104 227.072 81.9812 227.583 81.3161 227.379C80.1475 227.021 80.6329 225.917 82.3052 226.057C83.3912 226.148 86.5716 225.149 87.7517 225.742C88.9319 226.331 90.1687 227.261 91.0309 227.17C91.8932 227.082 101.823 223.879 101.823 223.879L102.912 231.275V231.274V231.274Z" fill="#FFB27D"/>
<path d="M149.211 162.024C149.211 162.024 147.667 214.706 136.092 220.694C130.382 223.648 104.595 231.767 96.854 233.152C96.854 233.152 94.7719 231.815 94.5374 225.459C94.5374 225.459 121.034 212.26 124.347 206.31C129.277 197.458 117.002 173.196 123.475 164.676C129.947 156.159 141.922 151.48 149.212 162.024L149.211 162.024Z" fill="#60B682"/>
<path d="M141.171 136.46C141.171 136.46 141.275 134.504 140.408 132.705C139.815 131.477 139.11 130.803 139.809 129.63C140.578 128.342 140.335 126.093 139.074 126.024C137.615 125.945 137.149 128.998 136.384 128.992C133.435 128.965 133.009 126.407 131.827 123.255C130.646 120.108 119.834 123.921 118.574 124.489C118.364 124.583 118.077 124.605 117.739 124.565C114.855 124.237 113.529 120.733 115.421 118.534C115.536 118.397 115.643 118.267 115.739 118.139C116.751 116.789 125.212 106.258 135.114 108.845C145.014 111.431 146.26 116.003 146.841 120.05C147.494 124.626 145.227 135.103 141.172 136.461L141.171 136.46Z" fill="#333333"/>
<path d="M253.444 194.242C253.444 184.788 255.581 176.97 259.856 170.788C264.13 164.607 270.36 157.789 278.544 150.334C284.546 144.88 288.957 140.289 291.776 136.562C294.595 132.835 296.005 128.608 296.005 123.881C296.005 117.154 293.322 111.836 287.956 107.927C282.591 104.018 275.452 102.063 266.54 102.063C257.991 102.063 250.398 103.836 243.759 107.381C237.121 110.926 231.528 115.881 226.981 122.245L193.969 102.881C201.608 91.2454 211.93 82.2457 224.934 75.8819C237.939 69.5184 253.354 66.3369 271.178 66.3369C292.094 66.3369 308.873 70.7914 321.514 79.7001C334.154 88.6087 340.475 100.972 340.475 116.79C340.475 124.244 339.247 130.789 336.792 136.426C334.336 142.062 331.336 146.835 327.789 150.743C324.242 154.652 319.649 159.152 314.011 164.243C307.281 170.243 302.371 175.289 299.278 179.379C296.186 183.47 294.641 188.424 294.641 194.242H253.444V194.242V194.242ZM274.179 262.694C266.722 262.694 260.492 260.285 255.491 255.468C250.489 250.649 247.988 244.786 247.988 237.877C247.988 230.968 250.444 225.196 255.354 220.559C260.265 215.923 266.54 213.605 274.179 213.605C281.818 213.605 288.093 215.923 293.004 220.559C297.914 225.195 300.37 230.968 300.37 237.877C300.37 244.786 297.869 250.649 292.867 255.468C287.866 260.286 281.636 262.694 274.179 262.694V262.694Z" fill="#1D9E46"/>
</g>
<defs>
<clipPath id="clip0_0_1254">
<rect width="508" height="375" fill="white"/>
</clipPath>
</defs>
</svg>
