<svg width="122" height="126" viewBox="0 0 122 126" fill="none" xmlns="http://www.w3.org/2000/svg">
<path d="M92.9331 106.974V125H1V27.6182L27.5298 1H92.9331V19.441" stroke="url(#paint0_linear_10_3)" stroke-width="2" stroke-miterlimit="22.9256" stroke-linecap="round" stroke-linejoin="round"/>
<path d="M40.2483 38.3647H63.2305" stroke="url(#paint1_linear_10_3)" stroke-width="2" stroke-miterlimit="22.9256" stroke-linecap="round" stroke-linejoin="round"/>
<path d="M16.73 72.426H70.6621" stroke="url(#paint2_linear_10_3)" stroke-width="2" stroke-miterlimit="22.9256" stroke-linecap="round" stroke-linejoin="round"/>
<path d="M16.73 55.3955H69.6158" stroke="url(#paint3_linear_10_3)" stroke-width="2" stroke-miterlimit="22.9256" stroke-linecap="round" stroke-linejoin="round"/>
<path d="M16.73 89.4565H63.7299" stroke="url(#paint4_linear_10_3)" stroke-width="2" stroke-miterlimit="22.9256" stroke-linecap="round" stroke-linejoin="round"/>
<path d="M16.73 106.485H77.2024" stroke="url(#paint5_linear_10_3)" stroke-width="2" stroke-miterlimit="22.9256" stroke-linecap="round" stroke-linejoin="round"/>
<path fill-rule="evenodd" clip-rule="evenodd" d="M1 27.6182H27.5304V1L1 27.6182Z" stroke="url(#paint6_linear_10_3)" stroke-width="2" stroke-miterlimit="22.9256" stroke-linecap="round" stroke-linejoin="round"/>
<path fill-rule="evenodd" clip-rule="evenodd" d="M115.409 98.2369H70.4583C70.59 82.663 79.745 69.2494 92.9335 63C106.122 69.2488 115.277 82.663 115.409 98.2369Z" stroke="url(#paint7_linear_10_3)" stroke-width="2" stroke-miterlimit="22.9256" stroke-linecap="round" stroke-linejoin="round"/>
<path fill-rule="evenodd" clip-rule="evenodd" d="M115.409 27.7644H70.4583C70.59 43.3383 79.745 56.7519 92.9335 63.0013C106.122 56.7525 115.277 43.3383 115.409 27.7644V27.7644Z" stroke="url(#paint8_linear_10_3)" stroke-width="2" stroke-miterlimit="22.9256" stroke-linecap="round" stroke-linejoin="round"/>
<path fill-rule="evenodd" clip-rule="evenodd" d="M92.9331 78.5146C87.2588 81.2036 82.8328 86.1101 80.7666 92.1195H105.099C103.033 86.1101 98.6068 81.2036 92.9326 78.5146H92.9331Z" stroke="url(#paint9_linear_10_3)" stroke-width="2" stroke-miterlimit="22.9256" stroke-linecap="round" stroke-linejoin="round"/>
<path fill-rule="evenodd" clip-rule="evenodd" d="M102.83 46.1218H83.0381C85.4147 49.9374 88.8506 53.0201 92.9338 54.955C97.0165 53.0201 100.453 49.9374 102.83 46.1218Z" stroke="url(#paint10_linear_10_3)" stroke-width="2" stroke-miterlimit="22.9256" stroke-linecap="round" stroke-linejoin="round"/>
<path d="M92.9336 73.0098C92.9336 73.9344 92.9336 74.8596 92.9336 75.7837" stroke="url(#paint11_linear_10_3)" stroke-width="2" stroke-miterlimit="22.9256" stroke-linecap="round" stroke-linejoin="round"/>
<path d="M92.9336 66.323C92.9336 67.2476 92.9336 68.1728 92.9336 69.097" stroke="url(#paint12_linear_10_3)" stroke-width="2" stroke-miterlimit="22.9256" stroke-linecap="round" stroke-linejoin="round"/>
<path d="M64.8662 27.7644H121" stroke="url(#paint13_linear_10_3)" stroke-width="2" stroke-miterlimit="22.9256" stroke-linecap="round" stroke-linejoin="round"/>
<path d="M64.8662 98.2383H121" stroke="url(#paint14_linear_10_3)" stroke-width="2" stroke-miterlimit="22.9256" stroke-linecap="round" stroke-linejoin="round"/>
<defs>
<linearGradient id="paint0_linear_10_3" x1="-8.5" y1="63" x2="118" y2="63" gradientUnits="userSpaceOnUse">
<stop stop-color="#4996CE"/>
<stop offset="1" stop-color="#32C060"/>
</linearGradient>
<linearGradient id="paint1_linear_10_3" x1="-5.5" y1="38" x2="117" y2="38" gradientUnits="userSpaceOnUse">
<stop stop-color="#4996CE"/>
<stop offset="1" stop-color="#32C060"/>
</linearGradient>
<linearGradient id="paint2_linear_10_3" x1="-6.5" y1="72.9272" x2="117.5" y2="72.9272" gradientUnits="userSpaceOnUse">
<stop stop-color="#4996CE"/>
<stop offset="1" stop-color="#32C060"/>
</linearGradient>
<linearGradient id="paint3_linear_10_3" x1="-8" y1="55.8967" x2="116.5" y2="55.8966" gradientUnits="userSpaceOnUse">
<stop stop-color="#4996CE"/>
<stop offset="1" stop-color="#32C060"/>
</linearGradient>
<linearGradient id="paint4_linear_10_3" x1="-5.5" y1="89.9577" x2="118" y2="89.9577" gradientUnits="userSpaceOnUse">
<stop stop-color="#4996CE"/>
<stop offset="1" stop-color="#32C060"/>
</linearGradient>
<linearGradient id="paint5_linear_10_3" x1="-10" y1="106.986" x2="121" y2="106.986" gradientUnits="userSpaceOnUse">
<stop stop-color="#4996CE"/>
<stop offset="1" stop-color="#32C060"/>
</linearGradient>
<linearGradient id="paint6_linear_10_3" x1="-10" y1="14" x2="116.5" y2="14" gradientUnits="userSpaceOnUse">
<stop stop-color="#4996CE"/>
<stop offset="1" stop-color="#32C060"/>
</linearGradient>
<linearGradient id="paint7_linear_10_3" x1="-9.5" y1="80.6604" x2="117.094" y2="80.6604" gradientUnits="userSpaceOnUse">
<stop stop-color="#4996CE"/>
<stop offset="1" stop-color="#32C060"/>
</linearGradient>
<linearGradient id="paint8_linear_10_3" x1="-11" y1="45.4248" x2="117.094" y2="45.4248" gradientUnits="userSpaceOnUse">
<stop stop-color="#4996CE"/>
<stop offset="1" stop-color="#32C060"/>
</linearGradient>
<linearGradient id="paint9_linear_10_3" x1="-7.5" y1="85.3333" x2="117" y2="85.3333" gradientUnits="userSpaceOnUse">
<stop stop-color="#4996CE"/>
<stop offset="1" stop-color="#32C060"/>
</linearGradient>
<linearGradient id="paint10_linear_10_3" x1="-9.49999" y1="50.5489" x2="115" y2="50.5489" gradientUnits="userSpaceOnUse">
<stop stop-color="#4996CE"/>
<stop offset="1" stop-color="#32C060"/>
</linearGradient>
<linearGradient id="paint11_linear_10_3" x1="-11" y1="74.4" x2="117.5" y2="74.4" gradientUnits="userSpaceOnUse">
<stop stop-color="#4996CE"/>
<stop offset="1" stop-color="#32C060"/>
</linearGradient>
<linearGradient id="paint12_linear_10_3" x1="-11.5" y1="67.7133" x2="116.5" y2="67.7133" gradientUnits="userSpaceOnUse">
<stop stop-color="#4996CE"/>
<stop offset="1" stop-color="#32C060"/>
</linearGradient>
<linearGradient id="paint13_linear_10_3" x1="-9.5" y1="28.2656" x2="123.105" y2="28.2655" gradientUnits="userSpaceOnUse">
<stop stop-color="#4996CE"/>
<stop offset="1" stop-color="#32C060"/>
</linearGradient>
<linearGradient id="paint14_linear_10_3" x1="-7.5" y1="98.7395" x2="123.105" y2="98.7395" gradientUnits="userSpaceOnUse">
<stop stop-color="#4996CE"/>
<stop offset="1" stop-color="#32C060"/>
</linearGradient>
</defs>
</svg>
