<svg width="122" height="120" viewBox="0 0 122 120" fill="none" xmlns="http://www.w3.org/2000/svg">
<path d="M45.0343 76.8477H37.9397V113.491H45.0343V76.8477Z" stroke="url(#paint0_linear_10_66)" stroke-width="2" stroke-miterlimit="22.9256" stroke-linecap="round" stroke-linejoin="round"/>
<path d="M84.0607 76.8477H76.9661V113.491H84.0607V76.8477Z" stroke="url(#paint1_linear_10_66)" stroke-width="2" stroke-miterlimit="22.9256" stroke-linecap="round" stroke-linejoin="round"/>
<path d="M58.0448 76.8477H50.9502V113.491H58.0448V76.8477Z" stroke="url(#paint2_linear_10_66)" stroke-width="2" stroke-miterlimit="22.9256" stroke-linecap="round" stroke-linejoin="round"/>
<path d="M71.0497 76.8477H63.9551V113.491H71.0497V76.8477Z" stroke="url(#paint3_linear_10_66)" stroke-width="2" stroke-miterlimit="22.9256" stroke-linecap="round" stroke-linejoin="round"/>
<path fill-rule="evenodd" clip-rule="evenodd" d="M47.9918 72.2168H34.9807V74.1648C34.9807 75.6418 36.3126 76.848 37.9389 76.848H45.0335C46.6599 76.848 47.9918 75.6418 47.9918 74.1648V72.2168Z" stroke="url(#paint4_linear_10_66)" stroke-width="2" stroke-miterlimit="22.9256" stroke-linecap="round" stroke-linejoin="round"/>
<path fill-rule="evenodd" clip-rule="evenodd" d="M74.0073 72.2168H87.0184V74.1648C87.0184 75.6418 85.6865 76.848 84.0601 76.848H76.9655C75.3392 76.848 74.0073 75.6418 74.0073 74.1648V72.2168V72.2168Z" stroke="url(#paint5_linear_10_66)" stroke-width="2" stroke-miterlimit="22.9256" stroke-linecap="round" stroke-linejoin="round"/>
<path fill-rule="evenodd" clip-rule="evenodd" d="M47.9915 72.2168H61.0025V74.1648C61.0025 75.6418 59.6707 76.848 58.0443 76.848H50.9497C49.3233 76.848 47.9915 75.6418 47.9915 74.1648V72.2168V72.2168Z" stroke="url(#paint6_linear_10_66)" stroke-width="2" stroke-miterlimit="22.9256" stroke-linecap="round" stroke-linejoin="round"/>
<path fill-rule="evenodd" clip-rule="evenodd" d="M74.0076 72.2168H60.9966V74.1648C60.9966 75.6418 62.3284 76.848 63.9548 76.848H71.0494C72.6758 76.848 74.0076 75.6418 74.0076 74.1648V72.2168V72.2168Z" stroke="url(#paint7_linear_10_66)" stroke-width="2" stroke-miterlimit="22.9256" stroke-linecap="round" stroke-linejoin="round"/>
<path fill-rule="evenodd" clip-rule="evenodd" d="M47.9918 118.128H34.9807V116.18C34.9807 114.703 36.3126 113.497 37.9389 113.497H45.0335C46.6599 113.497 47.9918 114.703 47.9918 116.18V118.128Z" stroke="url(#paint8_linear_10_66)" stroke-width="2" stroke-miterlimit="22.9256" stroke-linecap="round" stroke-linejoin="round"/>
<path fill-rule="evenodd" clip-rule="evenodd" d="M74.0073 118.128H87.0184V116.18C87.0184 114.703 85.6865 113.497 84.0601 113.497H76.9655C75.3392 113.497 74.0073 114.703 74.0073 116.18V118.128V118.128Z" stroke="url(#paint9_linear_10_66)" stroke-width="2" stroke-miterlimit="22.9256" stroke-linecap="round" stroke-linejoin="round"/>
<path fill-rule="evenodd" clip-rule="evenodd" d="M47.9915 118.128H61.0025V116.18C61.0025 114.703 59.6707 113.497 58.0443 113.497H50.9497C49.3233 113.497 47.9915 114.703 47.9915 116.18V118.128V118.128Z" stroke="url(#paint10_linear_10_66)" stroke-width="2" stroke-miterlimit="22.9256" stroke-linecap="round" stroke-linejoin="round"/>
<path fill-rule="evenodd" clip-rule="evenodd" d="M74.0076 118.128H60.9966V116.18C60.9966 114.703 62.3284 113.497 63.9548 113.497H71.0494C72.6758 113.497 74.0076 114.703 74.0076 116.18V118.128V118.128Z" stroke="url(#paint11_linear_10_66)" stroke-width="2" stroke-miterlimit="22.9256" stroke-linecap="round" stroke-linejoin="round"/>
<path d="M53.1401 42.481H45.8086V60.8705H53.1401V42.481Z" stroke="url(#paint12_linear_10_66)" stroke-width="2" stroke-miterlimit="22.9256" stroke-linecap="round" stroke-linejoin="round"/>
<path d="M64.665 42.481H57.3335V60.8705H64.665V42.481Z" stroke="url(#paint13_linear_10_66)" stroke-width="2" stroke-miterlimit="22.9256" stroke-linecap="round" stroke-linejoin="round"/>
<path d="M76.197 42.481H68.8655V60.8705H76.197V42.481Z" stroke="url(#paint14_linear_10_66)" stroke-width="2" stroke-miterlimit="22.9256" stroke-linecap="round" stroke-linejoin="round"/>
<path d="M19.6905 76.8477H10.6301V89.5997H19.6905V76.8477Z" stroke="url(#paint15_linear_10_66)" stroke-width="2" stroke-miterlimit="22.9256" stroke-linecap="round" stroke-linejoin="round"/>
<path d="M32.7527 76.8477H23.6924V89.5997H32.7527V76.8477Z" stroke="url(#paint16_linear_10_66)" stroke-width="2" stroke-miterlimit="22.9256" stroke-linecap="round" stroke-linejoin="round"/>
<path d="M19.6905 96.043H10.6301V113.762H19.6905V96.043Z" stroke="url(#paint17_linear_10_66)" stroke-width="2" stroke-miterlimit="22.9256" stroke-linecap="round" stroke-linejoin="round"/>
<path d="M32.7527 96.043H23.6924V113.762H32.7527V96.043Z" stroke="url(#paint18_linear_10_66)" stroke-width="2" stroke-miterlimit="22.9256" stroke-linecap="round" stroke-linejoin="round"/>
<path d="M98.313 76.8477H89.2527V89.5997H98.313V76.8477Z" stroke="url(#paint19_linear_10_66)" stroke-width="2" stroke-miterlimit="22.9256" stroke-linecap="round" stroke-linejoin="round"/>
<path d="M111.369 76.8477H102.308V89.5997H111.369V76.8477Z" stroke="url(#paint20_linear_10_66)" stroke-width="2" stroke-miterlimit="22.9256" stroke-linecap="round" stroke-linejoin="round"/>
<path d="M98.313 96.043H89.2527V113.762H98.313V96.043Z" stroke="url(#paint21_linear_10_66)" stroke-width="2" stroke-miterlimit="22.9256" stroke-linecap="round" stroke-linejoin="round"/>
<path d="M111.369 96.043H102.308V113.762H111.369V96.043Z" stroke="url(#paint22_linear_10_66)" stroke-width="2" stroke-miterlimit="22.9256" stroke-linecap="round" stroke-linejoin="round"/>
<path d="M121 65.7075H1V72.2158H121V65.7075Z" stroke="url(#paint23_linear_10_66)" stroke-width="2" stroke-miterlimit="22.9256" stroke-linecap="round" stroke-linejoin="round"/>
<path d="M116.569 72.2168H5.43042V119H116.569V72.2168Z" stroke="url(#paint24_linear_10_66)" stroke-width="2" stroke-miterlimit="22.9256" stroke-linecap="round" stroke-linejoin="round"/>
<path fill-rule="evenodd" clip-rule="evenodd" d="M40.4812 41.1391L61.003 28.658L81.5249 41.1391V65.7079H40.4812V41.1391Z" stroke="url(#paint25_linear_10_66)" stroke-width="2" stroke-miterlimit="22.9256" stroke-linecap="round" stroke-linejoin="round"/>
<path d="M40.4818 43.2874H9.46533V65.7082H40.4818V43.2874Z" stroke="url(#paint26_linear_10_66)" stroke-width="2" stroke-miterlimit="22.9256" stroke-linecap="round" stroke-linejoin="round"/>
<path d="M112.541 43.2874H81.5244V65.7082H112.541V43.2874Z" stroke="url(#paint27_linear_10_66)" stroke-width="2" stroke-miterlimit="22.9256" stroke-linecap="round" stroke-linejoin="round"/>
<path d="M22.5393 48.4543H14.4138V62.6835H22.5393V48.4543Z" stroke="url(#paint28_linear_10_66)" stroke-width="2" stroke-miterlimit="22.9256" stroke-linecap="round" stroke-linejoin="round"/>
<path d="M35.5315 48.4543H27.406V62.6835H35.5315V48.4543Z" stroke="url(#paint29_linear_10_66)" stroke-width="2" stroke-miterlimit="22.9256" stroke-linecap="round" stroke-linejoin="round"/>
<path d="M94.594 48.4543H86.4685V62.6835H94.594V48.4543Z" stroke="url(#paint30_linear_10_66)" stroke-width="2" stroke-miterlimit="22.9256" stroke-linecap="round" stroke-linejoin="round"/>
<path d="M107.586 48.4543H99.4607V62.6835H107.586V48.4543Z" stroke="url(#paint31_linear_10_66)" stroke-width="2" stroke-miterlimit="22.9256" stroke-linecap="round" stroke-linejoin="round"/>
<path d="M36.5815 36.8304L61.0029 21.9756L85.4178 36.8304L82.4852 41.7261L61.0029 28.658L39.5142 41.7261L36.5815 36.8304Z" stroke="url(#paint32_linear_10_66)" stroke-width="2" stroke-miterlimit="22.9256" stroke-linecap="round" stroke-linejoin="round"/>
<path d="M61.0034 21.976V1" stroke="url(#paint33_linear_10_66)" stroke-width="2" stroke-miterlimit="22.9256" stroke-linecap="round" stroke-linejoin="round"/>
<path fill-rule="evenodd" clip-rule="evenodd" d="M68.4113 11.366C70.7357 10.4888 72.8487 8.3667 76.7097 7.39272C78.4065 6.96701 80.4363 6.7606 82.6582 6.6832C81.2751 6.08333 79.8792 5.57376 78.477 5.22545C75.0897 4.38693 71.6257 4.47723 69.2373 4.76749C66.849 5.05775 65.5364 5.54796 62.4309 5.14805C61.9891 5.09 61.5088 5.0126 60.9966 4.9223V11.495C63.5386 11.8692 66.0806 12.2433 68.4113 11.3725V11.366Z" stroke="url(#paint34_linear_10_66)" stroke-width="2" stroke-miterlimit="22.9256" stroke-linecap="round" stroke-linejoin="round"/>
<defs>
<linearGradient id="paint0_linear_10_66" x1="0.500003" y1="70.5" x2="121" y2="70.5" gradientUnits="userSpaceOnUse">
<stop stop-color="#4996CE"/>
<stop offset="1" stop-color="#32C060"/>
</linearGradient>
<linearGradient id="paint1_linear_10_66" x1="1" y1="71" x2="121.5" y2="71" gradientUnits="userSpaceOnUse">
<stop stop-color="#4996CE"/>
<stop offset="1" stop-color="#32C060"/>
</linearGradient>
<linearGradient id="paint2_linear_10_66" x1="1" y1="71.5" x2="121" y2="71.5" gradientUnits="userSpaceOnUse">
<stop stop-color="#4996CE"/>
<stop offset="1" stop-color="#32C060"/>
</linearGradient>
<linearGradient id="paint3_linear_10_66" x1="1.5" y1="71.5" x2="121" y2="71.5" gradientUnits="userSpaceOnUse">
<stop stop-color="#4996CE"/>
<stop offset="1" stop-color="#32C060"/>
</linearGradient>
<linearGradient id="paint4_linear_10_66" x1="1" y1="71" x2="121.5" y2="71" gradientUnits="userSpaceOnUse">
<stop stop-color="#4996CE"/>
<stop offset="1" stop-color="#32C060"/>
</linearGradient>
<linearGradient id="paint5_linear_10_66" x1="0.999995" y1="69" x2="121" y2="69" gradientUnits="userSpaceOnUse">
<stop stop-color="#4996CE"/>
<stop offset="1" stop-color="#32C060"/>
</linearGradient>
<linearGradient id="paint6_linear_10_66" x1="1.5" y1="69.5" x2="121" y2="69.5" gradientUnits="userSpaceOnUse">
<stop stop-color="#4996CE"/>
<stop offset="1" stop-color="#32C060"/>
</linearGradient>
<linearGradient id="paint7_linear_10_66" x1="1" y1="70" x2="121" y2="70" gradientUnits="userSpaceOnUse">
<stop stop-color="#4996CE"/>
<stop offset="1" stop-color="#32C060"/>
</linearGradient>
<linearGradient id="paint8_linear_10_66" x1="1" y1="72" x2="121" y2="72" gradientUnits="userSpaceOnUse">
<stop stop-color="#4996CE"/>
<stop offset="1" stop-color="#32C060"/>
</linearGradient>
<linearGradient id="paint9_linear_10_66" x1="1.5" y1="71.5" x2="121.5" y2="71.5" gradientUnits="userSpaceOnUse">
<stop stop-color="#4996CE"/>
<stop offset="1" stop-color="#32C060"/>
</linearGradient>
<linearGradient id="paint10_linear_10_66" x1="1" y1="71.5" x2="121.5" y2="71.5" gradientUnits="userSpaceOnUse">
<stop stop-color="#4996CE"/>
<stop offset="1" stop-color="#32C060"/>
</linearGradient>
<linearGradient id="paint11_linear_10_66" x1="1" y1="71" x2="122" y2="71" gradientUnits="userSpaceOnUse">
<stop stop-color="#4996CE"/>
<stop offset="1" stop-color="#32C060"/>
</linearGradient>
<linearGradient id="paint12_linear_10_66" x1="0.999998" y1="68" x2="121" y2="68" gradientUnits="userSpaceOnUse">
<stop stop-color="#4996CE"/>
<stop offset="1" stop-color="#32C060"/>
</linearGradient>
<linearGradient id="paint13_linear_10_66" x1="0.500001" y1="67" x2="121" y2="67" gradientUnits="userSpaceOnUse">
<stop stop-color="#4996CE"/>
<stop offset="1" stop-color="#32C060"/>
</linearGradient>
<linearGradient id="paint14_linear_10_66" x1="0.999997" y1="67.5" x2="121" y2="67.5" gradientUnits="userSpaceOnUse">
<stop stop-color="#4996CE"/>
<stop offset="1" stop-color="#32C060"/>
</linearGradient>
<linearGradient id="paint15_linear_10_66" x1="0.5" y1="72" x2="121.5" y2="72" gradientUnits="userSpaceOnUse">
<stop stop-color="#4996CE"/>
<stop offset="1" stop-color="#32C060"/>
</linearGradient>
<linearGradient id="paint16_linear_10_66" x1="2" y1="71.5" x2="121" y2="71.5" gradientUnits="userSpaceOnUse">
<stop stop-color="#4996CE"/>
<stop offset="1" stop-color="#32C060"/>
</linearGradient>
<linearGradient id="paint17_linear_10_66" x1="0.500002" y1="71.5" x2="121.5" y2="71.5" gradientUnits="userSpaceOnUse">
<stop stop-color="#4996CE"/>
<stop offset="1" stop-color="#32C060"/>
</linearGradient>
<linearGradient id="paint18_linear_10_66" x1="1" y1="72" x2="121.5" y2="72" gradientUnits="userSpaceOnUse">
<stop stop-color="#4996CE"/>
<stop offset="1" stop-color="#32C060"/>
</linearGradient>
<linearGradient id="paint19_linear_10_66" x1="1.5" y1="71" x2="121.5" y2="71" gradientUnits="userSpaceOnUse">
<stop stop-color="#4996CE"/>
<stop offset="1" stop-color="#32C060"/>
</linearGradient>
<linearGradient id="paint20_linear_10_66" x1="5.47947e-06" y1="71.5" x2="122" y2="71.5" gradientUnits="userSpaceOnUse">
<stop stop-color="#4996CE"/>
<stop offset="1" stop-color="#32C060"/>
</linearGradient>
<linearGradient id="paint21_linear_10_66" x1="0.999998" y1="72.5" x2="121" y2="72.5" gradientUnits="userSpaceOnUse">
<stop stop-color="#4996CE"/>
<stop offset="1" stop-color="#32C060"/>
</linearGradient>
<linearGradient id="paint22_linear_10_66" x1="1.5" y1="71.5" x2="121" y2="71.5" gradientUnits="userSpaceOnUse">
<stop stop-color="#4996CE"/>
<stop offset="1" stop-color="#32C060"/>
</linearGradient>
<linearGradient id="paint23_linear_10_66" x1="-6.27072e-08" y1="69" x2="121" y2="69" gradientUnits="userSpaceOnUse">
<stop stop-color="#4996CE"/>
<stop offset="1" stop-color="#32C060"/>
</linearGradient>
<linearGradient id="paint24_linear_10_66" x1="1.72581" y1="95.6641" x2="120.736" y2="95.6641" gradientUnits="userSpaceOnUse">
<stop stop-color="#4996CE"/>
<stop offset="1" stop-color="#32C060"/>
</linearGradient>
<linearGradient id="paint25_linear_10_66" x1="1" y1="67" x2="121.5" y2="67" gradientUnits="userSpaceOnUse">
<stop stop-color="#4996CE"/>
<stop offset="1" stop-color="#32C060"/>
</linearGradient>
<linearGradient id="paint26_linear_10_66" x1="0.5" y1="68.5" x2="121.5" y2="68.5" gradientUnits="userSpaceOnUse">
<stop stop-color="#4996CE"/>
<stop offset="1" stop-color="#32C060"/>
</linearGradient>
<linearGradient id="paint27_linear_10_66" x1="0.5" y1="68.5" x2="121.5" y2="68.5" gradientUnits="userSpaceOnUse">
<stop stop-color="#4996CE"/>
<stop offset="1" stop-color="#32C060"/>
</linearGradient>
<linearGradient id="paint28_linear_10_66" x1="0.499999" y1="67.5" x2="121.5" y2="67.5" gradientUnits="userSpaceOnUse">
<stop stop-color="#4996CE"/>
<stop offset="1" stop-color="#32C060"/>
</linearGradient>
<linearGradient id="paint29_linear_10_66" x1="0.999999" y1="68.5" x2="121.5" y2="68.5" gradientUnits="userSpaceOnUse">
<stop stop-color="#4996CE"/>
<stop offset="1" stop-color="#32C060"/>
</linearGradient>
<linearGradient id="paint30_linear_10_66" x1="0.999996" y1="69" x2="121.5" y2="69" gradientUnits="userSpaceOnUse">
<stop stop-color="#4996CE"/>
<stop offset="1" stop-color="#32C060"/>
</linearGradient>
<linearGradient id="paint31_linear_10_66" x1="1" y1="69" x2="121" y2="69" gradientUnits="userSpaceOnUse">
<stop stop-color="#4996CE"/>
<stop offset="1" stop-color="#32C060"/>
</linearGradient>
<linearGradient id="paint32_linear_10_66" x1="0.500003" y1="68" x2="121.5" y2="68" gradientUnits="userSpaceOnUse">
<stop stop-color="#4996CE"/>
<stop offset="1" stop-color="#32C060"/>
</linearGradient>
<linearGradient id="paint33_linear_10_66" x1="0.999981" y1="67" x2="122" y2="67" gradientUnits="userSpaceOnUse">
<stop stop-color="#4996CE"/>
<stop offset="1" stop-color="#32C060"/>
</linearGradient>
<linearGradient id="paint34_linear_10_66" x1="1" y1="67" x2="122" y2="67" gradientUnits="userSpaceOnUse">
<stop stop-color="#4996CE"/>
<stop offset="1" stop-color="#32C060"/>
</linearGradient>
</defs>
</svg>
