<svg width="122" height="111" viewBox="0 0 122 111" fill="none" xmlns="http://www.w3.org/2000/svg">
<path d="M115.257 1H6.74323C3.57133 1 1 3.59007 1 6.78508V88.9915C1 92.1865 3.57133 94.7766 6.74323 94.7766H115.257C118.429 94.7766 121 92.1865 121 88.9915V6.78508C121 3.59007 118.429 1 115.257 1Z" stroke="url(#paint0_linear_10_122)" stroke-width="2" stroke-miterlimit="22.9256" stroke-linecap="round" stroke-linejoin="round"/>
<path d="M1 77.1179C40.9998 77.1179 81.0001 77.1179 121 77.1179" stroke="url(#paint1_linear_10_122)" stroke-width="2" stroke-miterlimit="22.9256" stroke-linecap="round" stroke-linejoin="round"/>
<path d="M40.2942 110C54.0978 110 67.901 110 81.7046 110" stroke="url(#paint2_linear_10_122)" stroke-width="2" stroke-miterlimit="22.9256" stroke-linecap="round" stroke-linejoin="round"/>
<path d="M71.2765 94.7772H50.7224V110H71.2765V94.7772Z" stroke="url(#paint3_linear_10_122)" stroke-width="2" stroke-miterlimit="22.9256" stroke-linecap="round" stroke-linejoin="round"/>
<path d="M15.5088 13.7885C24.2743 13.7885 33.0402 13.7885 41.8062 13.7885" stroke="url(#paint4_linear_10_122)" stroke-width="2" stroke-miterlimit="22.9256" stroke-linecap="round" stroke-linejoin="round"/>
<path d="M15.5088 23.1744C24.2743 23.1744 33.0402 23.1744 41.8062 23.1744" stroke="url(#paint5_linear_10_122)" stroke-width="2" stroke-miterlimit="22.9256" stroke-linecap="round" stroke-linejoin="round"/>
<path d="M15.5088 32.5624C24.2743 32.5624 33.0402 32.5624 41.8062 32.5624" stroke="url(#paint6_linear_10_122)" stroke-width="2" stroke-miterlimit="22.9256" stroke-linecap="round" stroke-linejoin="round"/>
<path d="M15.5088 41.9504C20.9494 41.9504 26.3904 41.9504 31.8311 41.9504" stroke="url(#paint7_linear_10_122)" stroke-width="2" stroke-miterlimit="22.9256" stroke-linecap="round" stroke-linejoin="round"/>
<path d="M38.3312 49.2593H18.9837C17.0646 49.2593 15.5088 50.8264 15.5088 52.7595V64.5347C15.5088 66.4679 17.0646 68.035 18.9837 68.035H38.3312C40.2504 68.035 41.8062 66.4679 41.8062 64.5347V52.7595C41.8062 50.8264 40.2504 49.2593 38.3312 49.2593Z" stroke="url(#paint8_linear_10_122)" stroke-width="2" stroke-miterlimit="22.9256" stroke-linecap="round" stroke-linejoin="round"/>
<path d="M75.6493 47.1277H52.2349V13.7885H106.491V47.1277L92.7825 47.094" stroke="url(#paint9_linear_10_122)" stroke-width="2" stroke-miterlimit="22.9256" stroke-linecap="round" stroke-linejoin="round"/>
<path d="M92.6139 71.333L81.5171 51.7836L74.1421 57.8869L77.6294 33.0144L100.757 42.4085L91.9847 45.6963L103.082 65.2457L92.6139 71.333Z" stroke="url(#paint10_linear_10_122)" stroke-width="2" stroke-miterlimit="22.9256" stroke-linecap="round" stroke-linejoin="round"/>
<defs>
<linearGradient id="paint0_linear_10_122" x1="-3" y1="48" x2="125.5" y2="48" gradientUnits="userSpaceOnUse">
<stop stop-color="#4996CE"/>
<stop offset="1" stop-color="#32C060"/>
</linearGradient>
<linearGradient id="paint1_linear_10_122" x1="-2.99995" y1="76.9994" x2="125.5" y2="76.9994" gradientUnits="userSpaceOnUse">
<stop stop-color="#4996CE"/>
<stop offset="1" stop-color="#32C060"/>
</linearGradient>
<linearGradient id="paint2_linear_10_122" x1="-3" y1="110" x2="126" y2="110" gradientUnits="userSpaceOnUse">
<stop stop-color="#4996CE"/>
<stop offset="1" stop-color="#32C060"/>
</linearGradient>
<linearGradient id="paint3_linear_10_122" x1="-3" y1="78.5" x2="125" y2="78.5" gradientUnits="userSpaceOnUse">
<stop stop-color="#4996CE"/>
<stop offset="1" stop-color="#32C060"/>
</linearGradient>
<linearGradient id="paint4_linear_10_122" x1="-3.5" y1="14" x2="124.5" y2="14" gradientUnits="userSpaceOnUse">
<stop stop-color="#4996CE"/>
<stop offset="1" stop-color="#32C060"/>
</linearGradient>
<linearGradient id="paint5_linear_10_122" x1="-4.49999" y1="23" x2="125.5" y2="23" gradientUnits="userSpaceOnUse">
<stop stop-color="#4996CE"/>
<stop offset="1" stop-color="#32C060"/>
</linearGradient>
<linearGradient id="paint6_linear_10_122" x1="-3.00002" y1="33.0001" x2="125" y2="33.0001" gradientUnits="userSpaceOnUse">
<stop stop-color="#4996CE"/>
<stop offset="1" stop-color="#32C060"/>
</linearGradient>
<linearGradient id="paint7_linear_10_122" x1="-3.00001" y1="42" x2="125.5" y2="42" gradientUnits="userSpaceOnUse">
<stop stop-color="#4996CE"/>
<stop offset="1" stop-color="#32C060"/>
</linearGradient>
<linearGradient id="paint8_linear_10_122" x1="125" y1="49" x2="-3" y2="49" gradientUnits="userSpaceOnUse">
<stop stop-color="#32C060"/>
<stop offset="1" stop-color="#4996CE"/>
</linearGradient>
<linearGradient id="paint9_linear_10_122" x1="-4" y1="45" x2="125" y2="45" gradientUnits="userSpaceOnUse">
<stop stop-color="#4996CE"/>
<stop offset="1" stop-color="#32C060"/>
</linearGradient>
<linearGradient id="paint10_linear_10_122" x1="-4" y1="44.5" x2="125.5" y2="44.5" gradientUnits="userSpaceOnUse">
<stop stop-color="#4996CE"/>
<stop offset="1" stop-color="#32C060"/>
</linearGradient>
</defs>
</svg>
