<svg width="185" height="175" viewBox="0 0 185 175" fill="none" xmlns="http://www.w3.org/2000/svg">
<g clip-path="url(#clip0_4_48)">
<path fill-rule="evenodd" clip-rule="evenodd" d="M79.6716 2.01728C53.5941 5.32414 28.7355 22.8648 14.792 45.5434C0.848432 68.222 -2.17929 96.0385 1.34645 116.161C4.87218 136.285 14.9514 148.717 35.4984 158.575C56.0453 168.434 87.0593 175.72 108.592 172.657C130.124 169.594 142.175 156.184 155.562 141.285C168.949 126.387 183.672 110.001 184.692 89.6334C185.711 69.2656 173.026 44.9161 153.035 27.2771C133.044 9.63814 105.747 -1.29038 79.67 2.01648L79.6716 2.01728Z" fill="#EDF3FB"/>
</g>
<path d="M130.772 123.16V139H56.4685V126.472L96.5005 88.456C101.012 84.136 104.036 80.392 105.572 77.224C107.204 73.96 108.02 70.744 108.02 67.576C108.02 62.872 106.436 59.272 103.268 56.776C100.1 54.28 95.4445 53.032 89.3005 53.032C79.0285 53.032 71.1565 56.536 65.6845 63.544L52.5805 53.464C56.5165 48.184 61.7965 44.104 68.4205 41.224C75.1405 38.248 82.6285 36.76 90.8845 36.76C101.828 36.76 110.564 39.352 117.092 44.536C123.62 49.72 126.884 56.776 126.884 65.704C126.884 71.176 125.732 76.312 123.428 81.112C121.124 85.912 116.708 91.384 110.18 97.528L83.2525 123.16H130.772Z" fill="white"/>
<defs>
<clipPath id="clip0_4_48">
<rect width="184.751" height="171.936" fill="white" transform="translate(0 1.42871)"/>
</clipPath>
</defs>
</svg>
