<svg width="185" height="159" viewBox="0 0 185 159" fill="none" xmlns="http://www.w3.org/2000/svg">
<g clip-path="url(#clip0_0_1504)">
<path fill-rule="evenodd" clip-rule="evenodd" d="M85.6845 0.205323C56.6303 1.72151 24.2566 11.646 9.82434 33.06C-4.60874 54.4741 -1.10042 87.3776 7.33928 108.191C15.7782 129.004 29.1485 137.727 49.3924 146.775C69.6355 155.823 96.7523 165.196 123.316 153.618C149.879 142.039 175.889 109.51 182.945 82.4944C190.001 55.4786 178.102 33.9764 159.287 19.7788C140.471 5.58205 114.739 -1.31008 85.6853 0.20611L85.6845 0.205323Z" fill="#EDF3FB"/>
<path d="M101.913 65.4979C111.225 66.6499 118.329 69.8179 123.225 75.0019C128.121 80.1859 130.569 86.6659 130.569 94.4419C130.569 100.298 129.081 105.626 126.105 110.426C123.129 115.226 118.617 119.066 112.569 121.946C106.617 124.73 99.3213 126.122 90.6813 126.122C83.4813 126.122 76.5213 125.114 69.8013 123.098C63.1773 120.986 57.5133 118.106 52.8093 114.458L60.8733 99.9139C64.5213 102.986 68.9373 105.434 74.1213 107.258C79.4013 108.986 84.8253 109.85 90.3933 109.85C97.0173 109.85 102.201 108.506 105.945 105.818C109.785 103.034 111.705 99.2899 111.705 94.5859C111.705 89.8819 109.881 86.2339 106.233 83.6419C102.681 80.9539 97.2093 79.6099 89.8173 79.6099H80.6013V66.7939L103.497 39.5779H57.7053V23.8819H126.393V36.4099L101.913 65.4979Z" fill="white"/>
</g>
<defs>
<clipPath id="clip0_0_1504">
<rect width="185" height="159" fill="white"/>
</clipPath>
</defs>
</svg>
