<svg width="184" height="195" viewBox="0 0 184 195" fill="none" xmlns="http://www.w3.org/2000/svg">
<g clip-path="url(#clip0_16_1931)">
<path d="M92 195C142.81 195 184 153.606 184 102.545C184 51.4834 142.81 10.0899 92 10.0899C41.1898 10.0899 0 51.4834 0 102.545C0 153.606 41.1898 195 92 195Z" fill="#EAF4FB"/>
<path d="M130.95 179.004C131.171 179.004 131.352 178.826 131.356 178.604C131.36 178.406 131.769 158.838 136.079 145.709C140.367 132.646 143.344 107.096 142.574 100.238C141.9 94.2523 144.271 69.1763 149.419 63.4684C150.094 62.7194 150.783 62.3448 151.48 62.355C151.714 62.356 151.89 62.1779 151.895 61.9511C151.897 61.725 151.718 61.539 151.493 61.5357C150.555 61.5275 149.653 61.9873 148.814 62.9183C143.18 69.1642 141.163 95.0049 141.762 100.33C142.446 106.411 139.83 131.666 135.305 145.452C130.956 158.7 130.545 178.391 130.541 178.588C130.537 178.814 130.716 179.001 130.942 179.005H130.95V179.005V179.004Z" fill="#DCE5FE"/>
<path fill-rule="evenodd" clip-rule="evenodd" d="M147.752 182.768C147.73 182.768 147.71 182.768 147.687 182.768L35.8116 181.825C33.7544 181.808 31.9126 180.911 30.6324 179.496C29.4489 178.187 28.7452 176.434 28.7959 174.523L29.5235 146.99L29.8296 135.425L30.0997 125.205L30.4797 110.84L30.6713 103.601L30.8064 98.4844C34.0964 98.5662 36.3345 98.629 36.6893 98.6563C36.6935 98.6566 36.6971 98.6566 36.7014 98.6566C37.0896 98.6569 37.3799 97.1725 37.5967 94.9129L39.3329 94.5326L37.7318 172.328C37.702 173.768 38.7511 175.001 40.1716 175.189C50.0539 176.497 67.5284 176.908 85.6101 176.908C110.231 176.908 135.974 176.146 145.174 175.845C147.124 175.78 148.656 174.146 148.605 172.186L144.827 29.199C144.783 27.5108 143.405 26.1858 141.745 26.1858C141.692 26.1858 141.638 26.1871 141.587 26.1901C137.021 26.4198 132.343 26.5233 127.624 26.5233C99.5768 26.5233 70.0549 22.8762 53.7112 20.4848L88.5601 21.4154L141.921 22.8401C147.304 22.9837 151.631 27.3416 151.761 32.7508L152.485 62.6849L153.231 93.5215L153.443 102.182L153.92 121.949L154.14 131.003L154.473 144.847L154.583 149.394L154.846 160.252L155.206 175.095C155.258 177.312 154.35 179.322 152.867 180.729C151.532 181.993 149.733 182.77 147.752 182.77V182.769L147.752 182.768ZM38.1988 79.4325C38.2285 76.9806 38.2361 74.9122 38.2374 73.7196C38.2377 73.1064 37.6291 72.5924 36.8574 72.552L31.499 72.274L32.5775 31.457C32.7184 26.1234 36.4417 21.7313 41.3711 20.5452C41.0343 21.0543 40.8315 21.6649 40.8175 22.3284L39.721 75.6214L38.1988 79.4322V79.4325Z" fill="#015281"/>
<path fill-rule="evenodd" clip-rule="evenodd" d="M52.2259 179.889H52.2135L39.706 179.392C35.4996 179.224 32.1687 175.65 32.2802 171.42L32.7821 152.436C32.7867 152.262 32.9319 152.136 33.1013 152.131C33.273 152.135 33.4087 152.28 33.4041 152.452L32.9025 171.437C32.8001 175.325 35.8626 178.614 39.7302 178.767L52.2383 179.264C52.41 179.271 52.5438 179.415 52.5369 179.589C52.5304 179.757 52.3924 179.889 52.2262 179.889L52.2256 179.889L52.2259 179.889Z" fill="#1374B8"/>
<path fill-rule="evenodd" clip-rule="evenodd" d="M44.6858 19.0894C57.9611 21.261 103.629 28.0998 141.586 26.1891C143.317 26.102 144.781 27.4573 144.827 29.1984L148.604 172.185C148.655 174.146 147.124 175.78 145.173 175.844C129.216 176.366 63.5082 178.277 40.171 175.188C38.7508 175 37.7015 173.767 37.7312 172.327L40.8175 22.329C40.8594 20.2915 42.6838 18.7624 44.6854 19.0898V19.0894H44.6858Z" fill="#1374B8"/>
<path d="M138.737 33.183C140.351 33.1018 141.717 34.3657 141.76 35.9891L145.283 169.325C145.331 171.153 143.901 172.678 142.083 172.736C127.203 173.222 65.9297 175.005 44.1681 172.125C42.8434 171.95 41.8649 170.799 41.8924 169.457L44.7708 35.3007C44.7799 34.8547 46.724 32.1169 48.1906 31.9986C60.5808 31.0032 129.254 33.6595 138.737 33.1823V33.1827L138.737 33.183Z" fill="white"/>
<path fill-rule="evenodd" clip-rule="evenodd" d="M94.6163 10.4186C93.0912 10.3778 91.8881 9.10273 91.9286 7.57133C91.9692 6.03926 93.238 4.83024 94.7628 4.87066C96.2864 4.91141 97.4898 6.18649 97.4492 7.71855C97.4087 9.25062 96.1399 10.4593 94.6163 10.4186ZM99.702 2.31623C96.2425 -0.241815 93.1768 -0.275007 91.0029 0.307323C89.0199 0.838058 87.6935 2.71354 87.8273 4.77174L88.4878 15.0006L99.5323 16.2836C99.5323 16.2836 106.486 7.33241 99.7023 2.31623H99.702Z" fill="#DCC714"/>
<path d="M89.3063 7.78953C89.1154 7.71329 88.9741 7.53255 88.9613 7.31269L88.8815 6.07607C88.7455 3.98073 90.1059 2.07041 92.116 1.53212C93.4908 1.16373 94.8992 1.14302 96.3017 1.47067C96.5921 1.54362 96.7818 1.83577 96.7125 2.13252C96.6431 2.42895 96.3488 2.61364 96.0532 2.54462C94.8289 2.2574 93.5984 2.27581 92.3989 2.5972C90.8936 2.99977 89.8747 4.43259 89.9754 6.00508L90.0568 7.24237C90.0751 7.54602 89.8466 7.80794 89.5441 7.82765C89.4604 7.83258 89.3806 7.81944 89.3076 7.79019L89.3067 7.78921L89.3063 7.78953ZM89.5117 10.9818C89.3207 10.9056 89.1811 10.7248 89.1664 10.505L89.0617 8.87598C89.0421 8.57233 89.2713 8.31041 89.5735 8.29069C89.8757 8.27032 90.1373 8.50036 90.1569 8.805L90.2615 10.434C90.2812 10.7377 90.0526 10.9996 89.7501 11.0193C89.666 11.0249 89.5853 11.0111 89.512 10.9818H89.5117Z" fill="#EFE796"/>
<path fill-rule="evenodd" clip-rule="evenodd" d="M73.204 21.192L73.34 16.0618C73.3874 14.2908 74.8848 12.9112 76.6441 13.019L111.811 15.1702C113.371 15.2658 114.603 16.5386 114.656 18.1091L114.819 23.0464L73.2043 21.1917V21.192H73.204Z" fill="#DCC714"/>
<path fill-rule="evenodd" clip-rule="evenodd" d="M86.5033 15.2602H86.4941L84.981 15.2202C84.8097 15.2156 84.6736 15.0719 84.6789 14.8994C84.6831 14.7269 84.8267 14.5889 84.998 14.5948L86.5111 14.6349C86.6825 14.6395 86.8185 14.7834 86.8146 14.9563C86.8097 15.1262 86.6707 15.2609 86.5033 15.2609V15.2606V15.2602Z" fill="#EFE796"/>
<path fill-rule="evenodd" clip-rule="evenodd" d="M74.9564 19.8758C74.7485 19.7927 74.6046 19.5863 74.6114 19.3487L74.6667 17.2731C74.6886 16.421 75.0392 15.6286 75.6553 15.042C76.2713 14.4554 77.0771 14.1442 77.926 14.1669L83.4898 14.3154C83.792 14.3246 84.0313 14.5767 84.0235 14.8813C84.0156 15.186 83.7635 15.4255 83.4607 15.4183L77.8956 15.2691C76.7501 15.2386 75.7926 16.1505 75.7622 17.3023L75.7076 19.378C75.6997 19.6826 75.4473 19.9222 75.1438 19.9143C75.0784 19.9123 75.0156 19.8985 74.9568 19.8755L74.9564 19.8758Z" fill="#EFE796"/>
<path fill-rule="evenodd" clip-rule="evenodd" d="M62.2253 19.0197L123.774 20.6612C125.989 20.7204 127.838 22.3718 128.157 24.5732L128.202 24.8769C128.552 27.2884 126.655 29.4346 124.231 29.3699L61.0847 27.684C59.6328 27.6453 58.5095 26.3952 58.6174 24.941L58.8283 22.1046C58.9601 20.3306 60.4555 18.9728 62.225 19.0201L62.2256 19.0197H62.2253Z" fill="#DCC714"/>
<path fill-rule="evenodd" clip-rule="evenodd" d="M131.791 40.4361C131.789 40.4361 131.788 40.4361 131.788 40.4361L51.3907 40.2728C50.4914 40.2708 49.7622 39.5347 49.7622 38.628V38.491C49.7625 37.5866 50.4888 36.8554 51.3855 36.8554C51.3878 36.8554 51.3901 36.8554 51.392 36.8554L131.819 37.1758C132.636 37.1791 133.292 37.882 133.282 38.746L133.281 38.8761C133.273 39.7385 132.606 40.4365 131.79 40.4365H131.791V40.4361Z" fill="#D6E5FD"/>
<path fill-rule="evenodd" clip-rule="evenodd" d="M51.3839 47.4106C50.4872 47.4106 49.7606 46.6794 49.7606 45.775V45.638C49.7609 44.7326 50.4905 43.9982 51.3891 43.9982L131.754 43.9903C132.571 43.9903 133.226 44.6893 133.218 45.5516L133.216 45.6817C133.207 46.544 132.539 47.244 131.723 47.2457L51.3875 47.41C51.3865 47.41 51.3852 47.41 51.3839 47.41L51.3842 47.4103L51.3839 47.4106Z" fill="#D6E5FD"/>
<path fill-rule="evenodd" clip-rule="evenodd" d="M79.2145 98.7447C78.9271 98.7447 78.4755 98.6675 78.2077 98.5725L76.8028 97.4972C76.638 97.2599 76.4418 96.8377 76.3672 96.5583L76.3345 96.4351C76.26 96.1558 76.1923 95.6911 76.1838 95.4019C76.1838 95.4019 76.1612 94.4998 76.5984 93.9362C77.0366 93.3726 77.9127 93.1764 77.9127 93.1764C78.1795 93.1169 78.6122 93.0713 78.9016 93.0713C78.9173 93.0713 78.932 93.0713 78.9461 93.0716L133.969 94.0818C134.256 94.0874 134.706 94.1892 134.968 94.3085C134.968 94.3085 136.481 94.9977 136.512 96.1029C136.527 96.7141 136.298 97.3069 135.876 97.7463C135.453 98.1857 134.774 98.3303 134.774 98.3303C134.492 98.3898 134.026 98.4401 133.738 98.442L79.223 98.745C79.2204 98.745 79.2181 98.745 79.2139 98.745L79.2145 98.7447Z" fill="#D6E5FD"/>
<path fill-rule="evenodd" clip-rule="evenodd" d="M79.2145 74.3335C78.9271 74.3335 78.4755 74.2563 78.2077 74.1613L76.8028 73.086C76.638 72.8488 76.4418 72.4265 76.3672 72.1471L76.3345 72.0239C76.26 71.7446 76.1923 71.2799 76.1838 70.9907C76.1838 70.9907 76.1612 70.0886 76.5984 69.525C77.0366 68.9614 77.9127 68.7652 77.9127 68.7652C78.1795 68.7057 78.6122 68.6601 78.9016 68.6601C78.9173 68.6601 78.932 68.6604 78.9461 68.6604L133.969 69.6706C134.256 69.6755 134.706 69.7781 134.968 69.8967C134.968 69.8967 136.481 70.5858 136.512 71.691C136.527 72.3022 136.298 72.8951 135.876 73.3345C135.453 73.7738 134.774 73.9184 134.774 73.9184C134.492 73.9779 134.026 74.0282 133.738 74.0302L79.223 74.3332C79.2204 74.3335 79.2181 74.3335 79.2139 74.3335H79.2145Z" fill="#D6E5FD"/>
<path fill-rule="evenodd" clip-rule="evenodd" d="M66.3143 135.707L54.8466 135.661C53.1943 135.653 51.8241 134.518 51.6596 133.019L50.5981 123.355C50.5353 122.781 50.7096 122.212 51.0896 121.752C51.5141 121.239 52.1589 120.914 52.8581 120.863C53.8251 120.79 55.1566 120.67 56.6217 120.536C59.2731 120.294 62.2178 120.026 64.3574 119.92L63.932 120.884C61.8247 121.005 59.0445 121.259 56.706 121.472C55.2348 121.607 53.898 121.728 52.9274 121.8C52.4794 121.834 52.072 122.036 51.8087 122.353C51.5922 122.614 51.4928 122.933 51.5275 123.252L52.5886 132.914C52.7011 133.939 53.6733 134.715 54.8496 134.72L66.3172 134.767H66.3391C67.4353 134.76 68.3391 133.981 68.3584 133.018C68.446 128.612 68.4765 124.485 67.8996 122.386C67.7387 121.801 67.2822 121.312 66.6978 121.042C66.7567 120.718 66.809 120.401 66.8535 120.092C67.8015 120.441 68.5392 121.182 68.8009 122.136C69.4117 124.356 69.3829 128.56 69.2943 133.037C69.2646 134.506 67.9447 135.697 66.3447 135.707H66.3133L66.3139 135.707H66.3143Z" fill="#1A9D40"/>
<path fill-rule="evenodd" clip-rule="evenodd" d="M64.9228 77.3927L53.4552 77.3467C51.8028 77.3388 50.4329 76.2031 50.2681 74.7049L49.2066 65.0409C49.1439 64.4668 49.3181 63.8973 49.6981 63.4372C50.1226 62.9242 50.7675 62.5998 51.4666 62.5486C52.4336 62.4759 53.7652 62.3557 55.2302 62.2213C57.8816 61.9794 60.8263 61.7115 62.966 61.6051L62.5405 62.5699C60.4333 62.6909 57.653 62.9442 55.3146 63.1575C53.8433 63.2929 52.5065 63.4138 51.5359 63.4858C51.0879 63.52 50.6805 63.7211 50.4172 64.0389C50.2008 64.2992 50.1013 64.6186 50.136 64.938L51.1975 74.6C51.31 75.624 52.2822 76.4009 53.4584 76.4052L64.9261 76.4522H64.948C66.0444 76.4456 66.948 75.6661 66.9673 74.7039C67.0549 70.2979 67.085 66.1704 66.5085 64.0714C66.3476 63.4865 65.8911 62.9978 65.3064 62.728C65.3652 62.4033 65.4176 62.0868 65.462 61.7779C66.41 62.1266 67.1478 62.8673 67.4094 63.822C68.0202 66.0419 67.9915 70.2454 67.9028 74.7223C67.8731 76.1916 66.5533 77.3829 64.9532 77.3921H64.9218L64.9225 77.3927H64.9228Z" fill="#1A9D40"/>
<path fill-rule="evenodd" clip-rule="evenodd" d="M79.2145 131.338C78.9271 131.338 78.4755 131.262 78.2077 131.166L76.8028 130.091C76.638 129.855 76.4418 129.431 76.3672 129.152L76.3345 129.03C76.26 128.75 76.1923 128.285 76.1838 127.997C76.1838 127.997 76.1612 127.094 76.5984 126.531C77.0366 125.967 77.9127 125.771 77.9127 125.771C78.1795 125.711 78.6109 125.667 78.9003 125.667C78.916 125.667 78.932 125.667 78.9457 125.667L133.968 126.676C134.256 126.681 134.706 126.784 134.968 126.903C134.968 126.903 136.481 127.592 136.511 128.698C136.527 129.309 136.298 129.9 135.876 130.34C135.452 130.779 134.774 130.924 134.774 130.924C134.492 130.984 134.026 131.034 133.738 131.036L79.2227 131.338C79.2201 131.338 79.2178 131.338 79.2136 131.338H79.2139L79.2145 131.338Z" fill="#D6E5FD"/>
<path fill-rule="evenodd" clip-rule="evenodd" d="M60.0451 133.908C60.0451 133.908 60.0033 133.892 59.9271 133.856C59.3097 133.566 56.3715 131.956 53.932 126.65C53.536 125.789 53.8492 124.762 54.6605 124.279C54.9428 124.109 55.2521 124.029 55.5582 124.029C56.1713 124.029 56.7678 124.352 57.0925 124.928L59.377 128.989C59.4856 129.184 59.6766 129.278 59.8672 129.278C60.0781 129.278 60.2871 129.164 60.3855 128.94L63.4379 122.007L63.9323 120.884L64.3577 119.92L65.9261 116.359C66.0396 116.1 66.2645 115.983 66.4899 115.983C66.809 115.983 67.1285 116.22 67.1242 116.623C67.1151 117.586 67.0471 118.767 66.8551 120.093C66.8106 120.402 66.7583 120.718 66.6995 121.043C66.587 121.66 66.446 122.302 66.2717 122.965C65.3718 126.386 63.5788 130.312 60.0955 133.856C60.0785 133.873 60.0615 133.89 60.0458 133.907V133.908H60.0451Z" fill="#1A9D40"/>
<path fill-rule="evenodd" clip-rule="evenodd" d="M58.6536 75.5932C58.6536 75.5932 58.6118 75.5774 58.5356 75.5419C57.9182 75.2514 54.98 73.6414 52.5405 68.3347C52.1445 67.4737 52.4578 66.4471 53.2691 65.9637C53.5513 65.7941 53.8606 65.7139 54.1667 65.7139C54.7799 65.7139 55.3763 66.037 55.7004 66.6127L57.9849 70.6742C58.0935 70.8685 58.2844 70.9631 58.4751 70.9631C58.686 70.9631 58.895 70.8491 58.9934 70.6253L62.0457 63.6919L62.5402 62.5693L62.9656 61.6044L64.5339 58.0437C64.6474 57.7848 64.8724 57.6674 65.0977 57.6674C65.4169 57.6674 65.7364 57.905 65.7321 58.3076C65.7229 59.2712 65.6549 60.4516 65.4623 61.7776C65.4178 62.0865 65.3655 62.403 65.3067 62.7277C65.1942 63.3452 65.0532 63.987 64.8789 64.6495C63.979 68.0712 62.186 71.997 58.7027 75.5406C58.6857 75.5577 58.6687 75.5748 58.653 75.5918L58.654 75.5928L58.6536 75.5932Z" fill="#1A9D40"/>
<path fill-rule="evenodd" clip-rule="evenodd" d="M66.3143 160.416L54.8466 160.368C53.1943 160.362 51.8241 159.226 51.6596 157.726L50.5981 148.064C50.5353 147.489 50.7096 146.919 51.0896 146.461C51.5141 145.947 52.1589 145.624 52.8581 145.571C53.8251 145.5 55.1566 145.378 56.6217 145.245C59.2731 145.003 62.2178 144.734 64.3574 144.629L63.932 145.594C61.8247 145.715 59.0445 145.968 56.706 146.181C55.2348 146.316 53.898 146.438 52.9274 146.51C52.4794 146.543 52.072 146.744 51.8087 147.062C51.5922 147.323 51.4928 147.643 51.5275 147.961L52.5886 157.624C52.7011 158.648 53.6733 159.424 54.8496 159.429L66.3172 159.475H66.3391C67.4353 159.469 68.3391 158.688 68.3584 157.728C68.446 153.322 68.4765 149.193 67.8996 147.094C67.7387 146.509 67.2822 146.021 66.6978 145.751C66.7567 145.428 66.809 145.11 66.8535 144.801C67.8015 145.149 68.5392 145.891 68.8009 146.845C69.4117 149.065 69.3829 153.268 69.2943 157.746C69.2646 159.214 67.9447 160.407 66.3447 160.416H66.3133L66.3139 160.415L66.3143 160.416Z" fill="#1A9D40"/>
<path fill-rule="evenodd" clip-rule="evenodd" d="M64.9228 102.101L53.4552 102.053C51.8028 102.047 50.4329 100.911 50.2681 99.4115L49.2066 89.7495C49.1439 89.1737 49.3181 88.6045 49.6981 88.1458C50.1226 87.6318 50.7675 87.3084 51.4666 87.2558C52.4336 87.1849 53.7652 87.0629 55.2302 86.9298C57.8816 86.6883 60.8263 86.4185 62.966 86.3137L62.5405 87.2785C60.4333 87.3995 57.653 87.6528 55.3146 87.8661C53.8433 88.0005 52.5065 88.1224 51.5359 88.1947C51.0879 88.2276 50.6805 88.4287 50.4172 88.7468C50.2008 89.0081 50.1013 89.3282 50.136 89.6456L51.1975 99.3089C51.31 100.333 52.2822 101.109 53.4584 101.113L64.9261 101.159H64.948C66.0444 101.154 66.948 100.373 66.9673 99.4125C67.0549 95.0065 67.085 90.8783 66.5085 88.779C66.3476 88.1941 65.8911 87.7061 65.3064 87.4356C65.3652 87.1126 65.4176 86.7944 65.462 86.4855C66.41 86.8342 67.1478 87.5762 67.4094 88.5296C68.0202 90.7495 67.9915 94.953 67.9028 99.4312C67.8731 100.899 66.5533 102.092 64.9532 102.101H64.9218L64.9225 102.1L64.9228 102.101Z" fill="#1A9D40"/>
<path fill-rule="evenodd" clip-rule="evenodd" d="M64.9002 158.585C64.8976 158.585 64.8937 158.585 64.8911 158.585L60.0948 158.565C63.5778 155.02 65.3711 151.095 66.2711 147.673C66.3796 147.838 66.465 148.021 66.5183 148.215C67.0062 149.994 66.963 153.543 66.8973 156.82C66.878 157.797 65.9908 158.585 64.9006 158.585L64.9002 158.585ZM59.927 158.563L55.7269 158.546C54.6 158.542 53.6602 157.775 53.55 156.769L52.7021 149.049C52.6144 148.249 53.2717 147.538 54.1641 147.473C56.3237 147.311 60.755 146.842 63.4375 146.715L60.3852 153.648C60.2868 153.871 60.0778 153.986 59.8669 153.986C59.6759 153.986 59.4852 153.891 59.3767 153.698L57.0922 149.636C56.7678 149.059 56.171 148.737 55.5578 148.737C55.2524 148.737 54.9427 148.817 54.6602 148.986C53.8489 149.47 53.5356 150.497 53.9316 151.358C56.3714 156.663 59.3093 158.273 59.9267 158.563H59.927Z" fill="url(#paint0_linear_16_1931)"/>
<path fill-rule="evenodd" clip-rule="evenodd" d="M79.2145 156.047C78.9271 156.047 78.4755 155.969 78.2077 155.874L76.8028 154.799C76.638 154.562 76.4418 154.14 76.3672 153.86L76.3345 153.737C76.26 153.459 76.1923 152.993 76.1838 152.704C76.1838 152.704 76.1612 151.802 76.5984 151.238C77.0366 150.674 77.9127 150.479 77.9127 150.479C78.1795 150.42 78.6109 150.374 78.9003 150.374C78.916 150.374 78.932 150.374 78.9457 150.374L133.968 151.385C134.256 151.39 134.706 151.492 134.968 151.611C134.968 151.611 136.481 152.3 136.511 153.405C136.527 154.016 136.298 154.609 135.876 155.048C135.452 155.488 134.774 155.631 134.774 155.631C134.492 155.692 134.026 155.742 133.738 155.743L79.2227 156.047C79.2201 156.047 79.2162 156.047 79.2136 156.047L79.2139 156.046L79.2145 156.047Z" fill="#D6E5FD"/>
<path fill-rule="evenodd" clip-rule="evenodd" d="M60.0451 158.615C60.0451 158.615 60.0033 158.6 59.9271 158.564C59.3097 158.273 56.3715 156.663 53.932 151.359C53.536 150.498 53.8492 149.471 54.6605 148.986C54.9428 148.818 55.2521 148.738 55.5582 148.738C56.1713 148.738 56.7678 149.06 57.0925 149.637L59.377 153.698C59.4856 153.892 59.6766 153.986 59.8672 153.986C60.0781 153.986 60.2871 153.872 60.3855 153.649L63.4378 146.715L63.9323 145.594L64.3577 144.629L65.9261 141.067C66.0395 140.808 66.2645 140.691 66.4882 140.691C66.8087 140.691 67.1282 140.929 67.1239 141.333C67.1148 142.296 67.0467 143.477 66.8548 144.802C66.8103 145.111 66.758 145.429 66.6991 145.752C66.5866 146.37 66.4457 147.012 66.2714 147.674C65.3715 151.097 63.5785 155.021 60.0951 158.566C60.0781 158.583 60.0611 158.6 60.0454 158.617V158.616L60.0451 158.615Z" fill="#1A9D40"/>
<path fill-rule="evenodd" clip-rule="evenodd" d="M58.6536 100.3C58.6536 100.3 58.6118 100.286 58.5356 100.249C57.9182 99.9586 54.98 98.3487 52.5405 93.0433C52.1445 92.1823 52.4578 91.1557 53.2691 90.6709C53.5513 90.5024 53.8606 90.4225 54.1667 90.4225C54.7799 90.4225 55.3763 90.7442 55.7004 91.3213L57.9849 95.3828C58.0935 95.5764 58.2844 95.671 58.4751 95.671C58.686 95.671 58.895 95.557 58.9934 95.3332L62.0457 88.3998L62.5402 87.2785L62.9656 86.3137L64.5339 82.7517C64.6474 82.4927 64.8724 82.376 65.0961 82.376C65.4165 82.376 65.736 82.6136 65.7318 83.0178C65.7226 83.9801 65.6546 85.1618 65.462 86.4865C65.4175 86.7954 65.3652 87.1135 65.3063 87.4366C65.1939 88.0541 65.0529 88.6969 64.8786 89.3584C63.9787 92.7811 62.1857 96.7059 58.7024 100.251C58.6854 100.268 58.6683 100.285 58.6527 100.301L58.6536 100.301V100.3Z" fill="#1A9D40"/>
<path fill-rule="evenodd" clip-rule="evenodd" d="M31.4986 72.2743L30.806 98.4844C34.0961 98.5662 36.3342 98.629 36.689 98.6563C36.6932 98.6566 36.6968 98.6566 36.7011 98.6566C37.0892 98.6566 37.3796 97.1725 37.5964 94.9129L39.3319 94.5327L39.721 75.6227L38.1988 79.4335C38.2285 76.9816 38.2361 74.9132 38.2374 73.7206C38.2377 73.1074 37.6298 72.5934 36.8574 72.553L31.499 72.275V72.2747L31.4986 72.2743Z" fill="#015281"/>
</g>
<defs>
<linearGradient id="paint0_linear_16_1931" x1="52.8139" y1="152.617" x2="66.7701" y2="152.617" gradientUnits="userSpaceOnUse">
<stop stop-color="#D7E1FE"/>
<stop offset="1" stop-color="#E4ECFD"/>
</linearGradient>
<clipPath id="clip0_16_1931">
<rect width="184" height="195" fill="white"/>
</clipPath>
</defs>
</svg>
