<svg width="184" height="175" viewBox="0 0 184 175" fill="none" xmlns="http://www.w3.org/2000/svg">
<g clip-path="url(#clip0_16_2047)">
<path fill-rule="evenodd" clip-rule="evenodd" d="M87.2163 0.238045C57.6433 1.99274 24.6902 13.4781 9.99944 38.2607C-4.69125 63.0434 -1.12027 101.122 7.46993 125.209C16.0601 149.297 29.6688 159.391 48.8786 166.119C68.0878 172.846 92.8966 176.206 116.014 174.606C139.13 173.005 160.554 166.445 172.106 151.777C183.659 137.108 185.34 114.331 183.206 90.0893C181.072 65.8475 175.124 40.1419 159.053 23.3003C142.982 6.45945 116.789 -1.51663 87.2157 0.238072L87.2164 0.238019L87.2163 0.238045Z" fill="#EAF4FB"/>
<path d="M47.1034 166.986H45.9095L50.3596 143.794L51.3526 143.983L47.1034 166.986Z" fill="#0E2E35"/>
<path d="M47.9475 90.0178C48.0352 87.8824 47.7238 85.7726 46.7786 83.7836C45.9651 82.0725 43.952 81.1016 42.1163 81.0994C36.2864 81.0916 35.5449 88.8762 31.8343 91.879C30.7002 92.7963 29.4329 93.5437 28.3602 94.5338C24.3981 98.1875 26.1825 104.951 29.8212 108.153C32.3458 110.377 36.3135 111.64 39.425 109.901C41.0492 108.995 42.2822 107.487 43.1606 105.835C44.4072 103.491 45.2107 100.784 46.0976 98.2861C47.0415 95.627 47.8322 92.8578 47.949 90.0179H47.9475V90.0178Z" fill="#0E2E35"/>
<path d="M35.4451 90.8994C35.4451 90.8994 31.1632 83.1763 30.1218 81.5345C29.0803 79.8927 26.3663 73.3684 26.2694 73.1119C26.1725 72.8547 28.1386 69.7676 27.6998 69.6619C27.486 69.6104 27.2617 69.9948 27.0337 70.3784C26.7929 70.7835 26.5479 71.1886 26.3078 71.0829C25.8398 70.8757 24.4721 66.7026 24.2057 66.9098C23.7063 67.297 24.943 69.4982 24.6765 69.6368C24.5419 69.7068 24.2691 69.086 23.9649 68.4658C23.6679 67.8593 23.3401 67.2534 23.0823 67.2906C22.5595 67.3663 24.0761 69.6375 23.93 69.8383C23.8609 69.9333 23.4705 69.5025 23.0488 69.071C22.5808 68.593 22.0743 68.1144 21.9248 68.3544C21.7702 68.6023 23.3722 70.2227 23.0645 70.3742C22.9199 70.4456 22.5274 70.252 22.1371 70.0577C21.6976 69.8398 21.2609 69.6219 21.1804 69.7812C21.0294 70.0826 22.4983 70.4956 22.9378 71.3094C23.3773 72.1224 24.1253 72.4746 24.4358 73.98C24.7465 75.486 25.2109 80.9358 26.8022 83.6549C28.3936 86.3741 31.8926 92.3919 31.8926 92.3919L35.4465 90.8994L35.4451 90.8994Z" fill="#FFB27D"/>
<path d="M58.102 119.321L51.4451 114.211C51.4451 114.211 50.7755 109.443 49.8787 105.212C48.7553 105.531 47.7416 106.418 46.6168 106.727L48.31 116.201L57.0349 120.732L59.4996 123.919L60.0602 120.646L58.1019 119.321L58.102 119.321H58.102Z" fill="#FFB27D"/>
<path d="M48.8992 100.362C47.0784 94.8031 45.0419 95.0403 45.0419 95.0403L46.6161 106.727C47.7409 106.418 49.2048 105.729 50.3282 105.41C49.9557 103.653 49.3473 101.732 48.8985 100.362H48.8992V100.362Z" fill="#24AC6D"/>
<path d="M29.7244 158.792C29.7244 158.792 29.314 161.665 28.6067 162.592C28.3695 162.904 27.9364 163.298 27.6522 163.86C27.2098 164.736 27.4541 166.039 27.7811 166.757C27.9485 167.126 27.7697 167.125 28.1508 167.244C29.2806 167.596 30.483 167.003 30.9646 165.912C31.2331 165.302 31.4689 164.489 31.5166 163.463C31.637 160.854 32.4419 159.528 32.4419 159.528L29.7244 158.794V158.792L29.7244 158.792Z" fill="#FFB27D"/>
<path d="M42.0856 160.106C42.0856 160.106 42.3392 163.346 42.1333 164.399C42.0229 164.962 41.4096 166.124 41.691 166.654C41.9723 167.185 42.2943 167.318 42.2943 167.318L49.5909 167.436C49.9884 167.443 49.7255 167.185 49.405 166.948C48.8807 166.558 48.4568 166.301 46.7814 165.483C46.6724 165.43 46.2742 165.174 46.1303 165.087C45.7663 164.862 45.4009 164.51 45.0867 164.156C44.5624 163.568 44.5169 160.714 44.5169 160.714L42.0849 160.106L42.0856 160.106Z" fill="#FFB27D"/>
<path d="M47.7894 117.037C47.7894 117.037 48.7083 122.296 48.105 125.746C47.5016 129.195 44.6059 161.164 44.6059 161.164L41.3875 161.346C41.3875 161.346 40.7129 147.992 40.834 146.134C40.9544 144.278 41.9097 141.171 41.9097 141.171L41.5898 130.389L45.6509 116.224L47.7901 117.036L47.7894 117.037V117.037Z" fill="#2678BA"/>
<path d="M38.3308 115.93C38.3308 115.93 35.797 119.776 35.1937 122.96C34.5903 126.144 35.6367 135.928 34.4756 140.1C33.8473 142.359 31.4659 145.846 31.1041 148.764C30.7422 151.682 29.3218 159.327 29.3218 159.327L32.538 159.97L40.0134 140.878L45.8774 123.623L47.3791 114.736L38.3294 115.93L38.3308 115.93L38.3308 115.93Z" fill="#3389C7"/>
<path d="M40.3824 94.043C40.3824 94.043 37.0273 93.8272 35.7002 95.2861C34.373 96.745 38.6443 108.287 38.8858 110.145C39.1272 112.003 37.6555 116.939 37.6555 116.939C37.6555 116.939 45.537 118.54 47.7893 117.037C47.7893 117.037 48.0308 103.682 47.7893 102.355C47.5479 101.029 45.5369 95.6333 45.054 95.1032C44.571 94.5724 40.3824 94.0423 40.3824 94.0423L40.3824 94.0429V94.043Z" fill="#60B682"/>
<path d="M41.4994 89.5213C41.4994 89.5213 41.4823 89.6206 41.451 89.7906C41.3014 90.6044 40.7251 93.3036 40.3361 94.0452C39.866 94.9411 41.9461 97.801 43.9485 97.4523C44.5447 97.3488 43.4448 94.8246 43.4976 94.5574C43.5987 94.0459 43.7362 93.3472 43.8765 92.632C43.9556 92.2283 44.0361 91.8183 44.1109 91.4339C44.3253 90.3408 44.4998 89.4463 44.4998 89.4463L41.4994 89.522V89.5213L41.4994 89.5213Z" fill="#FFB27D"/>
<path d="M41.4509 89.7899C41.4823 89.6206 41.4994 89.5205 41.4994 89.5205L44.4998 89.4448C44.4998 89.4448 44.3253 90.3393 44.1108 91.4324C44.0361 91.8153 43.9563 92.2226 43.8772 92.6241C43.4141 92.5548 42.9298 92.3283 42.4447 91.8996C41.9154 91.4324 41.5692 90.8709 41.3597 90.2721C41.3968 90.0807 41.4274 89.9156 41.4509 89.7899H41.4509Z" fill="#ED985F"/>
<path d="M43.5189 82.6426C43.5189 82.6426 42.1049 82.4783 41.218 83.6343C40.3318 84.7903 39.3759 88.3667 41.5784 90.3108C43.7803 92.2548 45.9565 90.0543 46.2785 87.7209C46.6012 85.3876 46.7266 82.5584 43.5188 82.6427V82.6426H43.5189Z" fill="#FFB27D"/>
<path d="M46.9296 87.6866C46.6667 88.2017 46.2258 88.4875 45.9444 88.3239C45.663 88.161 45.648 87.6102 45.9109 87.0951C46.1737 86.58 46.6147 86.2942 46.8961 86.4578C47.1774 86.6214 47.1924 87.1715 46.9296 87.6866Z" fill="#FFB27D"/>
<path d="M43.677 82.2604C43.677 82.2604 41.7878 85.6611 40.4358 85.8183C39.0845 85.9755 38.9071 87.7823 38.9071 87.7823C38.9071 87.7823 39.3901 83.6185 40.7286 82.8155C42.0664 82.0125 43.677 82.2604 43.677 82.2604Z" fill="#0E2E35"/>
<path d="M31.1839 165.337C29.4308 165.659 28.2647 164.624 27.6571 163.85C27.2118 164.728 26.9939 166.036 27.3223 166.756C27.6108 167.391 28.4542 167.373 29.1181 167.398C29.8205 167.424 30.3641 167.03 30.7123 166.414C30.8748 166.126 31.0429 165.767 31.1832 165.336L31.1839 165.336L31.1839 165.337Z" fill="#0E2E35"/>
<path d="M46.1304 165.086C44.2006 165.585 42.7745 165.245 41.976 164.922C41.7701 165.509 41.4973 166.247 41.6419 166.673C41.8193 167.194 42.0714 167.312 42.2944 167.318C44.0568 167.365 48.7511 167.429 50.0953 167.446C50.2834 167.448 50.3867 167.228 50.2663 167.081C49.9329 166.68 46.2743 165.174 46.1304 165.086L46.1304 165.086V165.086Z" fill="#0E2E35"/>
<path d="M40.7906 86.6728C40.9003 87.2765 40.6795 87.8309 40.2969 87.9095C39.9144 87.9888 39.5148 87.5637 39.4051 86.96C39.2954 86.3563 39.5162 85.8019 39.8987 85.7226C40.2813 85.6433 40.6802 86.0684 40.7906 86.6728Z" fill="#FFB27D"/>
<path d="M34.2598 88.3968C34.2598 88.3968 38.9962 93.5336 39.7 95.6033C40.4038 97.6745 39.0133 100.634 37.0935 100.764C35.173 100.894 30.8997 91.6467 30.8997 91.6467L34.2598 88.396V88.3968H34.2598Z" fill="#24AC6D"/>
<path d="M128.966 23.3295L128.948 23.3238C128.781 23.2631 128.611 23.2095 128.439 23.1595C128.38 23.1423 128.322 23.1245 128.262 23.1087C128.2 23.0923 128.137 23.0773 128.074 23.0623C128.01 23.0466 127.947 23.0316 127.882 23.0173C127.821 23.0045 127.76 22.9923 127.699 22.9809C127.63 22.968 127.562 22.9551 127.492 22.9437C127.434 22.9337 127.376 22.9244 127.316 22.9159C127.241 22.9052 127.166 22.8959 127.091 22.8873C127.036 22.8808 126.982 22.8745 126.927 22.8694C126.841 22.8609 126.754 22.8551 126.667 22.8494C126.622 22.8466 126.576 22.8423 126.531 22.8401C126.398 22.8337 126.264 22.8301 126.128 22.8301H64.2795C64.1356 22.8301 63.9924 22.8337 63.85 22.8408C63.5657 22.8551 63.2851 22.8844 63.0094 22.9266C62.8712 22.948 62.7344 22.9723 62.5991 23.0002C59.0701 23.7268 56.3532 26.6967 55.9828 30.3647C55.9543 30.6468 55.9393 30.9333 55.9393 31.2227V158.429C55.9393 162.062 58.2324 165.154 61.4415 166.323C61.4557 166.328 61.47 166.333 61.4843 166.337C61.6431 166.394 61.8048 166.445 61.9679 166.493C62.0271 166.51 62.0855 166.528 62.1453 166.543C62.2073 166.56 62.2707 166.574 62.3334 166.589C62.3975 166.604 62.4609 166.62 62.5257 166.634C62.5863 166.647 62.6475 166.658 62.7088 166.67C62.7772 166.683 62.8462 166.696 62.9153 166.707C62.9737 166.717 63.0329 166.725 63.092 166.735C63.1668 166.745 63.2416 166.755 63.3171 166.763C63.3719 166.77 63.4268 166.776 63.4816 166.781C63.5679 166.789 63.654 166.796 63.7409 166.801C63.7865 166.804 63.8321 166.808 63.8777 166.811C64.0109 166.817 64.1448 166.821 64.2802 166.821H126.129C126.417 166.821 126.701 166.806 126.982 166.778C130.907 166.377 134.027 163.237 134.426 159.286C134.454 159.004 134.469 158.718 134.469 158.429V31.222C134.469 27.5898 132.175 24.497 128.967 23.3281L128.966 23.3295L128.966 23.3295Z" fill="#333333"/>
<path d="M59.9827 155.384H130.426V34.2698H59.9827V155.384Z" fill="white"/>
<path d="M110.256 30.4632H80.2674C80.2246 30.4632 80.1897 30.4282 80.1897 30.3853V29.0236C80.1897 28.9807 80.2246 28.9457 80.2674 28.9457H110.256C110.298 28.9457 110.333 28.9807 110.333 29.0236V30.3853C110.333 30.4282 110.298 30.4632 110.256 30.4632Z" fill="white"/>
<path d="M95.164 164.7C93.2527 164.7 91.7041 163.142 91.7041 161.219C91.7041 159.296 93.2527 157.737 95.164 157.737C97.0737 157.737 98.6238 159.296 98.6238 161.219C98.6238 163.143 97.0738 164.7 95.164 164.7Z" fill="white"/>
<path d="M59.9827 155.384H130.426V150.302H59.9827V155.384Z" fill="white"/>
<path d="M26.8151 70.3399H25.8313C25.255 69.1346 24.4593 66.9013 24.2264 66.9013C24.2185 66.9013 24.2114 66.9041 24.205 66.9092C23.7057 67.2964 24.9423 69.4976 24.6759 69.6362C24.6687 69.6397 24.6616 69.6419 24.6538 69.6419C24.5127 69.6419 24.2528 69.0532 23.9642 68.4652C23.6757 67.8765 23.3588 67.2885 23.1044 67.2885C23.0966 67.2885 23.0895 67.2892 23.0816 67.2899C22.5587 67.3656 24.0754 69.6368 23.9293 69.8376C23.9229 69.8469 23.9129 69.8512 23.9008 69.8512C23.7854 69.8512 23.4292 69.4611 23.0481 69.071C22.6663 68.6809 22.2588 68.2908 22.0409 68.2908C21.9917 68.2908 21.9518 68.3108 21.9247 68.3551C21.778 68.5902 23.2141 70.0626 23.0973 70.3413H22.7596C22.5822 70.2798 22.3592 70.1698 22.137 70.0591C21.8029 69.8933 21.471 69.7276 21.295 69.7276C21.2394 69.7276 21.1995 69.744 21.1803 69.7826C21.1062 69.9304 21.4218 70.1055 21.815 70.3413H13.0075C10.8947 70.3413 9.18152 68.6173 9.18152 66.4904V41.0834C9.18152 38.9565 10.8947 37.2333 13.0075 37.2333H40.2213C40.4358 38.635 40.6872 39.711 40.7741 40.3082C41.3055 43.9619 46.6239 60.8799 27.7467 69.9119C27.7795 69.7704 27.7696 69.6797 27.7012 69.6633C27.6883 69.6604 27.6748 69.6583 27.662 69.6583C27.496 69.6583 27.3229 69.904 27.147 70.1927C27.0373 70.2427 26.9283 70.292 26.8164 70.342L26.8151 70.3399Z" fill="#F4FAFD"/>
<path d="M27.5936 70.3399H27.0558C27.0857 70.2892 27.1156 70.2399 27.1448 70.1906C27.3208 69.902 27.4939 69.6562 27.6599 69.6562C27.6734 69.6562 27.6862 69.6576 27.699 69.6612C27.7682 69.6777 27.7774 69.7684 27.7446 69.9099C27.7182 70.0242 27.6648 70.1713 27.5929 70.34L27.5936 70.3399ZM25.8313 70.3399H23.0959C23.2127 70.0613 21.7766 68.5888 21.9234 68.3538C21.9512 68.3095 21.9903 68.2895 22.0395 68.2895C22.2582 68.2895 22.6657 68.6795 23.0467 69.0697C23.4285 69.4597 23.784 69.8499 23.8994 69.8499C23.9115 69.8499 23.9208 69.8456 23.9279 69.8363C24.0739 69.6355 22.5574 67.3643 23.0802 67.2886C23.0881 67.2871 23.0952 67.2871 23.1031 67.2871C23.3574 67.2871 23.6744 67.8758 23.9629 68.4638C24.2514 69.0518 24.5114 69.6405 24.6524 69.6405C24.6603 69.6405 24.6674 69.6391 24.6745 69.6348C24.9402 69.4962 23.7043 67.295 24.2037 66.9078C24.2101 66.9028 24.2172 66.9 24.225 66.9C24.458 66.9 25.2536 69.1333 25.83 70.3385L25.8313 70.3399ZM22.7582 70.3399H21.8137C21.4204 70.1042 21.1049 69.9291 21.1789 69.7812C21.1982 69.7427 21.2381 69.7262 21.2936 69.7262C21.4689 69.7262 21.8016 69.892 22.1357 70.0577C22.3579 70.1685 22.5809 70.2785 22.7582 70.3399H22.7582Z" fill="#EC998C"/>
<path d="M55.9393 70.3399H59.9826V37.2319H55.9393V70.3399Z" fill="#333333"/>
<path d="M71.6581 30.6412H10.4803C8.36679 30.6412 6.6543 32.3651 6.6543 34.492V59.899C6.6543 62.0252 8.36751 63.7499 10.4803 63.7499H58.6456C60.5946 66.4869 64.1293 71.3894 64.4413 71.3894C64.7333 71.3894 64.1706 66.7591 63.7745 63.7499H71.6581C73.7723 63.7499 75.4848 62.0259 75.4848 59.899V34.492C75.4848 32.3651 73.7723 30.6412 71.6581 30.6412Z" fill="#9BC1F9"/>
<path d="M43.058 40.5562H13.0668C13.0191 40.5562 12.9806 40.5176 12.9806 40.4704V38.9651C12.9806 38.9179 13.019 38.8793 13.0668 38.8793H43.058C43.1058 38.8793 43.1435 38.9179 43.1435 38.9651V40.4704C43.1435 40.5183 43.1051 40.5562 43.058 40.5562Z" fill="white"/>
<path d="M25.889 44.9828H13.0668C13.0191 44.9828 12.9806 44.9443 12.9806 44.8964V43.391C12.9806 43.3432 13.019 43.3053 13.0668 43.3053H25.889C25.9367 43.3053 25.9752 43.3439 25.9752 43.391V44.8964C25.9752 44.9442 25.9368 44.9828 25.889 44.9828Z" fill="white"/>
<path d="M67.7936 44.9828H27.5253C27.4776 44.9828 27.4391 44.9443 27.4391 44.8964V43.391C27.4391 43.3432 27.4775 43.3053 27.5253 43.3053H67.7936C67.8413 43.3053 67.8798 43.3439 67.8798 43.391V44.8964C67.8798 44.9442 67.8413 44.9828 67.7936 44.9828Z" fill="white"/>
<path d="M67.9161 40.5562H46.3128C46.2651 40.5562 46.2273 40.5176 46.2273 40.4704V38.9651C46.2273 38.9179 46.2657 38.8793 46.3128 38.8793H67.9161C67.9638 38.8793 68.0023 38.9179 68.0023 38.9651V40.4704C68.0023 40.5183 67.9639 40.5562 67.9161 40.5562Z" fill="white"/>
<path d="M67.9161 53.6584H13.0668C13.0191 53.6584 12.9806 53.6198 12.9806 53.5726V52.0673C12.9806 52.0194 13.019 51.9808 13.0668 51.9808H67.9161C67.9638 51.9808 68.0023 52.0194 68.0023 52.0673V53.5726C68.0023 53.6205 67.9638 53.6584 67.9161 53.6584Z" fill="white"/>
<path d="M41.3184 49.4089H13.0661C13.0184 49.4089 12.9799 49.3703 12.9799 49.3231V47.8178C12.9799 47.7699 13.0183 47.7321 13.0661 47.7321H41.3184C41.3662 47.7321 41.4039 47.7706 41.4039 47.8178V49.3231C41.4039 49.3703 41.3655 49.4089 41.3184 49.4089Z" fill="white"/>
<path d="M67.9161 49.4089H43.1407C43.0929 49.4089 43.0544 49.3703 43.0544 49.3231V47.8178C43.0544 47.7699 43.0929 47.7321 43.1407 47.7321H67.9161C67.9638 47.7321 68.0023 47.7706 68.0023 47.8178V49.3231C68.0023 49.3703 67.9638 49.4089 67.9161 49.4089Z" fill="white"/>
<path d="M121.849 23.3974H140.5C140.542 23.3974 140.577 23.3631 140.577 23.3202V21.9756C140.577 21.9327 140.542 21.8984 140.5 21.8984H121.849C121.806 21.8984 121.772 21.9328 121.772 21.9756V23.3202C121.772 23.3624 121.806 23.3974 121.849 23.3974Z" fill="white"/>
<path d="M152.492 44.272C148.626 44.272 146.801 42.5966 148.526 37.6748C150.574 31.8364 147.312 26.5988 140.577 22.2936V21.975C140.577 21.9321 140.542 21.8978 140.5 21.8978H139.944C137.434 20.3639 134.48 18.9528 131.166 17.6804H170.904C172.792 17.6804 174.322 19.2208 174.322 21.1205V39.3031C172.862 39.6803 171.405 40.074 169.971 40.4683C163.046 42.3702 156.611 44.2713 152.492 44.2713L152.492 44.272Z" fill="#F4FAFD"/>
<path d="M134.469 47.2605H130.427V34.2698H112.831V22.8308H121.773V23.3209C121.773 23.3631 121.807 23.3981 121.85 23.3981H129.146C132.261 24.6155 134.469 27.6597 134.469 31.2241V47.2612V47.2605V47.2605Z" fill="#333333"/>
<path d="M140.501 23.3974H121.85C121.807 23.3974 121.773 23.3631 121.773 23.3202V21.9756C121.773 21.9327 121.807 21.8984 121.85 21.8984H140.501C140.543 21.8984 140.578 21.9328 140.578 21.9756V23.3202C140.578 23.3624 140.543 23.3974 140.501 23.3974Z" fill="#F4FAFD"/>
<path d="M118.506 11.7934H173.161C175.049 11.7934 176.579 13.3337 176.579 15.2335V37.9321C176.579 39.8318 175.049 41.3721 173.161 41.3721H130.131C128.39 43.8177 125.232 48.1972 124.954 48.1972C124.692 48.1972 125.195 44.0606 125.549 41.3721H118.506C116.618 41.3721 115.088 39.8318 115.088 37.9321V15.2335C115.088 13.3337 116.618 11.7934 118.506 11.7934H118.506H118.506Z" fill="#9BC1F9"/>
<path d="M143.101 25.5464H156.837C156.879 25.5464 156.914 25.5121 156.914 25.4692V24.1246C156.914 24.0825 156.879 24.0482 156.837 24.0482H143.101C143.059 24.0482 143.024 24.0825 143.024 24.1254V25.47C143.024 25.5129 143.059 25.5471 143.101 25.5471V25.5464Z" fill="white"/>
<path d="M121.931 25.5464H141.189C141.232 25.5464 141.266 25.5121 141.266 25.4692V24.1246C141.266 24.0825 141.232 24.0482 141.189 24.0482H121.931C121.889 24.0482 121.854 24.0825 121.854 24.1254V25.47C121.854 25.5129 121.889 25.5471 121.931 25.5471V25.5464Z" fill="white"/>
<path d="M121.849 20.6518H149.72C149.763 20.6518 149.797 20.6175 149.797 20.5754V19.2308C149.797 19.1886 149.763 19.1536 149.72 19.1536H121.849C121.806 19.1536 121.772 19.1879 121.772 19.2308V20.5754C121.772 20.6175 121.806 20.6518 121.849 20.6518Z" fill="white"/>
<path d="M121.849 35.1336H169.487C169.529 35.1336 169.564 35.0993 169.564 35.0564V33.7118C169.564 33.6697 169.529 33.6346 169.487 33.6346H121.849C121.806 33.6346 121.772 33.669 121.772 33.7118V35.0571C121.772 35.0993 121.806 35.1335 121.849 35.1335V35.1336Z" fill="white"/>
<path d="M144.952 30.396H169.488C169.53 30.396 169.565 30.3617 169.565 30.3189V28.9743C169.565 28.9321 169.53 28.8971 169.488 28.8971H144.952C144.91 28.8971 144.875 28.9314 144.875 28.9743V30.3189C144.875 30.361 144.91 30.396 144.952 30.396Z" fill="white"/>
<path d="M121.849 30.396H143.574C143.616 30.396 143.651 30.3617 143.651 30.3189V28.9743C143.651 28.9314 143.616 28.8971 143.574 28.8971H121.849C121.806 28.8971 121.772 28.9314 121.772 28.9743V30.3189C121.772 30.361 121.806 30.396 121.849 30.396Z" fill="white"/>
<path d="M77.6047 80.185C77.6047 80.185 63.9511 82.1611 66.0376 95.3776C67.983 107.699 79.6918 105.196 82.6979 104.578C85.7055 103.961 77.6046 80.1849 77.6046 80.1849H77.6047L77.6047 80.185Z" fill="#6E9DD3"/>
<path d="M82.6979 104.578C84.0984 104.291 83.0904 98.9827 81.613 93.3907C76.5866 94.3795 70.9869 95.4826 66.2334 96.4228C68.6625 107.553 79.7787 105.178 82.6979 104.578L82.6979 104.578Z" fill="#2678BA"/>
<path d="M85.4596 106.864C85.4596 106.864 88.4586 117.603 87.6693 125.946C86.9328 133.727 88.0376 135.024 90.9219 134.778C93.8055 134.53 100.801 132.801 100.925 130.022C101.047 127.243 99.7585 112.977 94.9111 105.32C90.0621 97.6618 85.4596 106.863 85.4596 106.863L85.4596 106.864L85.4596 106.864Z" fill="#98BBE1"/>
<path d="M90.1206 102.385C88.198 103.681 85.4597 106.864 85.4597 106.864C85.4597 106.864 88.4587 117.603 87.6694 125.946C86.9329 133.727 88.0377 135.024 90.922 134.778C91.9798 134.687 93.5905 134.397 95.2125 133.93C96.3636 114.805 91.4441 104.549 90.1206 102.385V102.385V102.385Z" fill="#3389C7"/>
<path d="M118.966 54.1549C118.966 54.1549 96.3216 70.69 89.0036 75.6925L84.7239 82.0846L87.7613 100.704L95.0786 104.317L130.84 111.402L130.011 107.373L123.522 89.309L120.208 68.7445L119.241 56.1003L118.965 54.1548L118.966 54.1549Z" fill="#6E9DD3"/>
<path d="M123.522 89.3098L122.653 83.9178L86.4648 92.757L87.7613 100.704L95.0785 104.317L130.84 111.402L130.012 107.373L123.522 89.3098Z" fill="#2678BA"/>
<path d="M89.0036 75.6925C89.0036 75.6925 86.0125 91.486 95.0792 104.317C95.0792 104.317 95.5857 105.505 94.4808 106.246L87.7314 107.975C87.7314 107.975 84.6013 109.086 81.9628 104.578C79.3235 100.071 74.6598 89.9421 77.4216 78.7646C77.4216 78.7646 78.0962 75.739 81.7783 75.1831L86.6878 74.2565C86.6878 74.2565 88.8661 73.9171 89.0044 75.6925H89.0037H89.0036Z" fill="#3389C7"/>
<path d="M118.966 54.1549C118.966 54.1549 124.857 49.8011 128.262 49.894C131.669 49.9869 135.074 54.5257 137.284 58.2308C139.493 61.9359 145.292 76.4798 145.844 86.2992C146.395 96.1185 146.304 110.106 141.518 111.773C136.731 113.442 130.84 111.403 130.84 111.403C130.84 111.403 123.107 104.734 118.597 83.983C114.087 63.2326 118.965 54.1549 118.965 54.1549H118.966H118.966Z" fill="#3389C7"/>
<path d="M138.127 112.329C138.127 112.329 143.633 105.15 140.827 85.7676C136.409 55.2502 125.271 50.6349 125.271 50.6349C125.271 50.6349 117.027 56.9356 124.903 86.4271C131.392 110.728 138.127 112.329 138.127 112.329H138.127Z" fill="#98BBE1"/>
<path d="M122.267 74.0172C122.802 77.6101 123.646 81.7224 124.903 86.4271C125.531 88.7811 126.163 90.9209 126.79 92.8685C130.214 91.6754 135.753 88.6854 133.388 81.1002C131.196 74.073 125.491 73.6429 122.267 74.0165L122.267 74.0172V74.0172Z" fill="#E0CC44"/>
<path d="M124.903 86.4271C125.531 88.7811 126.163 90.9209 126.79 92.8685C130.166 91.6918 135.599 88.7669 133.481 81.4124L124.173 83.5707C124.4 84.4981 124.642 85.4497 124.904 86.4271H124.903L124.903 86.4271Z" fill="#DDC61C"/>
<path d="M86.8238 108.097H86.8245H86.8252H86.8259H86.8266H86.8273H86.828H86.8287H86.8294H86.8301H86.8308H86.8315H86.8322H86.8329H86.8336H86.8343H86.8236H86.8238ZM86.811 108.097C86.7982 108.097 86.7847 108.097 86.7719 108.096C86.7847 108.097 86.7982 108.097 86.811 108.097Z" fill="#3EA68B"/>
<path d="M86.8374 108.097C87.3894 108.097 87.7307 107.975 87.7307 107.975L92.133 106.847L87.7307 107.975C87.7307 107.975 87.3895 108.097 86.8374 108.097Z" fill="#3EA68B"/>
<path d="M82.0268 104.688C82.0055 104.652 81.9841 104.615 81.9627 104.579C81.9107 104.491 81.8587 104.402 81.806 104.309C81.8588 104.401 81.9108 104.491 81.9627 104.579C81.9841 104.616 82.0055 104.652 82.0268 104.688Z" fill="#B3A15E"/>
<path d="M95.0785 104.317C95.0742 104.31 95.0685 104.302 95.0635 104.295C95.0692 104.302 95.0734 104.309 95.0785 104.317Z" fill="#3EA68B"/>
<path d="M81.802 104.303C81.8005 104.3 81.799 104.297 81.7975 104.295C81.799 104.298 81.8012 104.301 81.802 104.303Z" fill="#B3A15E"/>
<path d="M95.0599 104.29C95.0569 104.285 95.0523 104.277 95.0486 104.272C95.0523 104.278 95.0561 104.284 95.0599 104.29Z" fill="#3EA68B"/>
<path d="M81.7911 104.283L81.7897 104.282C81.7911 104.283 81.7897 104.282 81.7911 104.283Z" fill="#B3A15E"/>
<path d="M95.0429 104.266C95.0393 104.262 95.0358 104.255 95.0322 104.251C95.0358 104.256 95.0393 104.261 95.0429 104.266Z" fill="#3EA68B"/>
<path d="M95.0279 104.244C95.0237 104.237 95.018 104.229 95.0129 104.222C95.0187 104.229 95.0229 104.237 95.0279 104.244ZM95.0122 104.222C95.008 104.214 95.0037 104.207 94.998 104.2C95.0022 104.207 95.008 104.214 95.0122 104.222ZM94.9937 104.194C94.9902 104.188 94.9866 104.184 94.9831 104.178C94.9866 104.184 94.9902 104.189 94.9937 104.194ZM94.9788 104.172C94.9745 104.166 94.9709 104.162 94.9667 104.155C94.9702 104.161 94.9738 104.166 94.9788 104.172ZM94.9624 104.15C94.9524 104.135 94.9424 104.121 94.9317 104.107C94.9424 104.121 94.9524 104.135 94.9624 104.15ZM94.9282 104.101C94.9247 104.095 94.9203 104.089 94.9168 104.084C94.9203 104.089 94.9247 104.095 94.9282 104.101ZM94.9132 104.079C94.909 104.072 94.9039 104.066 94.8997 104.06C94.9039 104.067 94.9082 104.073 94.9132 104.079ZM94.8982 104.057C94.8876 104.042 94.8769 104.027 94.8669 104.012C94.8769 104.027 94.8876 104.042 94.8982 104.057ZM94.8641 104.007C94.8598 104.002 94.8541 103.995 94.8505 103.989C94.8548 103.996 94.8591 104.002 94.8641 104.007ZM94.8484 103.985C94.8441 103.979 94.8398 103.972 94.8348 103.965C94.8391 103.972 94.8441 103.979 94.8484 103.985ZM94.8334 103.963C94.8228 103.948 94.8121 103.933 94.8021 103.917C94.8121 103.932 94.8228 103.948 94.8334 103.963ZM94.8007 103.915C94.7964 103.908 94.7907 103.901 94.7864 103.894C94.7907 103.901 94.7964 103.908 94.8007 103.915ZM94.785 103.892C94.77 103.869 94.7537 103.844 94.7373 103.822C94.753 103.846 94.7694 103.869 94.785 103.892ZM94.7365 103.822C94.7323 103.814 94.7266 103.806 94.7216 103.799C94.7266 103.807 94.7315 103.814 94.7365 103.822Z" fill="#3EA68B"/>
<path d="M89.649 91.9797C89.6476 91.9725 89.6462 91.9654 89.6448 91.9583C89.6462 91.9654 89.6483 91.9726 89.649 91.9797Z" fill="#73BCAA"/>
<path d="M94.7195 103.797C92.1009 99.9328 90.5459 95.8263 89.649 91.9797C90.5459 95.8263 92.1009 99.9328 94.7195 103.797Z" fill="#3EA68B"/>
<path d="M86.8366 108.097C86.8188 108.097 86.801 108.097 86.7832 108.096C85.667 108.08 83.7493 107.562 82.0269 104.688C82.0055 104.652 81.9841 104.615 81.9628 104.579C81.9108 104.491 81.8588 104.402 81.8061 104.309C81.804 104.307 81.8033 104.305 81.8026 104.303C81.8019 104.3 81.7997 104.297 81.7983 104.295C81.7955 104.291 81.7926 104.287 81.7912 104.282C81.7905 104.282 81.7912 104.282 81.7905 104.282C81.7848 104.273 81.7805 104.264 81.7755 104.254C80.4805 101.992 78.7801 98.4869 77.6824 94.2309L89.6455 91.9583C89.6469 91.9654 89.6484 91.9726 89.6498 91.9797C90.5466 95.8263 92.1017 99.9328 94.7203 103.797C94.7253 103.804 94.7309 103.812 94.7352 103.819C94.7359 103.819 94.7359 103.819 94.7359 103.82C94.7516 103.842 94.768 103.867 94.7837 103.89C94.7844 103.89 94.7843 103.891 94.7851 103.892C94.7893 103.899 94.795 103.906 94.7993 103.913C94.8 103.913 94.8 103.914 94.8014 103.915C94.8114 103.93 94.8221 103.946 94.8328 103.961C94.8328 103.962 94.8335 103.963 94.8342 103.964C94.8384 103.97 94.8435 103.977 94.8477 103.984C94.8484 103.986 94.8492 103.987 94.8506 103.988C94.8541 103.994 94.8591 104.001 94.8641 104.006C94.8648 104.008 94.8663 104.009 94.867 104.01C94.8769 104.025 94.8876 104.04 94.8983 104.055C94.8983 104.056 94.899 104.058 94.8997 104.059C94.904 104.065 94.9083 104.071 94.9133 104.077C94.914 104.079 94.9147 104.081 94.9168 104.083C94.9204 104.088 94.9247 104.094 94.9282 104.1C94.9296 104.101 94.931 104.104 94.9317 104.106C94.9424 104.12 94.9524 104.134 94.9624 104.149C94.9638 104.151 94.9652 104.153 94.9666 104.155C94.9702 104.162 94.9738 104.166 94.9787 104.172C94.9794 104.174 94.9816 104.176 94.983 104.179C94.9865 104.184 94.9901 104.189 94.9936 104.195C94.9957 104.197 94.9965 104.199 94.9979 104.201C95.0036 104.208 95.0079 104.215 95.0121 104.222C95.0128 104.222 95.0128 104.222 95.0128 104.223C95.0185 104.23 95.0235 104.237 95.0278 104.244C95.0299 104.246 95.0314 104.249 95.0321 104.251C95.0356 104.255 95.0392 104.262 95.0427 104.266C95.0449 104.269 95.0463 104.272 95.0484 104.273C95.052 104.277 95.0563 104.284 95.0591 104.289C95.0605 104.291 95.0619 104.293 95.0634 104.294C95.0691 104.302 95.074 104.31 95.0783 104.317C95.0783 104.317 95.1945 104.589 95.1945 104.953C95.1945 105.351 95.0563 105.86 94.48 106.246L92.1328 106.847L87.7305 107.975C87.7305 107.975 87.3893 108.097 86.8373 108.097H86.8366H86.8367L86.8366 108.097Z" fill="#3389C7"/>
<path d="M80.0295 166.882L81.0225 166.693L76.7328 143.794L75.7405 143.983L80.0295 166.882Z" fill="#0E2E35"/>
<path d="M68.966 166.986H67.7715L72.2222 143.794L73.2152 143.983L68.966 166.986Z" fill="#0E2E35"/>
<path d="M57.9838 166.986L58.9533 166.998L54.687 143.898L53.694 144.087L57.9838 166.986Z" fill="#0E2E35"/>
<path d="M62.3148 112.561C58.3833 112.984 53.2958 113.432 48.189 122.153C42.607 131.686 45.5455 145.927 49.9513 149.884C54.3572 153.841 68.7466 158.727 80.843 151.412C80.843 151.412 88.1474 146.98 84.3983 139.623C78.6304 128.302 79.4454 125.941 76.8659 121.504C74.2872 117.067 70.66 111.662 62.3148 112.561L62.3148 112.561V112.561Z" fill="#E8DA79"/>
<path d="M48.189 122.153C51.6752 116.2 55.1515 114.102 58.258 113.235C57.057 114.487 55.8382 116.096 54.6193 118.178C49.0374 127.711 51.9758 141.951 56.3817 145.909C60.2889 149.418 72.0476 153.655 83.0954 149.469C81.9599 150.735 80.8429 151.412 80.8429 151.412C68.7466 158.727 54.3572 153.841 49.9513 149.884C45.5455 145.927 42.607 131.686 48.189 122.153L48.189 122.153Z" fill="#E0CC44"/>
<path d="M74.937 127.05L75.9478 130.101L72.8676 128.882L74.937 127.05Z" fill="#F79C8D"/>
<path d="M71.762 117.973C71.9679 117.98 72.5299 118.17 73.3527 119.729C74.4034 121.72 75.9385 127.735 75.9385 127.735L71.356 129.447L70.7669 128.191L69.7974 118.526C69.7974 118.526 71.7057 117.97 71.762 117.973V117.973V117.973Z" fill="#24AC6D"/>
<path d="M65.7035 117.105C67.0142 117.107 70.2568 117.49 71.762 117.972C71.762 117.972 72.8683 127.503 70.7668 134.745C70.2967 136.367 71.1557 141.466 71.1557 141.466L57.5756 141.286C57.5756 141.286 59.1847 128.959 58.5786 126.968C57.9724 124.976 57.9581 118.037 57.9581 118.037C57.9581 118.037 58.0514 118.022 61.0091 117.51C62.3889 117.27 64.3044 117.103 65.7041 117.105H65.7035L65.7035 117.105Z" fill="#60B682"/>
<path d="M64.1214 159.157C64.1214 159.157 64.422 162.634 64.9741 163.597C65.5268 164.56 64.9449 166.197 64.9164 166.422C64.8872 166.647 63.7531 166.968 61.9509 166.775C60.1487 166.583 60.1772 166.165 60.3225 165.491C60.4678 164.816 61.4273 163.95 61.485 163.308C61.5434 162.665 60.933 160.354 60.933 160.354L64.1215 159.156L64.1214 159.157L64.1214 159.157Z" fill="#FFB27D"/>
<path d="M69.6236 138.596C69.6236 138.596 78.9981 138.073 81.0909 139.345C83.1845 140.616 80.7127 143.227 80.7127 143.227C80.7127 143.227 73.0806 146.555 60.304 147.295C57.2779 147.47 57.0179 139.382 57.5835 138.713C58.1491 138.043 69.6236 138.595 69.6236 138.595V138.596L69.6236 138.596Z" fill="#2678BA"/>
<path d="M61.7257 167.045C59.8693 166.847 60.0994 165.932 60.249 165.237C60.3423 164.802 60.8752 164.29 61.1929 163.806C61.3588 163.938 61.6288 164.171 62.4345 164.411C63.2715 164.659 64.4191 164.168 65.1499 163.86C65.4107 164.833 65.4227 166.073 65.3979 166.262C65.368 166.493 63.5814 167.242 61.7257 167.044V167.045L61.7257 167.045Z" fill="#184655"/>
<path d="M62.7501 145.322C63.1248 148.164 64.9791 162.315 64.9791 162.315L60.6765 162.85C60.6765 162.85 55.3851 144.38 55.6566 141.556C55.928 138.731 57.9083 138.493 57.9083 138.493C57.9083 138.493 61.7586 137.798 62.7502 145.322H62.7501H62.7501Z" fill="#3389C7"/>
<path d="M57.8099 119.096C59.08 118.618 59.7005 130.093 59.8722 134.816C62.121 135.033 66.0396 134.817 67.0156 134.744C67.4743 134.709 68.5329 134.32 68.9895 134.26C69.4576 134.2 69.8814 134.167 70.1115 134.208C70.1955 134.222 72.5392 135.183 72.7393 135.394C72.9886 135.655 73.6603 136.315 73.5471 136.6C73.4331 136.885 72.2549 135.806 72.2549 135.806L71.6779 135.481C72.3953 136.184 73.7644 137.11 73.5663 137.448C73.374 137.777 72.1402 136.837 71.2605 136.197C72.0148 136.88 72.9523 138.104 72.7364 138.294C72.5426 138.466 71.4756 137.05 70.3365 136.641C69.9134 136.49 69.4924 136.909 69.1604 136.96C68.9161 136.996 68.5393 137.075 68.2999 137.007L67.0654 136.657C66.6451 136.695 66.6344 136.945 66.2099 137.035C65.7169 137.14 64.9084 137.252 64.2808 137.405C60.6671 138.291 59.4611 138.701 58.3548 138.701C55.0032 138.699 54.8088 120.226 57.8099 119.097L57.8099 119.096H57.8099Z" fill="#FFB27D"/>
<path d="M55.4001 129.869C55.1622 125.031 55.1971 119.068 57.9012 118.05C58.9683 117.65 60.8489 120.063 60.5105 129.967C59.0672 130.087 56.948 130.182 55.4001 129.869H55.4001Z" fill="#24AC6D"/>
<path d="M70.5275 127.79H70.2526L66.1082 138.002L66.3938 137.959L70.5275 127.79Z" fill="#F79C8D"/>
<path d="M76.7028 162.132C76.7028 162.132 76.3281 163.339 76.9998 164.137C77.6723 164.935 80.4662 165.719 80.8322 166.151C81.1991 166.583 81.1713 166.951 81.1713 166.951L73.3306 166.735L73.4161 164.36L73.7772 162.653L76.7021 162.132H76.7028L76.7028 162.132Z" fill="#FFB27D"/>
<path d="M77.4886 164.535C77.4886 164.535 75.4741 165.352 74.501 164.869C73.5273 164.384 73.5565 164.251 73.2751 164.431C72.9938 164.611 72.8933 166.837 72.8933 166.837L81.7093 167.097C82.3226 167.083 82.6332 166.63 82.1339 166.241C81.7919 165.975 81.398 165.797 81.1736 165.668C80.4833 165.272 77.4887 164.534 77.4887 164.534L77.4886 164.535V164.535Z" fill="#184655"/>
<path d="M76.4065 140.825C77.0127 139.546 78.3904 137.88 80.816 138.883C83.1282 139.84 83.7501 142.19 83.0192 144.598C82.2898 147.006 77.4857 161.157 77.3183 163.103L73.483 163.128C73.483 163.128 74.1797 151.923 74.3507 149.215C74.5152 146.608 75.3579 143.038 76.4065 140.824L76.4065 140.825L76.4065 140.825Z" fill="#3389C7"/>
<path d="M82.6338 127.79H69.8116C69.4725 127.79 69.1669 127.996 69.0379 128.313L65.0901 138.002H58.0208C57.8235 138.002 57.6632 138.163 57.6632 138.361C57.6632 138.561 57.8235 138.722 58.0208 138.722H78.1389C78.6924 138.722 79.1939 138.395 79.4204 137.887L83.3953 128.976C83.6439 128.418 83.24 127.789 82.6331 127.789L82.6337 127.79L82.6338 127.79Z" fill="black"/>
<path d="M75.7305 133.432C75.6436 133.867 75.2667 134.159 74.8871 134.083C74.5088 134.006 74.2716 133.592 74.3585 133.156C74.4454 132.721 74.823 132.429 75.2005 132.506C75.5795 132.582 75.8167 132.997 75.7298 133.432H75.7305Z" fill="white"/>
<path d="M68.7509 105.464C68.3648 105.334 67.9837 105.187 67.6169 105.01C67.2016 104.809 66.6637 104.573 66.3233 104.521C65.6073 104.41 64.3786 104.485 63.6997 105.223C62.8541 106.143 61.3511 105.388 61.6538 110.208C61.9964 115.663 65.0211 115.063 65.0944 114.971C65.1678 114.879 67.7914 111.481 67.7914 111.481C67.7914 111.481 68.7089 113.494 68.7089 113.42C68.7089 113.349 73.3932 107.033 68.7509 105.464Z" fill="#0E2E35"/>
<path d="M66.455 115.374L66.7164 117.323C66.7164 117.323 67.3013 120.131 66.549 120.673C65.7967 121.214 63.3491 117.244 63.3491 117.244L63.6077 112.305L66.455 115.375V115.374H66.455Z" fill="#FFB27D"/>
<path d="M63.5237 113.904C64.1448 115.59 65.6251 116.624 66.6758 117.027L66.4543 115.375L63.607 112.305L63.5237 113.905V113.904H63.5237Z" fill="#ED985F"/>
<path d="M66.3005 106.929C67.8947 106.671 69.3251 107.957 69.2845 109.558C69.2674 110.254 69.2104 111.122 69.0665 112.058C68.7196 114.308 67.1895 116.289 66.1773 116.112C65.165 115.936 62.6184 113.995 63.0672 110.792C63.3443 108.815 64.6279 107.2 66.3005 106.929L66.3005 106.929V106.929Z" fill="#FFB27D"/>
<path d="M63.7694 111.174C63.6839 111.669 63.2886 112.013 62.8868 111.943C62.4851 111.873 62.2279 111.415 62.3134 110.92C62.3989 110.425 62.7942 110.081 63.196 110.152C63.5978 110.222 63.8549 110.68 63.7694 111.174Z" fill="#FFB27D"/>
<path d="M63.1961 110.152C63.1961 110.152 64.4199 110.457 64.8737 109.667C65.3274 108.877 66.9516 107.174 69.0153 107.88C71.0796 108.586 67.1988 106.163 67.0335 106.163C66.8683 106.163 64.8865 106.149 64.8865 106.149C64.8865 106.149 63.3592 107.409 63.3037 107.547C63.2488 107.685 62.8086 109.196 62.8086 109.196L63.1947 110.151L63.196 110.152H63.1961Z" fill="#0E2E35"/>
<path d="M65.4349 113.445L67.661 113.872C67.661 113.872 67.4487 114.713 66.4643 114.554C65.264 114.36 65.4349 113.445 65.4349 113.445Z" fill="white"/>
<path d="M42.4269 88.5682L44.6529 88.9954C44.6529 88.9954 44.4406 89.8364 43.4555 89.6771C42.2552 89.4827 42.4261 88.5682 42.4261 88.5682H42.4268H42.4269Z" fill="white"/>
</g>
<defs>
<clipPath id="clip0_16_2047">
<rect width="184" height="175" fill="white"/>
</clipPath>
</defs>
</svg>
