<svg width="184" height="159" viewBox="0 0 184 159" fill="none" xmlns="http://www.w3.org/2000/svg">
<path fill-rule="evenodd" clip-rule="evenodd" d="M84.9815 5.05178C54.9883 13.6764 22.2076 33.2778 8.42662 54.8992C-5.35506 76.5206 -0.137136 100.162 9.17756 116.945C18.4923 133.729 31.9045 143.654 50.8355 150.268C69.7666 156.882 94.2164 160.185 116.998 158.613C139.78 157.039 160.893 150.589 172.279 136.167C183.664 121.745 185.321 99.3509 183.218 75.517C181.115 51.6831 175.253 26.4088 158.718 12.5952C142.183 -1.21836 114.976 -3.57125 84.9823 5.05252L84.9816 5.05178H84.9815Z" fill="#EAF4FB"/>
<path d="M98.8382 141.787C78.3272 141.771 47.8367 141.675 52.5025 140.055C57.169 138.435 81.768 139.772 101.973 139.479C111.709 139.338 108.865 138.636 122.061 139.114C142.709 139.862 137.09 140.836 128.033 141.096C111.383 141.574 110.398 141.771 109.051 141.787C106.638 141.816 106.823 141.794 98.8382 141.787V141.787Z" fill="#B3D5E9"/>
<path d="M147.191 141.787C138.455 141.771 125.467 141.675 127.455 140.055C129.443 138.435 139.92 139.772 148.526 139.479C152.673 139.338 151.462 138.636 157.083 139.114C165.877 139.862 163.484 140.836 159.626 141.096C152.535 141.574 152.115 141.771 151.541 141.787C150.513 141.816 150.591 141.794 147.191 141.787V141.787Z" fill="#B3D5E9"/>
<path d="M34.869 141.787C26.1328 141.771 13.1451 141.675 15.1328 140.055C17.1214 138.435 27.598 139.772 36.2041 139.479C40.3512 139.338 39.1397 138.636 44.7607 139.114C53.5551 139.862 51.1621 140.836 47.3038 141.096C40.2114 141.574 39.7925 141.771 39.2188 141.787C38.1901 141.816 38.2692 141.794 34.8683 141.787H34.8692L34.869 141.787Z" fill="#B3D5E9"/>
<path d="M130.325 139.816H67.9848C63.4484 139.816 59.7705 136.136 59.7705 131.597V19.3605C59.7705 14.8215 63.4484 11.1415 67.9848 11.1415H130.325C134.861 11.1415 138.539 14.8215 138.539 19.3605V131.597C138.539 136.136 134.861 139.816 130.325 139.816Z" fill="#333333"/>
<path d="M64.6118 126.28H133.697V24.1437H64.6118V126.28Z" fill="white"/>
<path d="M119.931 77.1354H79.7062C76.3124 77.1354 73.5618 74.3825 73.5618 70.9875C73.5618 67.5917 76.3131 64.8395 79.7062 64.8395H119.931C123.324 64.8395 126.076 67.5917 126.076 70.9875C126.076 74.3832 123.324 77.1354 119.931 77.1354Z" fill="#98BBE1"/>
<path d="M84.79 70.9875C84.79 72.1069 83.8835 73.0147 82.7647 73.0147C81.6459 73.0147 80.7386 72.1069 80.7386 70.9875C80.7386 69.868 81.6459 68.9603 82.7647 68.9603C83.8835 68.9603 84.79 69.868 84.79 70.9875Z" fill="#2678BA"/>
<path d="M90.4612 70.9875C90.4612 72.1069 89.554 73.0147 88.4352 73.0147C87.3164 73.0147 86.4099 72.1069 86.4099 70.9875C86.4099 69.868 87.3164 68.9603 88.4352 68.9603C89.554 68.9603 90.4612 69.868 90.4612 70.9875Z" fill="#2678BA"/>
<path d="M96.1323 70.9875C96.1323 72.1069 95.225 73.0147 94.1062 73.0147C92.9875 73.0147 92.0802 72.1069 92.0802 70.9875C92.0802 69.868 92.9875 68.9603 94.1062 68.9603C95.225 68.9603 96.1323 69.868 96.1323 70.9875Z" fill="#2678BA"/>
<path d="M101.804 70.9875C101.804 72.1069 100.896 73.0147 99.7776 73.0147C98.6588 73.0147 97.7516 72.1069 97.7516 70.9875C97.7516 69.868 98.6588 68.9603 99.7776 68.9603C100.896 68.9603 101.804 69.868 101.804 70.9875Z" fill="#2678BA"/>
<path d="M107.475 70.9875C107.475 72.1069 106.567 73.0147 105.449 73.0147C104.33 73.0147 103.423 72.1069 103.423 70.9875C103.423 69.868 104.33 68.9603 105.449 68.9603C106.567 68.9603 107.475 69.868 107.475 70.9875Z" fill="#2678BA"/>
<path d="M113.146 70.9875C113.146 72.1069 112.239 73.0147 111.121 73.0147C110.002 73.0147 109.094 72.1069 109.094 70.9875C109.094 69.868 110.001 68.9603 111.121 68.9603C112.239 68.9603 113.146 69.868 113.146 70.9875Z" fill="#2678BA"/>
<path d="M118.817 70.9875C118.817 72.1069 117.91 73.0147 116.791 73.0147C115.672 73.0147 114.765 72.1069 114.765 70.9875C114.765 69.868 115.672 68.9603 116.791 68.9603C117.91 68.9603 118.817 69.868 118.817 70.9875Z" fill="#2678BA"/>
<path d="M119.931 94.1276H79.7062C76.3124 94.1276 73.5618 91.3747 73.5618 87.9797C73.5618 84.5839 76.3131 81.8317 79.7062 81.8317H119.931C123.325 81.8317 126.076 84.5839 126.076 87.9797C126.076 91.3754 123.325 94.1276 119.931 94.1276Z" fill="#98BBE1"/>
<path d="M94.2061 105.345C91.7188 105.345 89.6951 107.369 89.6951 109.857C89.6951 112.346 91.7188 114.371 94.2061 114.371H105.431C107.918 114.371 109.941 112.347 109.941 109.857C109.941 107.369 107.918 105.345 105.431 105.345H94.2061ZM105.431 114.679H94.2061C91.5489 114.679 89.3871 112.516 89.3871 109.857C89.3871 107.199 91.5489 105.036 94.2061 105.036H105.431C108.088 105.036 110.249 107.199 110.249 109.857C110.249 112.515 108.088 114.679 105.431 114.679Z" fill="#4195C9"/>
<path d="M105.431 114.37H94.206C91.7187 114.37 89.6951 112.346 89.6951 109.857C89.6951 107.369 91.7187 105.344 94.206 105.344H105.431C107.918 105.344 109.941 107.368 109.941 109.857C109.941 112.345 107.918 114.37 105.431 114.37Z" fill="#1D9E46"/>
<path d="M105.431 114.524H94.206C91.6302 114.524 89.5411 112.435 89.5411 109.857C89.5411 107.279 91.6295 105.19 94.206 105.19H105.431C108.007 105.19 110.095 107.279 110.095 109.857C110.095 112.435 108.007 114.524 105.431 114.524ZM94.206 105.345C91.7188 105.345 89.6951 107.369 89.6951 109.857C89.6951 112.346 91.7188 114.371 94.206 114.371H105.431C107.918 114.371 109.941 112.347 109.941 109.857C109.941 107.369 107.918 105.345 105.431 105.345H94.206Z" fill="#4195C9"/>
<path d="M99.8182 55.4382C104.768 55.4382 108.781 51.4229 108.781 46.4702C108.781 41.5175 104.768 37.5022 99.8182 37.5022C94.8683 37.5022 90.8553 41.5175 90.8553 46.4702C90.8553 51.4236 94.8683 55.4382 99.8182 55.4382Z" fill="#D9EAF4"/>
<path d="M106.883 51.989C105.878 50.4169 104.114 49.4244 102.229 49.4244H101.322L100.267 50.0105H99.2901L98.6853 49.4244H97.3272C95.2604 49.4244 94.0738 50.6149 93.125 52.4337C94.7665 54.2765 97.1563 55.4382 99.8184 55.4382C102.689 55.4382 105.243 54.088 106.884 51.989H106.883Z" fill="#3389C7"/>
<path d="M99.4887 50.4016H100.596C101.117 50.4016 101.54 49.9785 101.54 49.4571V46.2627H98.5446V49.4571C98.5446 49.9785 98.9667 50.4016 99.4885 50.4016H99.4887Z" fill="#FBC9BB"/>
<path d="M102.598 43.6063C102.598 43.6063 103.273 48.6715 100.177 48.5183C100.177 48.5183 97.7052 48.8568 97.2767 46.8191C97.0628 45.8012 96.9089 44.7137 96.8083 43.8809C96.7078 43.0466 96.6608 42.4669 96.6608 42.4669L97.8951 41.2445L100.558 41.0872L102.462 41.6493L102.598 43.607V43.6061V43.6063Z" fill="#FBC9BB"/>
<path d="M102.669 41.2205C102.068 40.4308 101.223 40.5673 101.223 40.5673C101.223 40.1098 100.549 39.5628 99.7153 39.5781C99.3625 39.5845 97.8991 39.5534 97.5975 40.3278C97.4123 40.8028 96.6399 41.1223 96.5434 41.4385C96.2848 42.2865 96.2873 42.7583 96.4165 43.3772C96.537 43.9536 96.7972 44.4439 96.7972 44.4439L96.8906 44.6211L97.0111 44.606L97.0789 44.6659L97.1396 45.0507L97.2648 45.1194L97.3143 45.0867L97.2703 44.2012L97.4428 43.8419C97.4428 43.8419 97.4077 43.1936 98.2041 43.4755C98.8376 43.6999 99.9286 43.2487 99.9286 43.2487C100.913 42.7825 100.532 42.357 100.77 42.0918C101.067 41.7613 101.584 42.0113 101.738 42.1406C102.014 42.373 102.196 42.7625 102.226 43.0021C102.256 43.2433 102.153 43.6537 102.145 43.7782L102.317 44.0281L102.365 44.2007L102.322 45.0773L102.376 45.1157L102.495 45.0495L102.552 44.6583L102.601 44.6L102.665 44.6056L102.715 44.4659C102.715 44.4659 102.82 44.2368 102.962 43.8407C103.004 43.6922 102.98 43.448 103.009 43.2516C103.196 42.0092 103.311 42.0643 102.669 41.2196V41.2212L102.669 41.2205Z" fill="#324666"/>
<path d="M99.6602 49.9785L100.042 50.919L98.8104 50.0385L99.0618 49.4236L99.6602 49.9785Z" fill="#E6E7E8"/>
<path d="M98.5447 48.9198L99.6602 49.9785L98.8646 51.0859L98.2238 49.4244L98.5447 48.9198Z" fill="white"/>
<path d="M100.425 49.9785L100.042 50.919L101.274 50.0385L101.024 49.4236L100.425 49.9785Z" fill="#E6E7E8"/>
<path d="M101.54 48.9198L100.425 49.9785L101.22 51.0859L101.862 49.4244L101.54 48.9198Z" fill="white"/>
<path d="M99.6251 50.2938H100.651L100.897 50.6356L100.042 51.2815L99.1328 50.7131L99.4367 50.2898L99.6251 50.2938Z" fill="#24AC6D"/>
<path d="M99.6602 51.0428L99.2102 55.4174C99.4112 55.431 99.614 55.4381 99.8183 55.4381C100.155 55.4381 100.488 55.419 100.815 55.383L100.359 51.0428H99.6596H99.6603H99.6602Z" fill="#F47954"/>
<path d="M99.6602 51.0428L99.2102 55.4174C99.4112 55.431 99.614 55.4381 99.8183 55.4381C100.155 55.4381 100.488 55.419 100.815 55.383L100.359 51.0428H99.6596H99.6603H99.6602Z" fill="#24AC6D"/>
<path d="M99.9786 51.4276C100.002 51.4659 100.087 51.4674 100.11 51.4276C100.146 51.3677 100.168 51.2145 100.166 51.0428H99.8627C99.8763 51.1985 99.9417 51.3677 99.9775 51.4276H99.9784H99.9786Z" fill="#24AC6D"/>
<path d="M94.6273 53.0142V53.7814C94.6113 53.7701 94.5953 53.7583 94.5795 53.7463L94.6273 53.0133V53.014V53.0142Z" fill="#86A0AF"/>
<path d="M105.926 53.0142V53.034L105.927 53.0324L105.926 53.0142Z" fill="#86A0AF"/>
<path d="M163.911 96.8511L162.808 97.8554L162.618 98.2195L162.197 98.4104L162.128 96.6298L161.973 95.4634L161.898 95.3292L161.84 95.8897L161.744 96.4654L161.317 96.7225L161.235 96.6674L161.165 95.884L161.155 94.5811L161.786 93.1511L161.72 90.5091L163.695 90.4596L163.724 93.1662L164.068 95.2094L163.911 96.8511Z" fill="#FFB27D"/>
<path d="M161.547 73.2399C163.333 77.8493 163.631 79.7088 164.218 83.3888C164.395 84.4962 163.95 85.6411 163.162 85.7266L163 85.7664C161.988 85.9628 161.204 85.6586 160.788 84.35C159.767 81.1308 158.877 78.4281 157.185 73.8228C156.769 72.6899 157.247 71.2247 158.132 70.8327C160.165 69.9329 161.134 72.1772 161.547 73.2408V73.2401L161.547 73.2399Z" fill="#24AC6D"/>
<path d="M163.883 91.1623L161.377 91.3045C161.377 91.3045 160.976 87.2013 160.789 84.3493C160.718 83.2706 161.496 82.4036 162.524 82.3572C163.552 82.3101 164.266 83.0582 164.256 83.9629C164.226 86.5889 163.883 91.1615 163.883 91.1615V91.1623H163.883Z" fill="#24AC6D"/>
<path d="M154.552 66.1258L151.7 66.1204L151.689 71.853L154.541 71.8586L154.552 66.1258Z" fill="#FBC9BB"/>
<path d="M149.231 63.9797C148.97 65.9974 150.153 67.813 151.872 68.0357C153.592 68.2585 155.761 67.1103 156.022 65.0935C156.044 64.9186 156.49 61.7969 156.429 60.5241C156.389 59.7146 155.839 58.7724 155.043 58.6199C155.043 58.6199 153.763 58.0609 152.21 58.0769C151.109 58.0882 150.112 59.4271 149.884 60.4251C149.593 61.7058 149.256 63.7857 149.231 63.9797Z" fill="#FFB27D"/>
<path d="M153.601 69.7931C153.601 69.7931 154.447 69.8227 155.003 69.8936C156.353 70.0677 158.769 70.3975 159.426 70.6186C161.169 71.2047 160.878 72.8055 160.609 74.269C160.609 74.269 159.305 78.2188 159.012 79.6616C158.665 81.3638 158.007 83.9962 157.922 85.7608C157.839 87.4807 157.827 88.5657 157.827 88.5657L157.708 90.6911L144.817 90.5913L144.883 89.3362C144.883 89.3362 145.711 84.7268 145.748 83.1715C145.793 81.2721 145.265 77.937 145.357 75.5817C145.436 73.5465 145.204 70.182 146.709 69.5616C147.467 69.2494 150.219 69.5552 150.219 69.5552L150.749 69.6263L153.601 69.794V69.7932L153.601 69.7931Z" fill="#24AC6D"/>
<path d="M162.487 70.2051C161.728 66.6066 157.222 69.2423 159.252 65.5199C161.283 61.7985 158.304 59.5342 156.91 58.3269C155.725 57.3009 154.448 58.2007 154.448 58.2007C153.268 56.7347 152.337 56.425 150.978 57.2418C150.129 57.7528 149.37 58.612 148.905 59.5581C148.242 60.5761 147.285 62.8301 150.261 64.573C150.261 64.573 149.985 64.2345 149.675 63.6397C151.56 64.8133 153.687 65.9711 151.206 69.1992C148.7 72.4591 153.598 74.3721 155.548 75.9363C157.498 77.5012 156.15 79.0845 156.15 79.0845C160.467 78.5983 163.246 73.8029 162.487 70.2044L162.487 70.2051H162.487Z" fill="#324666"/>
<path d="M126.26 70.4015L125.802 69.0082L124.287 68.6369L124.284 68.181L126.202 68.5172L127.39 68.7638L127.434 68.7535L127.289 68.6785L126.916 68.6162L126.567 68.5563L126.397 68.2689L126.422 68.2434L127.648 68.1923L128.769 68.6529L129.511 69.5296L132.712 71.9832L131.403 73.9138L128.721 71.2638L127.314 70.9731L126.26 70.4015Z" fill="#FFB27D"/>
<path d="M147.751 74.1039C143.944 77.324 141.855 78.1448 138.471 79.3983C137.419 79.7887 136.222 79.5619 135.932 78.8242L135.851 78.6781C135.394 77.7544 135.716 76.8744 136.815 76.0521C139.649 73.9338 141.71 72.2979 145.823 69.9058C146.866 69.299 148.344 69.2774 148.956 70.028C150.361 71.751 148.623 73.3663 147.752 74.1024L147.751 74.1039H147.751Z" fill="#24AC6D"/>
<path d="M130.724 73.6071L132.018 71.1998C132.018 71.1998 136.289 74.4774 138.539 76.2403C139.389 76.907 139.318 78.1151 138.667 78.9118C138.015 79.7103 136.886 79.8427 136.219 79.232C134.283 77.4587 130.724 73.6071 130.724 73.6071H130.724Z" fill="#24AC6D"/>
<path d="M153.715 133.575L153.798 138.689L152.915 138.992L150.559 140.049V140.605L155.935 140.629L156.228 140.115L156.054 139.282L155.941 138.443L156.335 133.575H153.715Z" fill="#FFB27D"/>
<path d="M152.432 138.986L152.906 138.767L152.86 139.758L155.415 139.204L156.081 138.906L156.203 139.351L156.335 140.022L156.125 140.805L154.676 140.749H149.121L148.961 140.359L152.432 138.986Z" fill="#4195C9"/>
<path d="M142.598 133.575L142.36 138.689L141.478 138.992L139.121 140.049V140.605L144.497 140.629L144.789 140.115L144.616 139.282L144.503 138.443L145.219 133.575H142.598Z" fill="#FFB27D"/>
<path d="M140.994 138.986L141.468 138.767L141.422 139.758L143.976 139.204L144.643 138.906L144.765 139.351L144.897 140.022L144.687 140.805L143.237 140.749H137.683L137.523 140.359L140.994 138.986Z" fill="#4195C9"/>
<path d="M157.575 89.1693H145.077C144.853 89.1693 144.661 89.3273 144.618 89.547L144.45 90.4022L142.837 95.0467L142.966 100.668L143.011 117.328L142.162 135.073L145.459 135.124L148.296 117.352L151.393 101.132L151.695 100.819L152.759 117.906L153.354 135.304H156.503L157.971 117.561L159.804 99.5595C159.804 99.5595 160.132 95.3518 159.804 93.9825C159.54 92.8807 158.128 90.3489 158.128 90.3489L158.043 89.5848C158.017 89.3476 157.817 89.168 157.577 89.168L157.576 89.1696L157.575 89.1693Z" fill="#3389C7"/>
<path d="M33.6785 64.4843L36.3549 64.3351L36.5927 68.6202L33.9163 68.7688L33.6785 64.4843Z" fill="#FFB27D"/>
<path d="M38.1367 61.6179C38.7886 63.416 38.0744 65.3234 36.5423 65.8807C35.0102 66.4372 33.2395 65.4312 32.5884 63.6331C32.4958 63.3793 31.1719 60.1568 31.1328 59.9021L37.0083 57.7694C37.1415 57.9898 38.0456 61.3647 38.1374 61.6187L38.1367 61.6179Z" fill="#FFB27D"/>
<path d="M30.8106 60.1744C30.2752 57.7161 32.3316 56.8234 32.3316 56.8234L37.4514 55.1259C38.373 56.7978 37.0883 58.0865 37.0883 58.0865L32.7402 59.5269L32.9564 61.5494L32.7234 61.6379L31.9981 60.7453L31.8098 60.778L32.674 63.8608L32.1266 63.1925L31.2944 61.6076L30.81 60.1743H30.8109L30.8106 60.1744Z" fill="#324666"/>
<path d="M38.148 61.4199C37.9404 61.6379 36.5847 62.5553 36.2991 62.6343C34.7175 63.0711 33.8653 63.0631 33.8653 63.0631L32.9556 61.5492L32.7227 61.6378L32.9964 63.4973L33.1017 64.7006C33.1017 64.7006 33.4585 65.2036 33.9069 65.5422C34.4463 65.9486 35.0248 66.1784 35.6201 66.129C35.9369 66.1026 36.5833 65.9533 36.8554 65.8224C37.2647 65.626 37.6167 65.2476 37.8121 65.0152C38.8751 63.7505 38.4729 62.2782 38.1481 61.4207L38.148 61.4199Z" fill="#435D88"/>
<path d="M37.7187 62.6592C37.7187 62.6592 36.6246 63.8361 35.2784 63.666C35.2784 63.666 37.4146 65.1959 37.7187 62.6592Z" fill="#FFB27D"/>
<path d="M55.878 90.292L57.1707 90.1027L57.3278 90.1123L57.6925 89.9327L56.8603 88.8834L56.1972 88.058L56.1476 87.9326L56.6257 88.0788L57.1993 88.2121L57.6111 88.0659L57.6199 87.9797L56.7916 87.5653L55.7312 86.889L54.736 86.6455L51.7956 84.3868L50.7773 86.1992L53.6683 87.9662L54.6826 89.2564L55.878 90.292Z" fill="#FFB27D"/>
<path d="M39.9673 68.6553C40.2968 68.332 41.734 66.9929 42.4132 68.7686C43.6708 72.0589 44.7289 74.1908 46.3184 80.1335C46.6871 81.5115 46.802 82.1767 45.8947 82.7435L45.7431 82.8273C44.835 83.3941 43.7745 82.9535 43.1872 81.9483C43.1872 81.9483 40.1309 76.4175 39.2165 71.4657C38.9779 70.1722 39.5724 69.0417 39.9682 68.6544L39.9675 68.6551L39.9673 68.6553Z" fill="#24AC6D"/>
<path d="M45.7598 79.6194C49.412 82.223 53.8272 85.5788 53.8272 85.5788L52.2361 87.7536C52.2361 87.7536 47.4778 86.0394 43.827 82.7091C42.9605 81.9186 42.9899 80.5932 43.5039 79.9913C43.9061 79.5194 45.0288 79.0979 45.7597 79.6192L45.7598 79.6194Z" fill="#24AC6D"/>
<path d="M36.5432 67.2613L40.7708 67.6246C42.7658 67.8299 42.4808 69.1663 42.5702 70.7759L42.3596 81.0334L42.3852 89.1438L42.9095 90.6816L42.2712 91.7571L42.2378 92.6505L29.1454 92.6696L29.1614 91.7515L28.4943 90.4653L28.9666 89.1918L28.5261 83.7896L28.021 77.3494L26.9973 72.0159C26.9326 70.8614 27.0954 68.9044 28.7153 68.3025C29.5763 67.9823 33.8358 67.3755 33.8358 67.3755L35.4931 68.6505L36.5425 67.2629L36.5432 67.2614V67.2613Z" fill="#24AC6D"/>
<path d="M39.8045 139.97H39.7255L39.7079 140.363H37.8303L37.8814 139.843L37.9428 139.842L37.9412 139.837L37.9468 137.927H39.8962L39.9376 138.178L40.8369 138.839L43.6849 139.654C43.6849 139.654 43.9092 139.751 43.9052 139.875L43.8972 140.1L43.8924 140.235C43.8924 140.235 43.8581 140.295 43.626 140.363H40.3607L40.1628 140.1L39.9705 139.979L39.8045 139.97H39.8044L39.8045 139.97Z" fill="#324666"/>
<path d="M26.86 139.97H26.9381L26.9557 140.363H28.8342L28.7831 139.843L28.7217 139.842L28.7233 139.837L28.7177 137.927H26.7683L26.7269 138.178L25.8267 138.839L22.9796 139.654C22.9796 139.654 22.7546 139.751 22.7594 139.875L22.7681 140.1L22.7728 140.235C22.7728 140.235 22.8072 140.295 23.0402 140.363H26.3055L26.5025 140.1L26.6948 139.979L26.8616 139.97H26.86V139.97Z" fill="#324666"/>
<path d="M27.3474 118.719L26.3827 138.178L29.4517 138.125L32.1607 119.254L35.2863 100.793L35.6367 100.946L37.0252 118.999L37.5606 138.252H40.7828L41.6494 119.445L42.7602 95.9024L42.3932 93.1869V91.9622H28.9832L28.9609 93.0713L27.8948 95.5951L27.3474 118.719Z" fill="#2678BA"/>
<path d="M33.7966 67.3938L33.7711 66.9092L33.8126 66.9036L35.0606 67.619L35.4931 68.6489L33.7966 67.3938Z" fill="#BF9B55"/>
<path d="M35.0606 67.619L35.0175 67.6326L33.9945 68.9108L33.6785 67.3971L33.7711 66.9092L33.8126 66.9036L35.0606 67.619Z" fill="#FFEBC6"/>
<path d="M36.5248 67.3802L36.5504 66.8963L36.5088 66.89L35.8169 67.6189L35.493 68.6489L36.5248 67.3802Z" fill="#BF9B55"/>
<path d="M35.817 67.619L35.8602 67.6326L36.73 68.8222L36.643 67.3842L36.5505 66.8963L36.5089 66.89L35.817 67.619Z" fill="#FFEBC6"/>
<path d="M12.225 66.0269L12.4612 64.2967L12.4245 64.121L12.565 63.6788L14.4131 64.6696L15.8254 65.385L15.9755 65.4192L15.76 64.7942L15.8327 64.1027L16.0784 63.749L16.1742 63.725L16.4215 64.6122L17.1094 65.6372L17.4309 66.6361L18.3741 69.4993L16.1893 70.4574L15.5437 67.7124L14.0467 67.076L12.225 66.0269Z" fill="#FFB27D"/>
<path d="M14.8735 67.7746L12.4827 67.2916C12.3088 67.2565 12.1963 67.0872 12.2314 66.9132L13.201 61.9231C13.236 61.749 13.4052 61.6365 13.5799 61.6716L15.9707 62.1546C16.1446 62.1897 16.2571 62.3598 16.222 62.533L15.2517 67.5231C15.2166 67.6972 15.0465 67.8097 14.8728 67.7746H14.8735Z" fill="#435D88"/>
<path d="M15.1073 67.282L12.4589 66.7463L13.3501 62.1433L15.9995 62.6783L15.1073 67.282Z" fill="#85D2DA"/>
<path d="M30.0213 69.9073C29.8801 69.4681 29.0717 67.7706 27.9435 68.752C25.287 71.0627 24.1802 71.9226 20.0053 76.4393C19.0373 77.4869 18.6255 78.0218 19.1651 78.9463L19.2601 79.0916C19.7995 80.0162 20.943 80.1209 21.9309 79.5053C21.9309 79.5053 26.2607 76.7004 29.3761 72.7458C30.1899 71.7126 30.1899 70.4351 30.0209 69.9074L30.0216 69.9073H30.0213Z" fill="#24AC6D"/>
<path d="M22.1893 77.7207C20.5422 73.5465 18.3502 68.4518 18.3502 68.4518L15.8573 69.473C15.8573 69.473 16.3744 74.5063 18.7268 78.8538C19.2845 79.8846 20.578 80.176 21.2851 79.8223C21.8396 79.5461 22.5188 78.5568 22.1884 77.7216L22.1891 77.7209L22.1893 77.7207Z" fill="#24AC6D"/>
<path d="M84.79 87.9796C84.79 89.0991 83.8835 90.0061 82.7647 90.0061C81.6459 90.0061 80.7386 89.0991 80.7386 87.9796C80.7386 86.8602 81.6459 85.9525 82.7647 85.9525C83.8835 85.9525 84.79 86.8595 84.79 87.9796Z" fill="#2678BA"/>
<path d="M90.4612 87.9796C90.4612 89.0991 89.554 90.0061 88.4352 90.0061C87.3164 90.0061 86.4099 89.0991 86.4099 87.9796C86.4099 86.8602 87.3164 85.9525 88.4352 85.9525C89.554 85.9525 90.4612 86.8595 90.4612 87.9796Z" fill="#2678BA"/>
<path d="M96.1323 87.9796C96.1323 89.0991 95.225 90.0061 94.1062 90.0061C92.9875 90.0061 92.0802 89.0991 92.0802 87.9796C92.0802 86.8602 92.9875 85.9525 94.1062 85.9525C95.225 85.9525 96.1323 86.8595 96.1323 87.9796Z" fill="#2678BA"/>
<path d="M99.7784 90.0061C98.6596 90.0061 97.7523 89.0991 97.7523 87.9796C97.7523 86.8602 98.6596 85.9525 99.7784 85.9525C100.897 85.9525 101.804 86.8595 101.804 87.9796C101.804 89.0991 100.897 90.0061 99.7784 90.0061Z" fill="white"/>
<path d="M105.449 90.0061C104.33 90.0061 103.423 89.0991 103.423 87.9796C103.423 86.8602 104.331 85.9525 105.449 85.9525C106.567 85.9525 107.475 86.8595 107.475 87.9796C107.475 89.0991 106.567 90.0061 105.449 90.0061Z" fill="white"/>
<path d="M111.121 90.0061C110.002 90.0061 109.095 89.0991 109.095 87.9796C109.095 86.8602 110.001 85.9525 111.121 85.9525C112.24 85.9525 113.146 86.8595 113.146 87.9796C113.146 89.0991 112.24 90.0061 111.121 90.0061Z" fill="white"/>
<path d="M116.791 90.0061C115.672 90.0061 114.765 89.0991 114.765 87.9796C114.765 86.8602 115.672 85.9525 116.791 85.9525C117.91 85.9525 118.817 86.8595 118.817 87.9796C118.817 89.0991 117.91 90.0061 116.791 90.0061Z" fill="white"/>
</svg>
